{"glyphs":{"0":{"ha":773,"x_min":0,"x_max":694,"o":"m 348 -14 q 108 115 203 -14 q 0 503 0 256 q 84 853 0 709 q 348 1016 182 1016 q 611 853 515 1016 q 694 503 694 709 q 588 115 694 256 q 348 -14 492 -14 m 348 50 q 501 205 460 50 q 526 503 526 305 q 501 797 526 696 q 348 955 460 955 q 194 797 235 955 q 168 503 168 696 q 194 205 168 305 q 348 50 235 50 z "},"1":{"ha":530,"x_min":0,"x_max":452,"o":"m 452 -3 l 116 -3 l 116 52 q 212 165 212 60 l 212 830 l 205 830 q 0 678 99 728 l 0 748 q 270 1015 165 846 l 357 1015 l 357 165 q 452 52 357 62 l 452 -3 z "},"2":{"ha":781,"x_min":0,"x_max":703,"o":"m 641 -3 l 0 -3 l 0 56 q 488 758 488 534 q 448 871 488 829 q 327 918 404 918 q 100 793 199 918 l 45 822 q 381 1015 177 1015 q 587 949 512 1015 q 656 798 656 887 q 157 127 656 578 l 157 127 l 447 127 q 641 224 595 127 l 703 224 l 641 -3 z "},"3":{"ha":729,"x_min":0,"x_max":650,"o":"m 26 819 q 370 1024 158 1024 q 534 968 476 1024 q 587 852 587 922 q 408 622 587 718 l 408 621 l 418 621 q 577 570 512 621 q 650 403 650 509 q 477 115 650 233 q 40 -14 301 -6 l 0 -14 l 0 39 q 360 154 224 54 q 491 382 491 251 q 439 496 491 454 q 321 534 393 534 q 193 500 266 534 l 161 547 q 451 832 451 701 q 420 904 451 876 q 320 937 384 937 q 79 788 199 937 l 26 819 z "},"4":{"ha":801,"x_min":0,"x_max":723,"o":"m 565 1015 l 565 406 l 577 406 q 672 498 648 406 l 723 488 l 665 291 l 565 291 l 565 -3 l 419 -3 l 419 291 l 0 291 l 0 361 l 496 1015 l 565 1015 m 419 809 l 415 809 l 117 416 l 117 406 l 419 406 l 419 809 z "},"5":{"ha":669,"x_min":0,"x_max":590,"o":"m 488 873 l 216 873 l 148 639 l 149 637 q 306 675 222 675 q 492 618 412 675 q 590 414 590 547 q 480 141 590 265 q 134 -14 345 -14 q 0 1 52 -14 l 0 62 q 112 50 43 50 q 346 160 253 50 q 429 399 429 264 q 378 560 429 506 q 270 605 333 605 q 111 564 204 605 l 80 587 l 193 1005 l 420 1005 q 528 1017 454 1005 l 488 873 z "},"6":{"ha":768,"x_min":0,"x_max":690,"o":"m 345 -14 q 58 132 151 -14 q 0 330 0 223 q 29 574 0 487 q 168 808 71 699 q 541 1025 313 970 l 541 962 q 171 540 223 810 l 170 540 q 371 623 249 623 q 604 531 513 623 q 690 317 690 447 q 597 81 690 174 q 345 -14 501 -14 m 349 559 q 161 301 161 559 q 235 92 161 155 q 348 50 282 50 q 529 301 529 50 q 466 512 529 444 q 349 559 419 559 z "},"7":{"ha":677,"x_min":0,"x_max":600,"o":"m 21 1015 l 600 1015 l 600 954 l 291 -3 l 107 -3 l 509 882 l 140 882 q 81 859 98 882 q 60 749 61 831 l 0 749 l 21 1015 z "},"8":{"ha":753,"x_min":0,"x_max":674,"o":"m 176 560 q 58 777 58 642 q 131 937 58 869 q 348 1016 214 1016 q 540 954 463 1016 q 615 803 615 892 q 480 591 615 663 l 480 588 q 674 306 674 484 q 590 90 674 180 q 331 -14 496 -14 q 90 73 182 -14 q 0 277 0 153 q 176 559 0 474 l 176 560 m 395 623 q 497 802 497 681 q 458 906 497 863 q 333 955 412 955 q 217 909 262 955 q 176 817 176 868 q 395 623 176 682 m 223 534 q 128 293 128 450 q 197 104 128 171 q 346 50 256 50 q 476 99 425 50 q 529 231 529 151 q 353 479 529 395 q 223 534 328 490 z "},"9":{"ha":766,"x_min":0,"x_max":688,"o":"m 344 1016 q 552 951 461 1016 q 688 672 688 857 q 656 431 688 524 q 492 170 610 290 q 149 -15 349 29 l 149 48 q 519 465 465 201 l 519 465 q 319 381 447 381 q 120 444 210 381 q 0 686 0 527 q 73 899 0 808 q 344 1016 165 1016 m 340 445 q 526 700 526 445 q 458 909 526 845 q 340 955 411 955 q 161 700 161 955 q 340 445 161 445 z "}," ":{"ha":342,"x_min":0,"x_max":0,"o":""},"!":{"ha":396,"x_min":132,"x_max":304,"o":"m 134 1017 l 303 1017 l 252 203 l 184 203 l 134 1017 m 132 56 q 158 113 132 91 q 218 140 182 140 q 278 113 255 140 q 304 56 304 91 q 278 -2 304 22 q 218 -27 255 -27 q 158 -2 182 -27 q 132 56 132 22 z "},"\"":{"ha":477,"x_min":45,"x_max":445,"o":"m 149 677 l 89 677 l 45 1015 l 191 1015 l 149 677 m 403 677 l 342 677 l 298 1015 l 445 1015 l 403 677 z "},"#":{"ha":1099,"x_min":0,"x_max":1021,"o":"m 549 -3 l 600 279 l 332 279 l 283 -3 l 185 -3 l 233 279 l 0 279 l 16 355 l 248 355 l 304 674 l 73 674 l 85 752 l 319 752 l 368 1020 l 465 1020 l 417 752 l 685 752 l 734 1020 l 831 1020 l 783 752 l 1021 752 l 1006 674 l 768 674 l 711 355 l 949 355 l 935 279 l 696 279 l 646 -3 l 549 -3 m 613 355 l 671 674 l 402 674 l 345 355 l 613 355 z "},"$":{"ha":791,"x_min":0,"x_max":713,"o":"m 396 935 q 566 886 488 930 q 658 765 658 837 q 565 671 658 671 q 477 749 477 671 q 485 777 477 766 q 491 814 491 785 q 396 866 491 866 l 396 571 q 612 471 572 498 q 713 282 713 402 q 651 113 713 193 q 396 -8 566 10 l 396 -109 l 321 -109 l 321 -9 q 67 71 151 7 q 0 193 0 121 q 32 258 0 234 q 111 286 64 286 q 176 256 153 286 q 199 203 199 235 q 186 159 199 182 q 174 126 174 137 q 208 85 174 105 q 321 60 252 62 l 321 450 q 111 553 175 501 q 33 705 33 613 q 115 865 33 800 q 321 935 201 934 l 321 1024 l 396 1024 l 396 935 m 321 866 q 199 821 243 861 q 163 736 163 786 q 321 597 163 652 l 321 866 m 396 61 q 536 123 475 68 q 593 243 593 178 q 396 425 593 374 l 396 61 z "},"%":{"ha":1210,"x_min":0,"x_max":1131,"o":"m 250 1021 q 443 934 375 1021 q 499 758 499 861 q 459 604 499 671 q 250 495 393 495 q 39 604 106 495 q 0 758 0 671 q 56 934 0 861 q 250 1021 123 1021 m 250 960 q 138 818 138 960 l 138 700 q 250 557 138 557 q 361 700 361 557 l 361 818 q 250 960 361 960 m 787 1025 l 852 1002 l 345 -16 l 278 11 l 787 1025 m 881 512 q 1075 425 1006 512 q 1131 249 1131 351 q 1090 94 1131 162 q 881 -14 1023 -14 q 671 94 739 -14 q 631 249 631 162 q 687 425 631 351 q 881 512 754 512 m 881 451 q 768 307 768 451 l 768 192 q 881 46 768 46 q 992 192 992 46 l 992 307 q 881 451 992 451 z "},"&":{"ha":1170,"x_min":0,"x_max":1093,"o":"m 1023 631 l 1023 572 q 874 471 937 554 q 803 365 868 466 q 699 227 751 286 q 919 100 802 100 q 998 126 962 100 q 1043 202 1032 155 l 1093 202 q 866 -14 1044 -14 q 604 126 732 -14 q 269 -14 454 -14 q 63 60 134 -14 q 0 222 0 126 q 310 568 0 418 q 257 768 257 682 q 328 943 257 880 q 493 1002 391 1002 q 645 951 585 1002 q 703 828 703 902 q 465 572 703 674 q 658 276 537 417 q 780 524 780 425 q 706 572 780 564 l 706 631 l 1023 631 m 560 174 q 336 508 422 334 q 164 288 164 426 q 217 136 164 193 q 345 83 268 83 q 560 174 458 83 m 439 629 q 603 828 603 689 q 573 916 603 884 q 503 939 547 939 q 424 911 455 939 q 387 822 387 882 q 439 629 387 748 z "},"'":{"ha":161,"x_min":0,"x_max":146,"o":"m 104 680 l 44 680 l 0 1017 l 146 1017 l 104 680 z "},"(":{"ha":484,"x_min":0,"x_max":405,"o":"m 405 1039 q 376 1002 405 1027 q 294 897 334 956 q 161 428 161 696 q 294 -43 161 156 q 376 -146 334 -104 q 405 -184 405 -175 q 377 -212 405 -212 q 314 -179 355 -212 q 0 428 0 63 q 314 1032 0 791 q 377 1065 355 1065 q 405 1039 405 1065 z "},")":{"ha":484,"x_min":0,"x_max":405,"o":"m 0 1047 q 28 1076 0 1076 q 91 1043 50 1076 q 405 424 405 795 q 91 -197 405 52 q 28 -230 50 -230 q 0 -200 0 -230 q 29 -163 0 -193 q 111 -58 72 -120 q 244 424 244 148 q 111 903 244 698 q 29 1009 72 966 q 0 1047 0 1039 z "},"*":{"ha":734,"x_min":0,"x_max":656,"o":"m 239 850 q 328 931 252 931 q 417 850 403 931 q 351 621 347 771 q 363 614 355 619 q 551 751 484 643 l 560 751 q 635 718 608 751 q 656 661 656 690 q 607 568 656 605 q 496 587 566 587 q 377 566 426 587 q 375 551 377 555 q 403 514 382 536 q 557 407 492 420 q 551 308 581 354 q 472 266 522 266 q 410 294 439 266 q 336 522 422 416 q 320 522 328 520 q 245 294 235 416 q 186 266 218 266 q 105 308 134 266 q 100 407 75 354 q 253 515 165 420 q 281 551 275 536 q 278 566 278 554 q 161 587 231 587 q 49 568 90 587 q 0 661 0 605 q 20 718 0 690 q 96 751 48 751 l 105 751 q 293 614 173 643 q 304 621 302 619 q 239 850 309 771 z "},"+":{"ha":951,"x_min":0,"x_max":872,"o":"m 394 45 l 394 477 l 0 477 l 0 569 l 394 569 l 394 1000 l 477 1000 l 477 569 l 872 569 l 872 477 l 477 477 l 477 45 l 394 45 z "},",":{"ha":269,"x_min":37,"x_max":239,"o":"m 47 -157 q 151 -11 140 -76 q 125 -9 140 -10 q 37 73 49 0 q 140 180 49 170 q 239 53 239 170 q 82 -197 239 -95 l 47 -157 z "},"-":{"ha":528,"x_min":97,"x_max":456,"o":"m 97 182 l 131 368 l 336 368 q 388 379 372 368 q 412 420 404 391 l 456 420 l 427 234 l 217 234 q 175 231 186 234 q 158 220 163 228 q 155 217 157 219 q 136 182 153 214 l 97 182 z "},".":{"ha":252,"x_min":43,"x_max":216,"o":"m 43 76 q 69 139 43 115 q 130 167 94 167 q 189 139 166 167 q 216 76 216 115 q 189 13 216 39 q 130 -15 166 -15 q 69 13 94 -15 q 43 76 43 39 z "},"/":{"ha":711,"x_min":0,"x_max":636,"o":"m 0 -140 l 537 1044 l 636 1044 l 96 -140 l 0 -140 z "},":":{"ha":297,"x_min":95,"x_max":271,"o":"m 98 542 q 124 604 98 579 q 184 629 149 629 q 244 604 221 629 q 271 542 271 579 q 244 483 271 509 q 184 456 221 456 q 124 483 149 456 q 98 542 98 509 m 95 79 q 121 138 95 116 q 182 165 146 165 q 241 138 218 165 q 268 79 268 116 q 241 19 268 43 q 182 -7 218 -7 q 121 19 146 -7 q 95 79 95 43 z "},";":{"ha":327,"x_min":80,"x_max":283,"o":"m 93 540 q 117 604 93 579 q 180 631 144 631 q 240 604 215 631 q 267 540 267 579 q 240 477 267 504 q 180 449 215 449 q 117 477 144 449 q 93 540 93 504 m 90 -157 q 195 -10 183 -75 q 169 -8 183 -9 q 80 73 92 1 q 183 180 92 171 q 283 54 283 171 q 125 -196 283 -94 l 90 -157 z "},"<":{"ha":882,"x_min":75,"x_max":884,"o":"m 884 10 l 860 -60 l 75 282 l 860 624 l 884 555 l 260 282 l 884 10 z "},"=":{"ha":934,"x_min":0,"x_max":855,"o":"m 0 248 l 855 248 l 855 174 l 0 174 l 0 248 m 0 460 l 855 460 l 855 391 l 0 391 l 0 460 z "},">":{"ha":854,"x_min":75,"x_max":857,"o":"m 75 610 l 98 680 l 857 338 l 98 -5 l 75 66 l 677 338 l 75 610 z "},"?":{"ha":603,"x_min":95,"x_max":579,"o":"m 132 484 l 190 492 q 273 458 221 458 q 417 636 417 458 q 363 859 417 747 q 278 960 315 960 q 256 943 261 960 q 188 897 243 897 q 124 960 124 897 q 231 1027 124 1027 q 484 862 355 1027 q 579 566 579 738 q 515 406 579 465 q 361 345 452 345 q 216 402 284 345 l 209 402 l 224 234 l 159 234 l 132 484 m 95 78 q 123 135 95 112 q 186 157 151 157 q 250 135 223 157 q 276 78 276 112 q 250 21 276 44 q 186 -3 224 -3 q 123 21 151 -3 q 95 78 95 44 z "},"@":{"ha":1257,"x_min":0,"x_max":1179,"o":"m 819 370 q 795 262 795 296 q 853 185 795 185 q 1002 263 932 185 q 1091 526 1091 361 q 961 848 1091 718 q 623 979 825 979 q 220 804 372 979 q 90 436 90 646 q 236 70 90 224 q 625 -90 390 -90 q 939 30 809 -90 l 985 -41 q 631 -169 814 -169 q 168 15 347 -169 q 0 431 0 188 q 174 873 0 697 q 623 1050 348 1050 q 1023 894 865 1050 q 1179 526 1179 745 q 1062 216 1179 332 q 838 115 964 115 q 688 214 734 115 q 511 146 602 146 q 368 209 425 146 q 303 393 303 277 q 399 644 303 538 q 644 751 500 751 q 795 671 743 751 l 814 726 l 925 726 l 819 370 m 764 583 q 720 670 752 635 q 642 702 686 702 q 529 641 584 702 q 448 462 471 574 q 433 310 433 403 q 458 234 433 265 q 538 201 487 201 q 676 277 623 201 l 764 583 z "},"A":{"ha":1158,"x_min":0,"x_max":1086,"o":"m 975 155 q 1086 54 1020 56 l 1086 -5 l 784 -5 l 784 53 q 829 69 821 60 q 835 103 835 77 q 823 142 835 113 l 766 267 l 260 267 l 202 149 q 186 102 186 113 q 244 53 186 64 l 244 -5 l 0 -5 l 0 54 q 117 151 75 57 l 451 840 q 463 872 463 865 q 428 888 463 888 l 428 946 q 534 1008 493 958 l 573 1008 l 975 155 m 524 795 l 517 795 l 294 333 l 739 333 l 524 795 z "},"B":{"ha":934,"x_min":0,"x_max":862,"o":"m 426 995 q 795 817 728 995 q 810 741 810 779 q 799 671 810 709 q 631 520 752 547 l 616 516 l 637 508 q 828 383 766 489 q 862 262 862 326 q 723 45 862 115 q 504 -5 627 -5 l 0 -5 l 0 54 q 92 163 92 57 l 92 826 q 0 935 92 933 l 0 995 l 426 995 m 407 536 q 635 663 593 536 q 644 739 644 692 q 631 802 644 768 q 387 928 585 928 l 239 928 l 239 536 l 407 536 m 439 61 q 596 93 529 61 q 694 262 694 142 q 621 417 694 363 q 426 469 551 469 l 239 469 l 239 61 l 439 61 z "},"C":{"ha":1021,"x_min":0,"x_max":951,"o":"m 844 753 q 707 907 803 854 q 528 953 626 953 q 283 840 388 953 q 168 493 168 715 q 277 164 168 283 q 558 52 382 52 q 911 209 761 52 l 951 168 q 528 -16 776 -16 q 151 119 298 -16 q 0 494 0 262 q 144 869 0 722 q 516 1018 290 1018 q 734 986 618 1018 q 840 966 810 966 q 874 985 856 966 l 909 985 l 909 753 l 844 753 z "},"D":{"ha":1122,"x_min":0,"x_max":1051,"o":"m 458 989 q 954 783 794 989 q 1051 484 1051 655 q 914 145 1051 289 q 459 -5 769 -5 l 0 -5 l 0 52 q 92 163 92 62 l 92 822 q 0 932 92 924 l 0 989 l 458 989 m 425 62 q 715 132 598 62 q 884 489 884 241 q 691 860 884 748 q 425 924 576 924 l 238 924 l 238 62 l 425 62 z "},"E":{"ha":917,"x_min":0,"x_max":901,"o":"m 806 995 l 812 804 l 748 804 q 662 904 726 877 q 513 923 612 923 l 238 923 l 238 531 l 424 531 q 545 609 529 531 l 608 609 l 608 389 l 545 389 q 499 459 526 445 q 424 465 484 465 l 238 465 l 238 61 l 547 61 q 835 215 822 61 l 901 215 l 884 -5 l 0 -5 l 0 52 q 92 161 92 62 l 92 821 q 0 928 92 927 l 1 995 l 806 995 z "},"F":{"ha":914,"x_min":0,"x_max":842,"o":"m 842 996 l 842 802 l 777 802 q 691 901 755 874 q 542 921 642 921 l 238 921 l 238 549 l 454 549 q 575 628 559 549 l 640 628 l 640 406 l 575 406 q 538 473 563 460 q 464 484 515 484 l 238 484 l 238 161 q 329 52 238 64 l 329 -5 l 0 -5 l 0 53 q 92 161 92 61 l 92 819 q 0 926 92 921 l 2 996 l 842 996 z "},"G":{"ha":1073,"x_min":0,"x_max":1000,"o":"m 930 750 l 867 750 q 530 953 781 953 q 282 854 380 953 q 168 519 168 735 q 395 82 168 176 q 587 52 464 52 q 771 102 700 52 q 854 245 844 155 q 764 360 865 355 l 764 419 l 1000 419 l 1000 62 q 582 -16 749 -16 q 151 119 294 -16 q 0 524 0 260 q 123 843 0 702 q 528 1018 274 1018 q 765 979 661 1018 q 846 964 810 964 q 861 968 852 964 q 873 979 867 975 l 930 979 l 930 750 z "},"H":{"ha":1035,"x_min":0,"x_max":994,"o":"m 301 937 q 218 826 218 928 l 218 538 l 773 538 l 773 826 q 691 938 773 927 l 691 995 l 994 995 l 994 937 q 909 826 909 928 l 909 162 q 994 52 909 61 l 994 -5 l 691 -5 l 691 52 q 773 162 773 62 l 773 471 l 218 471 l 218 162 q 301 53 218 61 l 301 -5 l 0 -5 l 0 53 q 84 162 84 61 l 84 826 q 0 937 84 928 l 0 995 l 301 995 l 301 937 z "},"I":{"ha":399,"x_min":0,"x_max":328,"o":"m 328 938 q 237 827 237 930 l 237 162 q 328 52 237 62 l 328 -5 l 0 -5 l 0 52 q 91 162 91 62 l 91 827 q 0 938 91 930 l 0 996 l 328 996 l 328 938 z "},"J":{"ha":389,"x_min":-190,"x_max":357,"o":"m 357 999 l 357 944 q 259 838 259 932 l 259 174 q 158 -95 259 1 q -41 -175 73 -175 q -150 -145 -107 -175 q -190 -80 -190 -117 q -168 -30 -190 -52 q -115 -13 -146 -13 q -39 -65 -39 -13 q -41 -83 -39 -75 q -44 -90 -44 -87 q -5 -109 -44 -109 q 104 119 104 -109 l 104 838 q 7 943 104 935 l 7 999 l 357 999 z "},"K":{"ha":1005,"x_min":0,"x_max":973,"o":"m 298 996 l 298 938 q 216 827 216 930 l 216 529 l 216 529 l 590 842 q 635 907 635 880 q 598 938 635 938 l 582 938 l 582 996 l 888 996 l 888 939 q 688 829 787 913 l 403 593 l 807 153 q 973 52 892 65 l 973 -5 l 602 -5 l 602 53 l 619 53 q 663 91 663 53 q 633 148 663 113 l 300 508 l 216 439 l 216 162 q 298 52 216 61 l 298 -5 l 0 -5 l 0 52 q 83 162 83 62 l 83 827 q 0 938 83 930 l 0 996 l 298 996 z "},"L":{"ha":857,"x_min":0,"x_max":784,"o":"m 307 939 q 221 826 221 929 l 221 62 l 522 62 q 661 115 604 62 q 723 239 709 164 l 784 239 l 784 -5 l 0 -5 l 0 53 q 84 164 84 62 l 84 826 q 0 939 84 929 l 0 995 l 307 995 l 307 939 z "},"M":{"ha":1298,"x_min":0,"x_max":1226,"o":"m 610 192 l 951 996 l 1226 996 l 1226 938 q 1139 829 1139 930 l 1139 161 q 1226 54 1139 60 l 1226 -5 l 911 -5 l 911 54 q 999 161 999 60 l 999 937 l 597 -16 l 539 -16 l 159 937 l 159 161 q 245 54 159 60 l 245 -5 l 0 -5 l 0 54 q 88 161 88 62 l 88 857 q 0 938 88 935 l 0 996 l 279 996 l 610 192 z "},"N":{"ha":1030,"x_min":0,"x_max":958,"o":"m 0 52 q 66 82 41 60 q 84 151 84 111 l 84 823 q 0 938 84 935 l 0 996 l 212 996 l 793 258 l 806 242 l 806 830 q 723 939 806 928 l 723 996 l 958 996 l 958 939 q 889 901 907 927 q 875 830 875 880 l 875 -5 l 823 -5 l 150 849 l 153 849 l 153 151 q 237 53 153 53 l 237 -5 l 0 -5 l 0 52 z "},"O":{"ha":1104,"x_min":0,"x_max":1032,"o":"m 516 1009 q 901 843 753 1009 q 1032 502 1032 696 q 901 159 1032 306 q 516 -5 753 -5 q 133 159 279 -5 q 0 502 0 306 q 133 843 0 696 q 516 1009 279 1009 m 516 939 q 264 824 364 939 q 156 498 156 702 q 264 169 156 289 q 516 54 364 54 q 768 169 668 54 q 876 498 876 289 q 768 824 876 702 q 516 939 668 939 z "},"P":{"ha":924,"x_min":0,"x_max":853,"o":"m 0 54 q 90 172 90 59 l 90 696 q 248 960 90 879 q 477 1007 347 1007 q 712 935 605 1007 q 853 653 853 839 q 754 415 853 515 q 450 301 642 301 q 229 380 316 301 l 230 372 l 230 176 q 248 83 230 111 q 325 54 267 54 l 325 -5 l 0 -5 l 0 54 m 230 472 q 449 366 307 366 q 653 463 597 366 q 690 653 690 526 q 656 836 690 775 q 450 943 601 943 q 291 888 353 943 q 230 757 230 835 l 230 472 z "},"Q":{"ha":1061,"x_min":3,"x_max":1038,"o":"m 980 -45 q 805 -254 929 -254 q 576 -10 652 -254 q 520 -14 552 -14 q 134 157 282 -14 q 3 496 3 304 q 136 839 3 692 q 520 1005 282 1005 q 906 839 758 1005 q 1038 496 1038 692 q 946 201 1038 336 q 709 19 852 67 q 838 -128 776 -128 q 918 -33 890 -128 l 980 -45 m 552 52 q 436 145 516 145 q 347 96 368 145 q 520 52 418 57 l 552 52 m 296 135 q 473 222 355 222 q 675 86 606 222 q 880 493 880 180 q 812 770 880 660 q 520 939 711 939 q 228 770 330 939 q 160 493 160 660 q 296 135 160 250 z "},"R":{"ha":991,"x_min":0,"x_max":919,"o":"m 388 996 q 764 850 688 996 q 791 742 791 799 q 587 480 791 532 l 791 150 q 919 53 850 56 l 919 -5 l 725 -5 l 437 458 l 224 458 l 224 163 q 309 52 224 61 l 309 -5 l 0 -5 l 0 52 q 85 163 85 61 l 85 828 q 0 941 85 930 l 0 996 l 388 996 m 366 522 q 632 730 632 522 q 538 904 632 859 q 366 930 482 930 l 224 930 l 224 522 l 366 522 z "},"S":{"ha":798,"x_min":0,"x_max":726,"o":"m 596 728 q 336 943 510 943 q 200 900 252 943 q 149 788 149 859 q 363 610 149 668 q 520 562 463 583 q 726 290 726 474 q 629 75 726 165 q 396 -16 532 -16 q 233 5 308 -16 q 124 31 141 31 q 64 -5 75 31 l 0 -5 l 0 311 l 65 311 q 194 129 99 201 q 408 51 292 51 q 546 103 488 51 q 603 237 603 159 q 439 428 603 362 q 345 455 405 443 q 254 481 281 471 q 31 748 31 557 q 122 937 31 865 q 349 1009 212 1009 q 543 956 448 1009 q 586 941 570 941 q 619 962 597 941 l 668 962 l 668 728 l 596 728 z "},"T":{"ha":1055,"x_min":0,"x_max":1021,"o":"m 0 995 l 1021 995 l 1021 796 l 954 796 q 923 876 953 844 q 793 918 880 918 l 584 918 l 584 162 q 673 54 584 62 l 673 -5 l 345 -5 l 345 53 q 437 162 437 64 l 437 918 l 226 918 q 65 796 93 918 l 0 796 l 0 995 z "},"U":{"ha":1112,"x_min":0,"x_max":1040,"o":"m 312 996 l 312 939 q 227 827 227 929 l 227 439 q 393 104 227 183 q 555 73 456 73 q 740 122 655 73 q 865 283 832 176 q 884 472 884 344 l 884 839 q 797 937 884 930 l 797 996 l 1040 996 l 1040 937 q 954 839 954 930 l 954 406 q 530 -16 954 -16 q 184 106 290 -16 q 85 445 85 216 l 85 827 q 0 937 85 929 l 0 996 l 312 996 z "},"V":{"ha":1185,"x_min":0,"x_max":1113,"o":"m 329 996 l 329 938 q 254 888 254 938 q 279 821 254 876 l 591 171 l 590 171 l 907 817 q 928 882 928 863 q 847 938 928 941 l 847 996 l 1113 996 l 1113 939 q 983 816 1038 928 l 567 -16 l 521 -16 l 107 860 q 0 938 73 932 l 0 996 l 329 996 z "},"W":{"ha":1520,"x_min":0,"x_max":1448,"o":"m 1448 938 q 1333 816 1385 934 l 964 -16 l 915 -16 l 733 434 l 538 -16 l 484 -16 l 124 842 q 0 938 86 937 l 0 996 l 334 996 l 334 938 q 264 887 264 938 q 284 820 264 869 l 549 186 l 692 522 l 549 857 q 447 938 517 932 l 447 996 l 1018 996 l 1018 939 q 899 817 945 928 l 806 603 l 981 185 l 1245 802 q 1268 880 1268 855 q 1246 927 1268 911 q 1194 937 1219 935 l 1194 996 l 1448 996 l 1448 938 m 838 857 q 850 904 850 884 q 800 938 850 938 l 767 938 q 705 932 722 938 q 686 899 686 924 q 705 844 686 890 l 768 694 l 838 857 z "},"X":{"ha":1055,"x_min":0,"x_max":979,"o":"m 950 938 q 804 845 870 930 l 554 539 l 807 174 q 979 52 882 68 l 979 -5 l 659 -5 l 659 53 l 677 53 q 701 79 701 53 q 677 136 701 102 l 466 436 l 224 130 q 202 81 202 103 q 235 53 202 53 l 252 53 l 252 -5 l 0 -5 l 0 53 q 136 135 79 61 l 427 494 l 214 799 q 61 938 119 938 l 37 938 l 37 996 l 347 996 l 347 938 q 313 920 313 938 q 326 869 313 884 l 515 594 l 720 856 q 743 905 743 886 q 703 938 743 938 l 703 996 l 950 996 l 950 938 z "},"Y":{"ha":1045,"x_min":0,"x_max":973,"o":"m 340 996 l 340 941 q 290 901 290 931 q 306 859 290 880 l 541 538 l 543 538 l 741 846 q 770 907 770 890 q 718 940 770 940 l 718 996 l 973 996 l 973 940 q 803 819 879 941 l 569 453 l 569 163 q 652 52 569 61 l 652 -5 l 350 -5 l 350 52 q 434 163 434 62 l 434 460 l 167 823 q 0 941 87 930 l 0 996 l 340 996 z "},"Z":{"ha":1025,"x_min":0,"x_max":953,"o":"m 54 996 l 909 996 l 909 943 l 190 61 l 721 61 q 890 184 869 61 l 953 184 l 953 -5 l 0 -5 l 0 55 l 717 930 l 304 930 q 117 804 140 930 l 54 804 l 54 996 z "},"[":{"ha":416,"x_min":0,"x_max":336,"o":"m 336 1012 l 139 1012 l 139 -142 l 336 -142 l 336 -201 l 0 -201 l 0 1070 l 336 1070 l 336 1012 z "},"\\":{"ha":711,"x_min":0,"x_max":636,"o":"m 0 1062 l 98 1062 l 636 -194 l 541 -194 l 0 1062 z "},"]":{"ha":416,"x_min":0,"x_max":336,"o":"m 336 1063 l 336 -201 l 0 -201 l 0 -142 l 197 -142 l 197 1004 l 0 1004 l 0 1063 l 336 1063 z "},"^":{"ha":683,"x_min":0,"x_max":614,"o":"m 130 698 l 0 698 l 306 1021 l 614 698 l 484 698 l 306 884 l 130 698 z "},"_":{"ha":921,"x_min":0,"x_max":842,"o":"m 0 -241 l 842 -241 l 842 -327 l 0 -327 l 0 -241 z "},"`":{"ha":366,"x_min":0,"x_max":287,"o":"m 264 694 l 75 819 q 26 853 39 840 q 0 907 0 876 q 60 971 0 971 q 125 937 97 971 l 287 725 l 264 694 z "},"a":{"ha":677,"x_min":0,"x_max":599,"o":"m 367 332 q 134 168 134 319 q 165 94 134 123 q 242 68 195 68 q 349 136 319 68 q 367 279 367 181 l 367 332 m 384 81 q 192 -3 300 -3 q 50 46 101 -3 q 0 165 0 91 q 367 389 0 368 q 346 522 367 481 q 252 574 322 574 q 174 526 193 574 q 157 479 159 481 q 111 458 143 458 q 56 507 56 458 q 110 587 56 552 q 265 630 170 630 q 461 535 411 630 q 491 358 491 477 l 491 163 q 555 68 491 68 q 585 79 565 68 l 599 56 q 492 -3 557 -3 q 384 81 409 -3 z "},"b":{"ha":779,"x_min":-1,"x_max":699,"o":"m 195 585 q 393 642 273 642 q 615 555 530 642 q 699 328 699 468 q 614 83 699 180 q 393 -16 525 -16 q 363 -14 372 -16 q 170 56 264 -5 l 97 -13 l 71 -13 l 71 784 q -1 864 71 857 l -1 917 l 195 917 l 195 585 m 195 241 q 353 46 195 46 q 557 328 557 46 q 361 585 557 585 q 195 519 260 585 l 195 241 z "},"c":{"ha":644,"x_min":0,"x_max":566,"o":"m 566 122 q 303 -3 452 -3 q 94 74 180 -3 q 0 300 0 158 q 90 532 0 440 q 312 627 176 627 q 466 589 410 627 q 517 509 517 555 q 454 451 517 451 q 387 514 389 451 l 387 517 q 316 572 381 572 q 199 512 243 572 q 142 300 142 441 q 220 114 142 170 q 338 75 271 75 q 534 155 459 75 l 566 122 z "},"d":{"ha":785,"x_min":0,"x_max":706,"o":"m 633 134 q 706 52 633 58 l 706 -2 l 509 -2 l 509 52 l 503 52 q 321 -14 420 -14 q 106 57 195 -14 q 0 304 0 142 q 94 559 0 467 q 296 642 176 642 q 498 587 415 642 l 509 587 l 509 779 q 446 863 509 844 l 446 917 l 633 917 l 633 134 m 509 494 q 353 585 471 585 q 217 534 270 585 q 142 313 142 464 q 195 111 142 181 q 328 42 244 42 q 444 79 391 42 q 509 165 497 116 l 509 494 z "},"e":{"ha":625,"x_min":0,"x_max":548,"o":"m 548 129 q 293 -6 434 -6 q 106 50 186 -6 q 0 289 0 127 q 83 534 0 439 q 288 627 162 627 q 472 543 405 627 q 530 370 530 469 l 530 353 l 144 353 q 142 292 142 336 q 315 64 142 64 q 514 161 418 64 l 548 129 m 395 420 q 281 561 395 561 q 146 410 153 561 l 395 410 l 395 420 z "},"f":{"ha":483,"x_min":0,"x_max":401,"o":"m 79 627 l 79 656 q 147 833 86 764 q 309 919 224 919 q 376 897 351 919 q 401 847 401 877 q 347 788 401 788 q 292 817 316 788 q 256 833 276 833 q 201 730 201 833 l 203 627 l 376 627 l 376 570 l 203 570 l 203 165 q 286 52 203 43 l 286 -3 l 0 -3 l 0 50 q 66 88 53 58 q 79 165 79 109 l 79 570 l 1 570 l 1 627 l 79 627 z "},"g":{"ha":726,"x_min":0,"x_max":647,"o":"m 0 57 l 125 256 q 27 421 27 309 q 100 578 27 520 q 280 635 170 635 q 481 569 407 635 q 564 633 503 633 q 647 555 647 633 q 593 498 647 498 q 552 538 552 498 q 555 555 552 545 q 568 576 559 568 l 572 583 l 557 585 q 512 544 526 583 l 519 526 q 532 494 528 512 q 543 425 543 463 q 460 265 543 323 q 289 215 387 215 q 183 232 233 215 l 111 122 l 113 119 l 189 146 q 328 172 256 172 q 518 118 437 172 q 614 -45 614 58 q 532 -189 614 -134 q 328 -246 452 -246 q 139 -205 215 -246 q 61 -93 61 -162 q 135 -18 61 -18 q 200 -74 200 -18 q 192 -104 200 -90 q 168 -142 168 -141 q 307 -191 168 -191 q 524 -64 524 -191 q 309 54 524 54 q 27 -1 174 54 l 0 57 m 282 573 q 166 418 166 573 q 282 263 166 263 q 396 419 396 263 q 282 573 396 573 z "},"h":{"ha":730,"x_min":0,"x_max":652,"o":"m 200 557 l 204 557 q 409 640 296 640 q 581 432 581 640 l 581 163 q 652 50 581 58 l 652 -3 l 385 -3 l 385 50 q 447 90 433 57 q 456 163 456 109 l 456 437 q 362 565 456 565 q 200 455 256 565 l 200 164 q 270 50 203 60 l 270 -3 l 0 -3 l 0 50 q 73 164 73 60 l 73 753 q 64 833 73 798 q 3 865 50 857 l 3 918 l 200 918 l 200 557 z "},"i":{"ha":369,"x_min":0,"x_max":269,"o":"m 195 627 l 195 164 q 269 51 195 55 l 269 -3 l 0 -3 l 0 50 q 71 164 71 58 l 71 458 q 62 536 71 515 q 0 574 47 564 l 0 627 l 195 627 m 34 833 q 57 886 34 862 q 117 913 79 913 q 173 890 151 913 q 198 833 198 866 q 170 772 198 794 q 117 750 144 750 q 59 775 85 750 q 34 833 34 801 z "},"j":{"ha":388,"x_min":-67,"x_max":254,"o":"m 254 629 l 254 37 q 206 -203 254 -121 q 34 -303 149 -303 q -39 -281 -10 -303 q -67 -227 -67 -256 q -8 -173 -67 -173 q 40 -199 20 -173 q 94 -230 68 -230 q 128 -184 128 -230 l 128 458 q 43 573 128 573 l 15 573 l 15 629 l 254 629 m 79 833 q 102 886 79 862 q 161 913 123 913 q 218 890 196 913 q 243 833 243 866 q 215 772 243 794 q 161 750 189 750 q 104 775 130 750 q 79 833 79 801 z "},"k":{"ha":713,"x_min":-3,"x_max":660,"o":"m 197 380 l 347 507 q 382 549 382 537 q 336 573 382 573 l 336 627 l 595 627 l 595 573 q 427 491 517 568 l 338 414 l 551 141 q 660 54 616 56 l 660 0 l 360 0 l 360 55 q 400 62 389 56 q 416 77 412 67 l 417 83 l 418 90 l 416 96 l 412 105 l 241 326 l 197 288 l 197 164 q 267 50 200 60 l 267 -3 l -3 -3 l -3 50 q 70 164 70 60 l 70 753 q 61 833 70 798 q 1 865 47 857 l 1 918 l 197 918 l 197 380 z "},"l":{"ha":348,"x_min":0,"x_max":270,"o":"m 200 918 l 200 164 q 270 50 203 60 l 270 -3 l 0 -3 l 0 50 q 73 164 73 60 l 73 753 q 64 833 73 798 q 3 865 50 857 l 3 918 l 200 918 z "},"m":{"ha":1115,"x_min":0,"x_max":1036,"o":"m 0 50 q 73 165 73 60 l 73 495 q 1 576 73 560 l 1 629 l 198 629 l 197 549 q 411 642 286 642 q 564 549 527 642 q 781 642 659 642 q 940 570 898 642 q 965 439 965 527 l 965 165 q 1036 51 965 55 l 1036 -3 l 767 -3 l 767 50 q 840 165 840 60 l 840 439 q 746 566 840 566 q 581 462 641 566 l 581 165 q 654 51 581 55 l 654 -3 l 382 -3 l 382 50 q 456 165 456 60 l 456 439 q 363 566 456 566 q 198 460 267 566 l 198 165 q 270 50 198 58 l 270 -3 l 0 -3 l 0 50 z "},"n":{"ha":732,"x_min":0,"x_max":654,"o":"m 0 50 q 73 165 73 60 l 73 493 q 1 574 73 558 l 1 627 l 198 627 l 197 547 q 404 640 286 640 l 411 640 q 561 564 523 638 q 581 432 581 524 l 581 165 q 654 51 581 55 l 654 -3 l 382 -3 l 382 50 q 456 165 456 60 l 456 437 q 363 564 456 564 q 198 458 267 564 l 198 165 q 270 50 198 58 l 270 -3 l 0 -3 l 0 50 z "},"o":{"ha":699,"x_min":2,"x_max":622,"o":"m 313 639 q 612 405 552 639 q 622 311 622 363 q 612 234 622 278 q 458 37 576 96 q 313 3 389 3 q 169 37 235 3 q 12 234 48 95 q 2 311 2 278 q 12 405 2 363 q 313 639 74 639 m 311 576 q 193 527 233 576 q 142 316 142 468 q 164 160 142 212 q 311 59 200 59 q 479 316 479 59 q 428 527 479 468 q 311 576 390 576 z "},"p":{"ha":758,"x_min":5,"x_max":684,"o":"m 5 -221 q 76 -112 76 -214 l 76 336 q 96 483 76 440 q 371 635 165 635 q 581 562 492 635 q 684 319 684 475 q 578 71 684 166 q 382 1 497 1 q 201 66 264 1 l 200 66 l 200 -111 q 282 -221 200 -221 l 282 -274 l 5 -274 l 5 -221 m 200 233 q 370 66 200 66 q 542 319 542 66 q 371 571 542 571 q 237 508 286 571 q 200 409 200 461 l 200 233 z "},"q":{"ha":793,"x_min":0,"x_max":715,"o":"m 434 -250 q 517 -138 517 -236 l 517 60 l 515 60 q 319 -22 433 -22 q 74 83 162 -22 q 0 294 0 170 q 66 500 0 410 q 340 626 159 626 q 531 574 448 626 l 538 574 l 602 626 l 643 626 l 643 -136 q 715 -250 643 -248 l 715 -302 l 434 -302 l 434 -250 m 517 480 q 353 570 459 570 q 217 520 270 570 q 142 301 142 450 q 195 104 142 172 q 328 34 244 34 q 517 156 465 34 l 517 480 z "},"r":{"ha":519,"x_min":0,"x_max":441,"o":"m 198 627 l 198 527 l 199 527 q 358 640 273 640 q 441 566 441 640 q 382 504 441 504 q 327 527 347 504 q 296 548 315 548 q 231 491 261 548 q 198 340 198 429 l 198 164 q 270 51 198 55 l 270 -3 l 0 -3 l 0 50 q 73 164 73 58 l 73 493 q 1 574 73 559 l 1 627 l 198 627 z "},"s":{"ha":551,"x_min":0,"x_max":473,"o":"m 229 627 q 382 589 326 627 q 431 507 431 555 q 380 456 431 456 q 311 525 324 456 q 233 572 311 572 q 115 482 115 572 q 152 412 115 438 q 249 378 174 397 q 390 326 347 351 q 473 187 473 277 q 402 50 473 104 q 228 -3 332 -3 q 54 46 119 -3 q 0 139 0 87 q 68 208 0 208 q 134 153 134 208 q 130 132 134 146 q 127 110 127 117 q 146 73 127 88 q 227 52 174 52 q 325 85 289 52 q 354 150 354 112 q 254 245 354 211 q 94 309 123 288 q 21 441 21 356 q 81 578 21 526 q 229 627 138 627 z "},"t":{"ha":469,"x_min":0,"x_max":390,"o":"m 71 629 l 71 768 l 195 838 l 195 629 l 330 629 l 330 572 l 195 572 l 195 158 q 270 71 195 71 q 359 108 315 71 l 390 69 q 217 -14 316 -14 q 71 154 71 -14 l 71 572 l 0 572 l 0 629 l 71 629 z "},"u":{"ha":729,"x_min":0,"x_max":650,"o":"m 578 167 q 589 91 578 112 q 650 52 601 61 l 650 -2 l 452 -2 l 452 79 l 452 79 q 250 -14 363 -14 q 71 168 71 -14 l 71 492 q 0 574 71 574 l 0 627 l 195 627 l 195 187 q 288 60 195 60 q 452 166 383 60 l 452 493 q 381 575 452 567 l 381 627 l 578 627 l 578 167 z "},"v":{"ha":741,"x_min":0,"x_max":663,"o":"m 663 575 q 561 495 590 566 l 355 -1 l 319 -1 l 109 474 q 0 575 72 559 l 0 626 l 276 626 l 276 574 q 223 536 223 572 q 236 498 223 527 l 366 209 l 368 209 l 484 496 q 494 541 494 530 q 434 574 494 570 l 434 626 l 663 626 l 663 575 z "},"w":{"ha":1019,"x_min":0,"x_max":940,"o":"m 940 574 q 861 502 890 572 l 633 -14 l 583 -14 l 472 251 l 469 251 l 346 -14 l 298 -14 l 77 522 q 0 574 37 569 l 0 627 l 231 627 l 231 574 q 195 555 209 573 q 202 528 195 541 l 357 148 l 359 148 l 441 319 l 354 519 q 293 574 331 574 l 293 627 l 665 627 l 665 574 q 586 495 618 570 l 530 379 l 631 141 l 632 141 l 788 502 q 804 546 804 530 q 752 574 780 573 l 752 627 l 940 627 l 940 574 m 545 545 q 557 578 557 573 q 546 585 557 585 l 475 585 q 450 574 450 585 l 461 544 l 500 449 l 545 545 z "},"x":{"ha":726,"x_min":0,"x_max":646,"o":"m 608 573 q 476 479 549 573 l 381 354 l 535 138 q 646 51 596 52 l 646 -3 l 357 -3 l 357 51 l 376 51 q 416 86 416 51 q 392 134 416 111 l 300 250 l 234 153 q 204 96 211 117 l 200 79 q 211 58 203 62 q 254 51 218 54 l 254 -3 l 0 -3 l 0 51 l 22 51 q 161 166 75 51 l 264 304 l 149 463 q 18 573 73 570 l 18 627 l 297 627 l 297 573 q 245 555 245 570 q 290 481 245 540 l 344 407 l 406 496 q 433 551 433 535 q 392 573 418 570 l 392 627 l 608 627 l 608 573 z "},"y":{"ha":770,"x_min":0,"x_max":692,"o":"m 692 574 q 595 479 633 561 l 340 -79 q 252 -233 290 -189 q 121 -292 197 -292 q 5 -203 5 -292 q 68 -132 5 -132 q 121 -150 95 -132 q 171 -172 146 -172 q 257 -95 224 -172 l 304 7 l 116 479 q 0 573 75 563 l 0 627 l 304 627 l 304 573 l 284 573 q 240 536 240 573 q 256 487 240 520 l 379 178 l 381 178 l 509 460 q 529 528 529 517 q 466 573 507 572 l 466 627 l 692 627 l 692 574 z "},"z":{"ha":644,"x_min":0,"x_max":565,"o":"m 31 627 l 533 627 l 533 592 l 174 64 l 176 58 l 374 58 q 513 146 495 66 l 565 146 l 565 -3 l 0 -3 l 0 45 l 364 570 l 224 570 q 83 487 95 570 l 31 487 l 31 627 z "},"{":{"ha":437,"x_min":0,"x_max":359,"o":"m 83 530 q 255 239 245 445 q 255 150 258 196 q 248 -4 248 24 q 359 -151 248 -132 l 351 -212 q 160 -81 207 -182 q 131 107 131 -20 l 134 221 q 0 496 134 472 l 0 565 q 134 839 134 591 l 131 954 q 160 1143 131 1081 q 351 1274 207 1243 l 359 1214 q 248 1065 248 1193 q 255 909 248 1039 q 255 823 258 867 q 83 530 245 617 z "},"|":{"ha":161,"x_min":0,"x_max":83,"o":"m 0 1469 l 83 1469 l 83 -315 l 0 -315 l 0 1469 z "},"}":{"ha":437,"x_min":0,"x_max":359,"o":"m 0 -151 q 111 -4 111 -132 q 104 150 111 24 q 104 239 102 196 q 276 530 116 445 q 104 823 116 617 q 104 909 102 867 q 111 1065 111 1039 q 0 1214 111 1193 l 9 1274 q 199 1143 153 1243 q 229 954 229 1081 l 226 839 q 359 565 226 591 l 359 496 q 226 221 226 472 l 229 107 q 199 -81 229 -20 q 9 -212 153 -182 l 0 -151 z "},"~":{"ha":985,"x_min":0,"x_max":909,"o":"m 0 348 q 303 588 98 588 q 552 518 397 588 q 683 484 628 484 q 833 608 794 484 l 909 608 q 796 416 880 487 q 609 348 715 348 q 431 394 540 348 q 230 458 271 458 q 78 348 136 458 l 0 348 z "}," ":{"ha":342,"x_min":0,"x_max":0,"o":""},"¡":{"ha":262,"x_min":0,"x_max":183,"o":"m 120 678 l 183 -259 l 3 -259 l 53 678 l 120 678 m 0 839 q 26 905 0 879 q 87 934 51 934 q 146 905 123 934 q 173 839 173 879 q 146 774 173 800 q 87 745 123 745 q 26 774 51 745 q 0 839 0 800 z "},"¢":{"ha":644,"x_min":0,"x_max":566,"o":"m 566 131 q 323 -1 459 6 l 323 -98 l 265 -98 l 265 1 q 75 101 150 15 q 0 315 0 188 q 81 549 0 453 q 265 652 158 641 l 265 759 l 323 759 l 323 656 q 463 619 405 659 q 517 532 517 583 q 454 473 517 473 q 388 539 389 473 q 323 600 382 600 l 323 82 q 344 81 329 81 q 534 165 461 81 l 566 131 m 265 591 q 140 315 140 555 q 265 96 140 140 l 265 591 z "},"£":{"ha":890,"x_min":0,"x_max":812,"o":"m 630 502 l 387 502 q 405 368 405 434 q 378 195 405 299 q 638 63 567 63 q 671 103 671 63 q 661 134 671 119 q 651 170 651 155 q 670 222 651 199 q 728 243 692 243 q 784 222 761 243 q 812 151 812 195 q 755 33 812 80 q 604 -14 695 -14 q 338 87 480 -14 q 153 -14 263 -14 q 32 30 73 -14 q 0 109 0 62 q 49 201 0 165 q 184 241 102 241 q 288 224 235 241 q 222 502 283 323 l 12 502 l 12 564 l 200 564 q 181 724 181 640 q 263 932 181 850 q 473 1015 342 1015 q 631 972 568 1015 q 699 859 699 930 q 673 788 699 815 q 616 765 650 765 q 538 839 538 765 q 550 884 538 859 q 561 905 561 902 q 536 937 561 922 q 481 954 510 954 q 361 897 406 954 q 315 762 315 844 q 361 564 315 675 l 630 564 l 630 502 m 82 109 q 153 58 82 58 q 278 126 235 58 q 153 174 212 174 q 82 109 82 174 z "},"¤":{"ha":999,"x_min":0,"x_max":922,"o":"m 922 937 l 776 786 q 867 517 867 667 q 776 249 867 368 l 922 97 l 858 31 l 715 186 q 460 90 604 90 q 205 186 317 90 l 62 31 l 0 97 l 145 249 q 54 517 54 368 q 145 786 54 667 l 0 937 l 62 1004 l 205 848 q 460 945 317 945 q 715 849 604 945 l 858 1004 l 922 937 m 142 517 q 235 273 142 375 q 460 173 328 173 q 686 273 593 173 q 779 517 779 375 q 686 762 779 660 q 460 862 593 862 q 235 762 328 862 q 142 517 142 660 z "},"¥":{"ha":1023,"x_min":0,"x_max":943,"o":"m 549 444 l 793 444 l 793 380 l 549 380 l 549 167 q 631 52 549 61 l 631 -3 l 342 -3 l 342 52 q 423 167 423 62 l 423 380 l 181 380 l 181 444 l 423 444 l 423 470 l 377 537 l 181 537 l 181 602 l 331 602 l 161 844 q 0 965 86 955 l 0 1020 l 325 1020 l 325 965 q 275 922 275 956 q 291 880 275 902 l 524 551 l 528 551 l 724 867 q 753 930 753 913 q 699 964 753 964 l 699 1020 l 943 1020 l 943 964 q 779 841 853 964 l 633 602 l 793 602 l 793 537 l 594 537 l 549 463 l 549 444 z "},"¦":{"ha":161,"x_min":0,"x_max":83,"o":"m 0 1029 l 83 1029 l 83 658 l 0 658 l 0 1029 m 83 352 l 83 -19 l 0 -19 l 0 352 l 83 352 z "},"§":{"ha":631,"x_min":0,"x_max":553,"o":"m 136 730 q 78 860 78 790 q 132 974 78 930 q 284 1020 190 1020 q 437 977 374 1020 q 495 876 495 937 q 428 809 495 809 q 361 864 361 809 q 367 892 361 874 q 372 917 372 909 q 345 951 372 935 q 275 969 316 969 q 199 947 230 969 q 167 896 167 926 q 256 777 167 838 l 399 676 q 553 475 553 568 q 412 294 553 366 q 470 170 470 242 q 411 46 470 96 q 259 -6 349 -6 q 114 31 174 -6 q 52 135 52 70 q 125 217 52 217 q 197 158 197 217 q 189 125 197 144 q 180 96 180 98 q 201 61 180 74 q 269 45 227 45 q 340 64 308 45 q 380 135 380 90 q 271 268 380 185 l 102 393 q 0 557 0 466 q 136 730 0 662 m 177 694 q 91 600 91 652 q 185 475 91 547 l 376 330 q 462 436 462 378 q 354 567 462 488 l 177 694 z "},"¨":{"ha":472,"x_min":0,"x_max":393,"o":"m 0 777 q 22 834 0 810 q 77 858 46 858 q 132 834 109 858 q 155 777 155 810 q 132 719 155 743 q 77 695 109 695 q 22 719 46 695 q 0 777 0 743 m 239 777 q 261 834 239 810 q 316 858 283 858 q 370 833 347 858 q 393 777 393 810 q 370 720 393 743 q 316 695 347 695 q 261 719 283 695 q 239 777 239 743 z "},"©":{"ha":1187,"x_min":0,"x_max":1109,"o":"m 0 593 q 162 1023 0 844 q 555 1200 326 1200 q 946 1023 785 1200 q 1109 593 1109 844 q 946 163 1109 342 q 555 -14 785 -14 q 162 163 326 -14 q 0 593 0 342 m 71 593 q 211 216 71 374 q 555 63 355 63 q 897 216 754 63 q 1038 593 1038 374 q 897 969 1038 812 q 555 1123 754 1123 q 211 969 355 1123 q 71 593 71 812 m 798 386 l 746 334 q 543 266 673 266 q 344 356 421 266 q 279 471 297 409 q 265 590 265 517 q 315 791 265 711 q 552 931 404 931 q 663 913 627 931 q 728 898 699 898 q 745 907 736 898 l 768 907 l 768 759 l 725 759 q 559 877 693 877 q 448 820 498 877 q 376 593 376 742 q 583 326 376 326 q 769 419 704 326 l 798 386 z "},"ª":{"ha":490,"x_min":0,"x_max":412,"o":"m 412 647 q 337 602 385 602 q 266 665 280 602 l 267 665 q 134 602 208 602 q 100 605 119 602 q 9 726 9 627 q 253 888 9 878 q 241 984 251 959 q 178 1021 226 1021 q 127 987 140 1021 l 123 970 q 117 955 120 959 q 84 937 109 937 q 46 965 49 937 l 46 975 q 187 1063 57 1063 q 319 994 283 1063 q 339 865 339 952 l 339 724 q 381 658 339 658 q 400 663 389 658 l 412 647 m 253 845 q 154 819 199 845 q 100 728 100 785 q 172 658 100 658 q 253 810 253 658 l 253 845 m 0 562 l 412 562 l 412 517 l 0 517 l 0 562 z "},"«":{"ha":674,"x_min":121,"x_max":564,"o":"m 450 96 l 399 66 l 121 307 l 394 544 l 442 516 l 292 307 l 450 98 l 450 96 m 560 163 l 520 140 l 347 307 l 512 479 l 564 452 l 471 307 l 560 165 l 560 163 z "},"¬":{"ha":934,"x_min":0,"x_max":855,"o":"m 0 330 l 855 330 l 855 76 l 773 76 l 773 244 l 0 244 l 0 330 z "},"­":{"ha":409,"x_min":33,"x_max":392,"o":"m 33 182 l 66 368 l 272 368 q 323 379 307 368 q 348 420 340 391 l 392 420 l 363 234 l 153 234 q 110 231 121 234 q 94 220 99 228 q 90 217 92 219 q 71 182 88 214 l 33 182 z "},"®":{"ha":1187,"x_min":0,"x_max":1109,"o":"m 0 591 q 162 1021 0 843 q 555 1199 326 1199 q 946 1021 785 1199 q 1109 591 1109 843 q 946 162 1109 340 q 555 -16 785 -16 q 162 162 326 -16 q 0 591 0 340 m 71 591 q 211 214 71 372 q 555 62 355 62 q 897 214 754 62 q 1038 591 1038 372 q 897 968 1038 811 q 555 1122 754 1122 q 211 968 355 1122 q 71 591 71 811 m 614 909 q 791 751 791 909 q 677 593 791 633 l 791 404 q 861 342 815 359 l 861 298 l 744 298 l 594 572 l 475 572 l 475 393 q 517 342 475 355 l 517 298 l 342 298 l 342 342 q 391 410 391 354 l 391 806 q 382 854 391 840 q 342 873 374 864 l 342 909 l 614 909 m 550 621 q 695 747 695 621 q 550 858 695 858 l 475 858 l 475 621 l 550 621 z "},"¯":{"ha":513,"x_min":0,"x_max":435,"o":"m 435 788 l 435 695 l 0 695 l 0 788 l 435 788 z "},"°":{"ha":393,"x_min":0,"x_max":314,"o":"m 0 867 q 47 984 0 935 q 158 1033 93 1033 q 267 984 221 1033 q 314 867 314 935 q 267 752 314 799 q 158 703 221 703 q 47 752 93 703 q 0 867 0 799 m 64 867 q 90 800 64 831 q 158 768 118 768 q 223 798 195 768 q 251 867 251 828 q 227 932 251 904 q 158 966 199 966 q 87 931 113 966 q 64 867 64 903 z "},"±":{"ha":852,"x_min":0,"x_max":774,"o":"m 351 251 l 351 477 l 0 477 l 0 552 l 351 552 l 351 845 l 422 845 l 422 552 l 774 552 l 774 477 l 422 477 l 422 251 l 351 251 m 0 145 l 774 145 l 774 68 l 0 68 l 0 145 z "},"²":{"ha":548,"x_min":0,"x_max":471,"o":"m 428 288 l 0 288 l 0 338 q 325 895 325 734 q 294 989 325 954 q 218 1020 264 1020 q 67 920 142 1020 l 29 945 q 254 1099 115 1099 q 385 1054 334 1099 q 439 925 439 1006 q 107 393 439 761 l 107 392 l 298 392 q 427 471 397 392 l 471 471 l 428 288 z "},"³":{"ha":513,"x_min":0,"x_max":435,"o":"m 18 941 q 248 1103 100 1103 q 358 1059 317 1103 q 393 966 393 1021 q 275 784 393 862 l 275 785 l 281 785 q 387 744 345 785 q 435 611 435 696 q 319 386 435 471 q 28 283 197 290 l 0 283 l 0 328 q 248 425 154 334 q 328 597 328 503 q 298 682 328 647 q 216 715 267 715 q 129 688 174 715 l 107 726 q 300 951 300 852 q 215 1033 300 1033 q 56 916 136 1033 l 18 941 z "},"´":{"ha":366,"x_min":0,"x_max":287,"o":"m 163 937 q 227 971 190 971 q 287 907 287 971 q 262 853 287 876 q 214 819 248 840 l 23 694 l 0 725 l 163 937 z "},"µ":{"ha":712,"x_min":0,"x_max":634,"o":"m 532 215 q 589 103 532 103 q 621 112 605 103 l 634 89 q 531 30 588 30 q 425 178 425 30 l 425 170 q 263 28 368 28 q 110 121 148 28 q 120 26 110 79 q 157 -143 157 -143 q 76 -273 164 -273 q 0 -172 0 -273 q 5 -111 0 -142 q 24 -16 9 -80 q 43 110 34 30 q 49 265 49 196 l 49 674 l 168 674 l 168 330 q 284 130 168 130 q 317 143 292 130 q 413 408 413 209 l 413 674 l 532 674 l 532 215 z "},"¶":{"ha":581,"x_min":0,"x_max":502,"o":"m 185 703 q 71 729 118 702 q 0 857 0 768 q 172 1008 0 1008 l 502 1008 l 502 958 l 444 958 l 444 6 l 372 6 l 372 958 l 256 958 l 256 6 l 185 6 l 185 703 z "},"·":{"ha":252,"x_min":0,"x_max":173,"o":"m 0 464 q 26 527 0 503 q 87 555 51 555 q 146 527 123 555 q 173 464 173 503 q 146 401 173 427 q 87 373 123 373 q 26 401 51 373 q 0 464 0 427 z "},"¸":{"ha":357,"x_min":66,"x_max":331,"o":"m 87 2 l 130 2 l 121 -39 l 121 -43 q 204 -28 159 -28 q 292 -44 256 -28 q 331 -90 331 -60 q 276 -170 331 -137 q 130 -215 201 -215 q 66 -193 66 -215 q 105 -174 66 -174 q 146 -187 140 -174 q 157 -191 149 -191 q 203 -164 176 -191 q 232 -108 232 -136 q 155 -64 232 -64 q 107 -73 125 -64 l 69 -71 l 87 2 z "},"¹":{"ha":382,"x_min":0,"x_max":304,"o":"m 304 288 l 77 288 l 77 334 q 140 422 140 335 l 140 943 l 138 943 q 0 821 82 875 l 0 878 q 179 1090 112 952 l 239 1090 l 239 422 q 304 334 239 340 l 304 288 z "},"º":{"ha":495,"x_min":0,"x_max":416,"o":"m 12 562 l 404 562 l 404 517 l 12 517 l 12 562 m 208 1063 q 374 979 316 1063 q 416 833 416 913 q 330 644 416 708 q 208 602 272 602 q 85 644 144 602 q 0 833 0 708 q 45 979 0 913 q 208 1063 101 1063 m 208 1021 q 98 832 98 1021 l 98 827 q 208 644 98 644 q 318 832 318 644 q 286 988 318 947 q 208 1021 260 1021 z "},"»":{"ha":674,"x_min":121,"x_max":564,"o":"m 235 98 l 393 307 l 242 516 l 290 544 l 564 307 l 286 66 l 235 96 l 235 98 m 124 165 l 214 307 l 121 452 l 172 479 l 337 307 l 164 140 l 124 163 l 124 165 z "},"¼":{"ha":1048,"x_min":0,"x_max":969,"o":"m 304 404 l 77 404 l 77 450 q 140 545 140 454 l 140 1087 l 138 1087 q 0 960 82 1015 l 0 1019 q 179 1238 112 1095 l 239 1238 l 239 545 q 304 450 239 456 l 304 404 m 182 -259 l 718 1240 l 787 1240 l 249 -259 l 182 -259 m 864 576 l 864 75 l 871 75 q 932 153 909 75 l 969 143 l 930 -17 l 864 -17 l 864 -259 l 764 -259 l 764 -17 l 484 -17 l 484 39 l 817 576 l 864 576 m 764 406 l 762 406 l 565 85 l 565 75 l 764 75 l 764 406 z "},"½":{"ha":1137,"x_min":0,"x_max":1059,"o":"m 304 404 l 77 404 l 77 450 q 140 545 140 454 l 140 1087 l 138 1087 q 0 960 82 1015 l 0 1019 q 179 1238 112 1095 l 239 1238 l 239 545 q 304 450 239 456 l 304 404 m 182 -259 l 718 1240 l 787 1240 l 249 -259 l 182 -259 m 1016 -259 l 588 -259 l 588 -209 q 913 372 913 205 q 882 471 913 435 q 807 504 852 504 q 656 399 729 504 l 618 424 q 843 585 703 585 q 972 539 921 585 q 1027 404 1027 488 q 694 -150 1027 233 l 694 -151 l 885 -151 q 1015 -68 987 -151 l 1059 -68 l 1016 -259 z "},"¾":{"ha":1057,"x_min":0,"x_max":979,"o":"m 18 1083 q 248 1253 100 1253 q 358 1208 317 1253 q 393 1111 393 1168 q 275 922 393 1002 l 275 923 l 281 923 q 387 878 345 923 q 435 742 435 829 q 264 469 435 572 q 6 399 150 399 l 0 399 l 0 446 q 248 547 154 450 q 328 726 328 628 q 298 814 328 779 q 216 849 267 849 q 129 821 174 849 l 107 861 q 300 1096 300 992 q 215 1180 300 1180 q 56 1059 136 1180 l 18 1083 m 191 -259 l 728 1240 l 798 1240 l 258 -259 l 191 -259 m 874 576 l 874 75 l 880 75 q 941 153 919 75 l 979 143 l 939 -17 l 874 -17 l 874 -259 l 773 -259 l 773 -17 l 492 -17 l 492 39 l 825 576 l 874 576 m 773 406 l 772 406 l 574 85 l 574 75 l 773 75 l 773 406 z "},"¿":{"ha":563,"x_min":0,"x_max":484,"o":"m 448 382 l 389 371 q 303 413 357 413 q 163 201 163 413 q 214 -60 163 70 q 300 -180 264 -180 q 323 -157 317 -180 q 391 -106 333 -106 q 454 -179 454 -106 q 348 -259 454 -259 q 94 -62 224 -259 q 0 285 0 83 q 64 474 0 403 q 217 545 126 545 q 363 478 296 545 l 369 478 l 354 677 l 420 677 l 448 382 m 302 861 q 329 928 302 901 q 393 956 356 956 q 456 928 431 956 q 484 861 484 901 q 456 795 484 824 q 393 766 431 766 q 329 795 356 766 q 302 861 302 824 z "},"À":{"ha":1158,"x_min":0,"x_max":1080,"o":"m 968 155 q 1080 52 1014 54 l 1080 -3 l 784 -3 l 784 52 q 829 68 819 58 q 835 103 835 77 q 823 143 835 113 l 766 269 l 254 269 l 195 149 q 180 102 180 113 q 237 52 180 62 l 237 -3 l 0 -3 l 0 52 q 117 151 74 55 l 451 840 q 463 872 463 865 q 428 890 463 890 l 428 945 q 532 1006 492 957 l 567 1006 l 968 155 m 523 797 l 511 797 l 286 331 l 741 331 l 523 797 m 347 1261 q 360 1291 349 1278 q 366 1297 363 1295 q 375 1305 370 1302 q 408 1317 387 1314 q 450 1302 432 1317 q 471 1261 467 1287 q 480 1223 474 1240 q 509 1185 486 1206 q 608 1126 532 1164 l 607 1080 q 429 1132 504 1088 q 387 1163 399 1152 q 366 1187 376 1174 q 352 1215 357 1200 l 347 1230 l 347 1235 q 346 1254 346 1244 l 347 1261 z "},"Á":{"ha":1158,"x_min":0,"x_max":1080,"o":"m 968 155 q 1080 52 1014 54 l 1080 -3 l 784 -3 l 784 52 q 829 68 819 58 q 835 103 835 77 q 823 143 835 113 l 766 269 l 254 269 l 195 149 q 180 102 180 113 q 237 52 180 62 l 237 -3 l 0 -3 l 0 52 q 117 151 74 55 l 451 840 q 463 872 463 865 q 428 890 463 890 l 428 945 q 532 1006 492 957 l 567 1006 l 968 155 m 523 797 l 511 797 l 286 331 l 741 331 l 523 797 m 677 1261 l 678 1254 q 677 1235 678 1244 l 676 1230 l 671 1215 q 657 1187 667 1200 q 636 1163 648 1174 q 594 1132 625 1152 q 416 1080 519 1088 l 416 1126 q 515 1185 492 1164 q 544 1223 538 1206 q 553 1261 550 1240 q 574 1302 556 1287 q 616 1317 592 1317 q 649 1305 637 1314 q 657 1297 653 1302 q 663 1291 661 1295 q 677 1261 675 1278 z "},"Â":{"ha":1158,"x_min":0,"x_max":1080,"o":"m 968 157 q 1080 54 1014 55 l 1080 -3 l 784 -3 l 784 53 q 829 70 819 60 q 835 104 835 79 q 823 148 835 116 l 766 273 l 254 273 l 195 152 q 180 103 180 116 q 237 53 180 64 l 237 -3 l 0 -3 l 0 54 q 117 153 74 58 l 451 853 q 463 889 463 880 q 428 906 463 906 l 428 961 q 532 1024 492 975 l 567 1024 l 968 157 m 523 797 l 511 797 l 286 331 l 741 331 l 523 797 m 538 1162 q 524 1148 530 1155 q 361 1080 464 1106 l 361 1109 q 503 1272 465 1180 q 511 1290 506 1282 q 540 1305 523 1305 q 568 1290 556 1305 q 578 1265 576 1279 q 718 1105 616 1176 l 719 1076 q 553 1145 616 1103 q 538 1162 543 1154 z "},"Ã":{"ha":1158,"x_min":0,"x_max":1080,"o":"m 968 155 q 1080 52 1014 54 l 1080 -3 l 784 -3 l 784 52 q 829 68 819 58 q 835 103 835 77 q 823 143 835 113 l 766 269 l 254 269 l 195 149 q 180 102 180 113 q 237 52 180 62 l 237 -3 l 0 -3 l 0 52 q 117 151 74 55 l 451 840 q 463 872 463 865 q 428 890 463 890 l 428 945 q 532 1006 492 957 l 567 1006 l 968 155 m 523 797 l 511 797 l 286 331 l 741 331 l 523 797 m 723 1240 q 588 1085 684 1085 q 498 1107 555 1085 l 488 1111 q 427 1126 445 1126 q 361 1085 390 1126 l 323 1085 q 456 1230 370 1230 q 544 1210 484 1230 q 621 1188 604 1188 q 683 1240 669 1188 l 723 1240 z "},"Ä":{"ha":1158,"x_min":0,"x_max":1080,"o":"m 968 155 q 1080 52 1014 54 l 1080 -3 l 784 -3 l 784 52 q 829 68 819 58 q 835 103 835 77 q 823 143 835 113 l 766 269 l 254 269 l 195 149 q 180 102 180 113 q 237 52 180 62 l 237 -3 l 0 -3 l 0 52 q 117 151 74 55 l 451 840 q 463 872 463 865 q 428 890 463 890 l 428 945 q 532 1006 492 957 l 567 1006 l 968 155 m 523 797 l 511 797 l 286 331 l 741 331 l 523 797 m 315 1161 q 336 1216 315 1192 q 396 1245 358 1245 q 452 1221 431 1245 q 477 1161 477 1196 q 450 1097 477 1122 q 396 1076 423 1076 q 339 1101 365 1076 q 315 1161 315 1128 m 578 1161 q 600 1216 578 1192 q 661 1245 623 1245 q 718 1221 694 1245 q 742 1161 742 1196 q 714 1097 742 1122 q 661 1076 688 1076 q 603 1101 629 1076 q 578 1161 578 1128 z "},"Å":{"ha":1158,"x_min":0,"x_max":1080,"o":"m 968 155 q 1080 52 1014 54 l 1080 -3 l 784 -3 l 784 52 q 829 68 819 58 q 835 103 835 77 q 823 143 835 113 l 766 269 l 254 269 l 195 149 q 180 102 180 113 q 237 52 180 62 l 237 -3 l 0 -3 l 0 52 q 117 151 74 55 l 451 840 q 463 872 463 865 q 428 890 463 890 l 428 945 q 532 1006 492 957 l 567 1006 l 968 155 m 523 797 l 511 797 l 286 331 l 741 331 l 523 797 m 420 1165 q 458 1255 420 1221 q 532 1284 490 1284 q 606 1255 572 1284 q 642 1165 642 1221 q 611 1080 642 1114 q 532 1046 580 1046 q 453 1080 484 1046 q 420 1165 420 1114 m 465 1165 q 486 1113 465 1135 q 532 1093 506 1093 q 579 1114 559 1093 q 600 1165 600 1136 q 580 1215 600 1192 q 532 1237 560 1237 q 484 1216 505 1237 q 465 1165 465 1195 z "},"Æ":{"ha":1593,"x_min":0,"x_max":1515,"o":"m 375 293 l 257 146 q 210 78 210 87 q 269 51 210 56 l 269 -3 l 0 -3 l 0 52 q 216 208 93 51 l 688 798 q 741 892 741 863 q 690 928 741 928 l 677 928 l 677 994 l 1391 994 l 1391 800 l 1337 800 q 1257 901 1316 874 q 1116 921 1211 921 l 887 921 l 887 526 l 1036 526 q 1103 536 1081 526 q 1149 606 1137 551 l 1202 606 l 1202 386 l 1149 386 q 1109 456 1137 442 q 1036 465 1090 465 l 887 465 l 887 59 l 1190 59 q 1386 94 1326 59 q 1461 213 1438 127 l 1515 213 l 1500 -3 l 673 -3 l 673 51 q 759 161 759 59 l 759 293 l 375 293 m 759 353 l 759 774 l 755 774 l 425 357 l 425 353 l 759 353 z "},"Ç":{"ha":920,"x_min":0,"x_max":841,"o":"m 751 772 q 629 922 715 871 q 468 966 556 966 q 248 857 341 966 q 144 514 144 730 q 242 189 144 306 q 496 77 336 77 q 809 230 678 77 l 841 193 q 468 15 687 15 q 431 16 443 15 l 373 20 q 123 161 225 45 q 0 515 0 296 q 128 882 0 739 q 458 1028 258 1028 q 641 1002 541 1028 q 747 977 741 977 q 779 995 762 977 l 805 995 l 805 772 l 751 772 m 355 26 l 399 26 l 382 -38 l 382 -43 q 466 -26 420 -26 q 559 -39 518 -26 q 593 -93 593 -62 q 538 -181 593 -144 q 391 -229 463 -229 q 328 -206 328 -229 q 367 -184 328 -184 q 408 -199 402 -184 q 418 -203 410 -203 q 465 -174 438 -203 q 494 -113 494 -144 q 417 -66 494 -66 q 369 -76 387 -66 l 331 -73 l 355 26 z "},"È":{"ha":973,"x_min":0,"x_max":901,"o":"m 806 995 l 812 804 l 748 804 q 662 904 726 877 q 513 923 612 923 l 238 923 l 238 531 l 424 531 q 545 609 529 531 l 608 609 l 608 389 l 545 389 q 499 459 526 445 q 424 465 484 465 l 238 465 l 238 61 l 547 61 q 835 215 822 61 l 901 215 l 884 -5 l 0 -5 l 0 52 q 92 161 92 62 l 92 821 q 0 928 92 927 l 1 995 l 806 995 m 271 1248 q 284 1278 273 1265 q 290 1284 287 1282 q 299 1292 294 1289 q 332 1304 311 1301 q 374 1289 356 1304 q 395 1249 391 1274 q 404 1211 398 1227 q 433 1173 410 1194 q 532 1114 456 1152 l 531 1067 q 353 1119 428 1075 q 311 1150 323 1139 q 290 1174 300 1161 q 276 1202 281 1187 l 271 1217 l 271 1222 q 270 1241 270 1232 l 271 1248 z "},"É":{"ha":973,"x_min":0,"x_max":901,"o":"m 806 995 l 812 804 l 748 804 q 662 904 726 877 q 513 923 612 923 l 238 923 l 238 531 l 424 531 q 545 609 529 531 l 608 609 l 608 389 l 545 389 q 499 459 526 445 q 424 465 484 465 l 238 465 l 238 61 l 547 61 q 835 215 822 61 l 901 215 l 884 -5 l 0 -5 l 0 52 q 92 161 92 62 l 92 821 q 0 928 92 927 l 1 995 l 806 995 m 606 1248 l 608 1241 q 607 1222 608 1232 l 606 1217 l 601 1202 q 587 1174 596 1187 q 566 1150 577 1161 q 524 1119 555 1139 q 346 1067 449 1075 l 346 1114 q 445 1173 422 1152 q 473 1211 467 1194 q 482 1249 479 1227 q 504 1289 486 1274 q 546 1304 522 1304 q 578 1292 566 1301 q 587 1284 583 1289 q 593 1278 590 1282 q 606 1248 604 1265 z "},"Ê":{"ha":973,"x_min":0,"x_max":901,"o":"m 806 995 l 812 804 l 748 804 q 662 904 726 877 q 513 923 612 923 l 238 923 l 238 531 l 424 531 q 545 609 529 531 l 608 609 l 608 389 l 545 389 q 499 459 526 445 q 424 465 484 465 l 238 465 l 238 61 l 547 61 q 835 215 822 61 l 901 215 l 884 -5 l 0 -5 l 0 52 q 92 161 92 62 l 92 821 q 0 928 92 927 l 1 995 l 806 995 m 461 1168 q 448 1154 454 1161 q 284 1086 387 1112 l 285 1115 q 427 1278 388 1186 q 435 1296 429 1288 q 463 1312 446 1312 q 491 1296 479 1312 q 501 1272 499 1285 q 642 1112 539 1182 l 642 1082 q 477 1151 539 1109 q 461 1168 466 1160 z "},"Ë":{"ha":973,"x_min":0,"x_max":901,"o":"m 806 995 l 812 804 l 748 804 q 662 904 726 877 q 513 923 612 923 l 238 923 l 238 531 l 424 531 q 545 609 529 531 l 608 609 l 608 389 l 545 389 q 499 459 526 445 q 424 465 484 465 l 238 465 l 238 61 l 547 61 q 835 215 822 61 l 901 215 l 884 -5 l 0 -5 l 0 52 q 92 161 92 62 l 92 821 q 0 928 92 927 l 1 995 l 806 995 m 251 1161 q 272 1216 251 1192 q 332 1245 294 1245 q 389 1221 368 1245 q 414 1161 414 1196 q 386 1097 414 1122 q 332 1076 359 1076 q 275 1101 301 1076 q 251 1161 251 1128 m 514 1161 q 536 1216 514 1192 q 597 1245 559 1245 q 654 1221 631 1245 q 678 1161 678 1196 q 650 1097 678 1122 q 597 1076 624 1076 q 539 1101 565 1076 q 514 1161 514 1128 z "},"Ì":{"ha":418,"x_min":-3,"x_max":324,"o":"m 324 938 q 233 827 233 930 l 233 162 q 324 52 233 62 l 324 -5 l -3 -5 l -3 52 q 87 162 87 62 l 87 827 q -3 938 87 930 l -3 996 l 324 996 l 324 938 m 29 1248 q 43 1278 31 1265 q 49 1284 45 1282 q 58 1292 53 1289 q 90 1304 70 1301 q 132 1289 115 1304 q 154 1249 150 1274 q 162 1211 157 1227 q 191 1173 168 1194 q 290 1114 214 1152 l 290 1067 q 112 1119 186 1075 q 70 1150 81 1139 q 49 1174 58 1161 q 35 1202 39 1187 l 30 1217 l 29 1222 q 28 1241 28 1232 l 29 1248 z "},"Í":{"ha":429,"x_min":-3,"x_max":324,"o":"m 324 938 q 233 827 233 930 l 233 162 q 324 52 233 62 l 324 -5 l -3 -5 l -3 52 q 87 162 87 62 l 87 827 q -3 938 87 930 l -3 996 l 324 996 l 324 938 m 302 1248 l 303 1241 q 302 1222 303 1232 l 301 1217 l 296 1202 q 282 1174 292 1187 q 261 1150 273 1161 q 219 1119 250 1139 q 41 1067 144 1075 l 41 1114 q 140 1173 117 1152 q 169 1211 163 1194 q 178 1249 175 1227 q 199 1289 181 1274 q 241 1304 217 1304 q 274 1292 262 1301 q 282 1284 278 1289 q 288 1278 286 1282 q 302 1248 300 1265 z "},"Î":{"ha":517,"x_min":54,"x_max":413,"o":"m 381 938 q 290 827 290 930 l 290 162 q 381 52 290 62 l 381 -5 l 54 -5 l 54 52 q 144 162 144 62 l 144 827 q 54 938 144 930 l 54 996 l 381 996 l 381 938 m 232 1168 q 218 1154 224 1161 q 55 1086 158 1112 l 56 1115 q 197 1278 159 1186 q 205 1296 200 1288 q 234 1312 217 1312 q 262 1296 250 1312 q 272 1272 270 1285 q 412 1112 310 1182 l 413 1082 q 248 1151 310 1109 q 232 1168 237 1160 z "},"Ï":{"ha":509,"x_min":30,"x_max":458,"o":"m 30 1171 q 52 1227 30 1202 q 113 1255 74 1255 q 169 1232 147 1255 q 193 1171 193 1206 q 165 1107 193 1132 q 113 1086 140 1086 q 56 1111 81 1086 q 30 1171 30 1138 m 294 1171 q 316 1227 294 1202 q 376 1255 338 1255 q 433 1231 410 1255 q 458 1171 458 1206 q 430 1107 458 1132 q 376 1086 404 1086 q 319 1111 345 1086 q 294 1171 294 1138 m 394 932 q 303 821 303 924 l 303 156 q 394 45 303 56 l 394 -12 l 66 -12 l 66 45 q 157 156 157 56 l 157 821 q 66 932 157 924 l 66 990 l 394 990 l 394 932 z "},"Ð":{"ha":1124,"x_min":0,"x_max":1045,"o":"m 481 994 q 952 789 800 994 q 1045 486 1045 660 q 915 146 1045 290 q 482 -3 775 -3 l 45 -3 l 45 50 q 132 163 132 60 l 132 477 l 0 477 l 0 539 l 132 539 l 132 828 q 45 943 132 932 l 45 994 l 481 994 m 449 60 q 728 132 615 60 q 890 491 890 241 q 705 868 890 755 q 449 932 593 932 l 267 932 l 267 539 l 421 539 l 421 477 l 267 477 l 267 60 l 449 60 z "},"Ñ":{"ha":1030,"x_min":-3,"x_max":955,"o":"m 704 1246 q 569 1092 665 1092 q 479 1114 536 1092 l 469 1118 q 408 1133 426 1133 q 342 1092 371 1133 l 304 1092 q 437 1237 351 1237 q 525 1217 465 1237 q 602 1195 585 1195 q 664 1246 650 1195 l 704 1246 m -3 52 q 62 82 38 60 q 81 151 81 111 l 81 823 q -3 938 81 935 l -3 996 l 208 996 l 789 258 l 802 242 l 802 830 q 720 939 802 928 l 720 996 l 955 996 l 955 939 q 886 901 903 927 q 871 830 871 880 l 871 -5 l 819 -5 l 146 849 l 150 849 l 150 151 q 233 53 150 53 l 233 -5 l -3 -5 l -3 52 z "},"Ò":{"ha":1104,"x_min":-3,"x_max":1029,"o":"m 513 1009 q 897 843 749 1009 q 1029 502 1029 696 q 897 159 1029 306 q 513 -5 749 -5 q 130 159 276 -5 q -3 502 -3 306 q 130 843 -3 696 q 513 1009 276 1009 m 513 939 q 260 824 361 939 q 153 498 153 702 q 260 169 153 289 q 513 54 361 54 q 765 169 665 54 q 873 498 873 289 q 765 824 873 702 q 513 939 665 939 m 341 1248 q 355 1278 343 1265 q 361 1284 357 1282 q 370 1292 365 1289 q 402 1304 382 1301 q 444 1289 427 1304 q 466 1249 462 1274 q 474 1211 469 1227 q 503 1173 480 1194 q 602 1114 526 1152 l 602 1067 q 424 1119 498 1075 q 382 1150 393 1139 q 361 1174 370 1161 q 347 1202 351 1187 l 342 1217 l 341 1222 q 340 1241 340 1232 l 341 1248 z "},"Ó":{"ha":1104,"x_min":-3,"x_max":1029,"o":"m 513 1009 q 897 843 749 1009 q 1029 502 1029 696 q 897 159 1029 306 q 513 -5 749 -5 q 130 159 276 -5 q -3 502 -3 306 q 130 843 -3 696 q 513 1009 276 1009 m 513 939 q 260 824 361 939 q 153 498 153 702 q 260 169 153 289 q 513 54 361 54 q 765 169 665 54 q 873 498 873 289 q 765 824 873 702 q 513 939 665 939 m 677 1248 l 678 1241 q 677 1222 678 1232 l 676 1217 l 671 1202 q 657 1174 667 1187 q 636 1150 648 1161 q 594 1119 625 1139 q 416 1067 519 1075 l 416 1114 q 515 1173 492 1152 q 544 1211 538 1194 q 553 1249 550 1227 q 574 1289 556 1274 q 616 1304 592 1304 q 649 1292 637 1301 q 657 1284 653 1289 q 663 1278 661 1282 q 677 1248 675 1265 z "},"Ô":{"ha":1104,"x_min":-3,"x_max":1029,"o":"m 513 1009 q 897 843 749 1009 q 1029 502 1029 696 q 897 159 1029 306 q 513 -5 749 -5 q 130 159 276 -5 q -3 502 -3 306 q 130 843 -3 696 q 513 1009 276 1009 m 513 939 q 260 824 361 939 q 153 498 153 702 q 260 169 153 289 q 513 54 361 54 q 765 169 665 54 q 873 498 873 289 q 765 824 873 702 q 513 939 665 939 m 512 1168 q 498 1154 505 1161 q 335 1086 438 1112 l 336 1115 q 477 1278 439 1186 q 486 1296 480 1288 q 514 1312 497 1312 q 542 1296 530 1312 q 552 1272 550 1285 q 692 1112 590 1182 l 693 1082 q 528 1151 590 1109 q 512 1168 517 1160 z "},"Õ":{"ha":1104,"x_min":-3,"x_max":1029,"o":"m 723 1240 q 588 1085 684 1085 q 498 1107 555 1085 l 488 1111 q 427 1126 445 1126 q 361 1085 390 1126 l 323 1085 q 456 1230 370 1230 q 544 1210 484 1230 q 621 1188 604 1188 q 683 1240 669 1188 l 723 1240 m 513 1009 q 897 843 749 1009 q 1029 502 1029 696 q 897 159 1029 306 q 513 -5 749 -5 q 130 159 276 -5 q -3 502 -3 306 q 130 843 -3 696 q 513 1009 276 1009 m 513 939 q 260 824 361 939 q 153 498 153 702 q 260 169 153 289 q 513 54 361 54 q 765 169 665 54 q 873 498 873 289 q 765 824 873 702 q 513 939 665 939 z "},"Ö":{"ha":1104,"x_min":-3,"x_max":1029,"o":"m 315 1161 q 336 1216 315 1192 q 396 1245 358 1245 q 452 1221 431 1245 q 477 1161 477 1196 q 450 1097 477 1122 q 396 1076 423 1076 q 339 1101 365 1076 q 315 1161 315 1128 m 578 1161 q 600 1216 578 1192 q 661 1245 623 1245 q 718 1221 694 1245 q 742 1161 742 1196 q 714 1097 742 1122 q 661 1076 688 1076 q 603 1101 629 1076 q 578 1161 578 1128 m 513 1009 q 897 843 749 1009 q 1029 502 1029 696 q 897 159 1029 306 q 513 -5 749 -5 q 130 159 276 -5 q -3 502 -3 306 q 130 843 -3 696 q 513 1009 276 1009 m 513 939 q 260 824 361 939 q 153 498 153 702 q 260 169 153 289 q 513 54 361 54 q 765 169 665 54 q 873 498 873 289 q 765 824 873 702 q 513 939 665 939 z "},"×":{"ha":751,"x_min":0,"x_max":674,"o":"m 60 134 l 0 197 l 277 489 l 0 781 l 60 844 l 337 552 l 614 844 l 674 781 l 397 489 l 674 197 l 614 134 l 337 426 l 60 134 z "},"Ø":{"ha":1121,"x_min":0,"x_max":1028,"o":"m 515 1019 q 862 866 734 1019 l 978 976 l 1028 917 l 911 806 q 999 509 999 667 q 877 165 999 311 q 515 -3 739 -3 q 184 133 321 -3 l 48 5 l 0 61 l 136 187 q 35 509 35 328 q 159 852 35 701 q 515 1019 295 1019 m 517 956 q 239 785 334 956 q 176 505 176 675 q 218 267 176 380 l 784 798 q 517 956 688 956 m 255 199 q 515 59 353 59 q 793 229 696 59 q 857 505 857 338 q 821 722 857 634 l 255 199 z "},"Ù":{"ha":1099,"x_min":-3,"x_max":1036,"o":"m 309 996 l 309 939 q 223 827 223 929 l 223 439 q 389 104 223 183 q 551 73 453 73 q 736 122 652 73 q 862 283 829 176 q 880 472 880 344 l 880 839 q 793 937 880 930 l 793 996 l 1036 996 l 1036 937 q 951 839 951 930 l 951 406 q 527 -16 951 -16 q 181 106 286 -16 q 82 445 82 216 l 82 827 q -3 937 82 929 l -3 996 l 309 996 m 417 1242 q 431 1272 419 1259 q 437 1278 433 1276 q 446 1286 441 1283 q 478 1298 458 1295 q 520 1283 503 1298 q 542 1242 538 1268 q 550 1204 545 1221 q 579 1166 556 1187 q 678 1107 602 1145 l 677 1061 q 500 1113 574 1069 q 458 1144 469 1133 q 437 1168 446 1155 q 422 1196 427 1181 l 418 1211 l 417 1216 q 416 1235 416 1225 l 417 1242 z "},"Ú":{"ha":1099,"x_min":-3,"x_max":1036,"o":"m 309 996 l 309 939 q 223 827 223 929 l 223 439 q 389 104 223 183 q 551 73 453 73 q 736 122 652 73 q 862 283 829 176 q 880 472 880 344 l 880 839 q 793 937 880 930 l 793 996 l 1036 996 l 1036 937 q 951 839 951 930 l 951 406 q 527 -16 951 -16 q 181 106 286 -16 q 82 445 82 216 l 82 827 q -3 937 82 929 l -3 996 l 309 996 m 747 1260 l 748 1253 q 747 1234 748 1244 l 746 1229 l 741 1214 q 727 1186 736 1200 q 706 1162 718 1173 q 664 1131 695 1152 q 486 1079 589 1087 l 486 1126 q 585 1185 562 1164 q 614 1223 608 1206 q 623 1261 620 1240 q 644 1301 626 1286 q 686 1316 662 1316 q 719 1304 707 1313 q 727 1297 723 1301 q 733 1290 730 1294 q 747 1260 745 1278 z "},"Û":{"ha":1104,"x_min":-3,"x_max":1036,"o":"m 309 996 l 309 939 q 223 827 223 929 l 223 439 q 389 104 223 183 q 551 73 453 73 q 736 122 652 73 q 862 283 829 176 q 880 472 880 344 l 880 839 q 793 937 880 930 l 793 996 l 1036 996 l 1036 937 q 951 839 951 930 l 951 406 q 527 -16 951 -16 q 181 106 286 -16 q 82 445 82 216 l 82 827 q -3 937 82 929 l -3 996 l 309 996 m 531 1168 q 517 1154 524 1161 q 354 1086 457 1112 l 355 1115 q 496 1278 458 1186 q 505 1296 499 1288 q 533 1312 516 1312 q 561 1296 549 1312 q 571 1272 569 1285 q 711 1112 609 1182 l 712 1082 q 547 1151 609 1109 q 531 1168 536 1160 z "},"Ü":{"ha":1084,"x_min":-3,"x_max":1036,"o":"m 309 996 l 309 939 q 223 827 223 929 l 223 439 q 389 104 223 183 q 551 73 453 73 q 736 122 652 73 q 862 283 829 176 q 880 472 880 344 l 880 839 q 793 937 880 930 l 793 996 l 1036 996 l 1036 937 q 951 839 951 930 l 951 406 q 527 -16 951 -16 q 181 106 286 -16 q 82 445 82 216 l 82 827 q -3 937 82 929 l -3 996 l 309 996 m 315 1161 q 336 1216 315 1192 q 396 1245 358 1245 q 452 1221 431 1245 q 477 1161 477 1196 q 450 1097 477 1122 q 396 1076 423 1076 q 339 1101 365 1076 q 315 1161 315 1128 m 578 1161 q 600 1216 578 1192 q 661 1245 623 1245 q 718 1221 694 1245 q 742 1161 742 1196 q 714 1097 742 1122 q 661 1076 688 1076 q 603 1101 629 1076 q 578 1161 578 1128 z "},"Ý":{"ha":1010,"x_min":-3,"x_max":970,"o":"m 336 996 l 336 941 q 286 901 286 931 q 302 859 286 880 l 537 538 l 540 538 l 738 846 q 767 907 767 890 q 714 940 767 940 l 714 996 l 970 996 l 970 940 q 800 819 876 941 l 566 453 l 566 163 q 648 52 566 61 l 648 -5 l 347 -5 l 347 52 q 431 163 431 62 l 431 460 l 163 823 q -3 941 84 930 l -3 996 l 336 996 m 709 1248 l 710 1241 q 709 1222 710 1232 l 708 1217 l 703 1202 q 689 1174 699 1187 q 668 1150 680 1161 q 626 1119 657 1139 q 448 1067 551 1075 l 448 1114 q 547 1173 524 1152 q 576 1211 570 1194 q 585 1249 582 1227 q 606 1289 588 1274 q 648 1304 624 1304 q 681 1292 669 1301 q 689 1284 685 1289 q 695 1278 692 1282 q 709 1248 707 1265 z "},"Þ":{"ha":883,"x_min":0,"x_max":804,"o":"m 0 51 q 84 172 84 56 l 84 828 q 1 943 84 932 l 1 994 l 297 994 l 297 943 q 212 828 212 932 l 212 800 q 450 866 313 866 q 637 817 550 866 q 804 514 804 722 q 711 277 804 376 q 425 165 606 165 q 214 235 298 165 l 212 235 l 212 177 q 230 83 212 111 q 302 51 248 51 l 302 -3 l 0 -3 l 0 51 m 212 334 q 422 224 286 224 q 621 324 566 224 q 656 514 656 387 q 623 699 656 636 q 425 806 572 806 q 239 715 302 806 q 212 618 212 679 l 212 334 z "},"ß":{"ha":723,"x_min":0,"x_max":644,"o":"m 71 506 l 71 696 q 326 919 71 919 q 490 869 420 919 q 570 719 570 813 q 523 586 570 646 q 397 503 477 528 l 397 503 q 568 422 497 496 q 644 243 644 349 q 591 75 644 146 q 422 -14 528 -14 q 315 19 355 -14 q 281 90 281 49 q 306 142 281 123 q 355 161 327 161 q 396 148 376 161 q 417 112 417 132 q 404 77 417 91 q 368 37 368 37 q 411 24 374 24 q 472 56 454 24 q 501 229 501 101 q 461 390 501 338 q 253 462 404 460 l 253 506 q 411 574 371 512 q 442 719 442 616 q 326 871 442 871 q 195 724 195 871 l 195 151 q 203 75 195 92 q 260 39 217 47 l 260 -4 l 0 -4 l 0 39 q 62 76 50 47 q 71 151 71 92 l 71 378 q 0 463 71 448 l 0 506 l 71 506 z "},"à":{"ha":677,"x_min":0,"x_max":599,"o":"m 367 332 q 134 168 134 319 q 165 94 134 123 q 242 68 195 68 q 349 136 319 68 q 367 279 367 181 l 367 332 m 384 81 q 192 -3 300 -3 q 50 46 101 -3 q 0 165 0 91 q 367 389 0 368 q 346 522 367 481 q 252 574 322 574 q 174 526 193 574 q 157 479 159 481 q 111 458 143 458 q 56 507 56 458 q 110 587 56 552 q 265 630 170 630 q 461 535 411 630 q 491 358 491 477 l 491 163 q 555 68 491 68 q 585 79 565 68 l 599 56 q 492 -3 557 -3 q 384 81 409 -3 m 118 872 q 132 902 120 890 q 138 909 134 906 q 146 916 142 913 q 179 928 159 925 q 221 913 203 928 q 243 873 239 899 q 251 835 245 852 q 280 797 257 818 q 379 738 303 776 l 378 691 q 201 743 275 699 q 159 774 170 764 q 138 799 147 785 q 123 826 128 812 l 119 841 l 118 846 q 117 865 117 856 l 118 872 z "},"á":{"ha":677,"x_min":0,"x_max":599,"o":"m 367 332 q 134 168 134 319 q 165 94 134 123 q 242 68 195 68 q 349 136 319 68 q 367 279 367 181 l 367 332 m 384 81 q 192 -3 300 -3 q 50 46 101 -3 q 0 165 0 91 q 367 389 0 368 q 346 522 367 481 q 252 574 322 574 q 174 526 193 574 q 157 479 159 481 q 111 458 143 458 q 56 507 56 458 q 110 587 56 552 q 265 630 170 630 q 461 535 411 630 q 491 358 491 477 l 491 163 q 555 68 491 68 q 585 79 565 68 l 599 56 q 492 -3 557 -3 q 384 81 409 -3 m 429 860 l 430 853 q 429 834 430 844 l 428 829 l 423 814 q 409 786 418 800 q 388 762 399 773 q 346 731 377 751 q 168 679 271 687 l 168 726 q 267 785 244 764 q 296 823 290 806 q 304 861 302 840 q 326 901 308 886 q 368 916 344 916 q 401 904 389 913 q 409 897 405 901 q 415 890 412 894 q 429 860 427 878 z "},"â":{"ha":677,"x_min":0,"x_max":599,"o":"m 271 768 q 257 753 263 760 q 94 685 197 711 l 94 714 q 236 877 197 785 q 244 895 239 887 q 273 911 256 911 q 300 895 289 911 q 311 871 309 884 q 451 711 349 781 l 452 682 q 286 750 349 708 q 271 768 275 759 m 367 332 q 134 168 134 319 q 165 94 134 123 q 242 68 195 68 q 349 136 319 68 q 367 279 367 181 l 367 332 m 384 81 q 192 -3 300 -3 q 50 46 101 -3 q 0 165 0 91 q 367 389 0 368 q 346 522 367 481 q 252 574 322 574 q 174 526 193 574 q 157 479 159 481 q 111 458 143 458 q 56 507 56 458 q 110 587 56 552 q 265 630 170 630 q 461 535 411 630 q 491 358 491 477 l 491 163 q 555 68 491 68 q 585 79 565 68 l 599 56 q 492 -3 557 -3 q 384 81 409 -3 z "},"ã":{"ha":677,"x_min":0,"x_max":599,"o":"m 475 909 q 340 755 436 755 q 250 777 307 755 l 240 781 q 178 796 197 796 q 113 755 142 796 l 75 755 q 208 900 121 900 q 296 880 235 900 q 372 858 356 858 q 435 909 420 858 l 475 909 m 367 332 q 134 168 134 319 q 165 94 134 123 q 242 68 195 68 q 349 136 319 68 q 367 279 367 181 l 367 332 m 384 81 q 192 -3 300 -3 q 50 46 101 -3 q 0 165 0 91 q 367 389 0 368 q 346 522 367 481 q 252 574 322 574 q 174 526 193 574 q 157 479 159 481 q 111 458 143 458 q 56 507 56 458 q 110 587 56 552 q 265 630 170 630 q 461 535 411 630 q 491 358 491 477 l 491 163 q 555 68 491 68 q 585 79 565 68 l 599 56 q 492 -3 557 -3 q 384 81 409 -3 z "},"ä":{"ha":677,"x_min":0,"x_max":599,"o":"m 69 837 q 92 890 69 866 q 152 918 113 918 q 208 895 186 918 q 233 837 233 870 q 205 776 233 799 q 152 754 179 754 q 94 779 120 754 q 69 837 69 805 m 332 837 q 355 890 332 866 q 415 918 377 918 q 471 895 450 918 q 496 837 496 870 q 469 776 496 799 q 415 754 442 754 q 357 779 383 754 q 332 837 332 805 m 367 332 q 134 168 134 319 q 165 94 134 123 q 242 68 195 68 q 349 136 319 68 q 367 279 367 181 l 367 332 m 384 81 q 192 -3 300 -3 q 50 46 101 -3 q 0 165 0 91 q 367 389 0 368 q 346 522 367 481 q 252 574 322 574 q 174 526 193 574 q 157 479 159 481 q 111 458 143 458 q 56 507 56 458 q 110 587 56 552 q 265 630 170 630 q 461 535 411 630 q 491 358 491 477 l 491 163 q 555 68 491 68 q 585 79 565 68 l 599 56 q 492 -3 557 -3 q 384 81 409 -3 z "},"å":{"ha":677,"x_min":0,"x_max":599,"o":"m 367 332 q 134 168 134 319 q 165 94 134 123 q 242 68 195 68 q 349 136 319 68 q 367 279 367 181 l 367 332 m 384 81 q 192 -3 300 -3 q 50 46 101 -3 q 0 165 0 91 q 367 389 0 368 q 346 522 367 481 q 252 574 322 574 q 174 526 193 574 q 157 479 159 481 q 111 458 143 458 q 56 507 56 458 q 110 587 56 552 q 265 630 170 630 q 461 535 411 630 q 491 358 491 477 l 491 163 q 555 68 491 68 q 585 79 565 68 l 599 56 q 492 -3 557 -3 q 384 81 409 -3 m 146 796 q 184 886 146 852 q 259 915 217 915 q 333 886 298 915 q 369 796 369 852 q 338 711 369 745 q 259 677 307 677 q 180 711 211 677 q 146 796 146 745 m 191 796 q 212 744 191 766 q 259 724 233 724 q 306 745 286 724 q 326 796 326 767 q 307 846 326 823 q 259 868 287 868 q 211 847 232 868 q 191 796 191 826 z "},"æ":{"ha":970,"x_min":0,"x_max":892,"o":"m 490 359 l 490 272 q 658 59 498 59 q 856 158 760 59 l 892 126 q 635 -14 766 -14 q 415 75 490 -14 l 412 75 q 186 -14 321 -14 q 44 43 94 -14 q 0 161 0 90 q 364 392 0 369 l 364 431 q 252 585 364 585 q 174 534 193 585 q 112 463 163 463 q 57 522 57 463 q 119 607 57 573 q 267 642 177 642 q 443 573 381 642 l 444 573 q 629 642 511 642 q 813 555 744 642 q 876 359 877 476 l 490 359 m 364 333 q 135 164 135 319 q 226 59 135 69 q 328 99 292 50 q 364 243 364 146 l 364 333 m 739 417 q 723 513 741 469 q 623 585 696 585 q 490 417 500 585 l 739 417 z "},"ç":{"ha":644,"x_min":0,"x_max":566,"o":"m 566 106 q 299 -24 454 -24 q 273 -23 281 -24 l 216 -12 q 0 288 0 43 q 90 526 0 432 q 312 623 176 623 q 462 587 405 623 q 516 501 516 553 q 454 442 516 442 q 387 509 389 442 q 316 566 381 566 q 199 507 243 566 q 142 288 142 434 q 220 94 142 153 q 338 55 271 55 q 534 138 459 55 l 566 106 m 210 -12 l 254 -12 l 237 -77 l 237 -81 q 321 -65 275 -65 q 414 -77 373 -65 q 448 -132 448 -100 q 393 -220 448 -183 q 246 -268 318 -268 q 183 -245 183 -268 q 222 -223 183 -223 q 263 -237 257 -223 q 273 -241 265 -241 q 320 -213 293 -241 q 349 -152 349 -182 q 272 -104 349 -104 q 224 -115 242 -104 l 186 -112 l 210 -12 z "},"è":{"ha":625,"x_min":0,"x_max":548,"o":"m 548 129 q 293 -6 434 -6 q 106 50 186 -6 q 0 289 0 127 q 83 534 0 439 q 288 627 162 627 q 472 543 405 627 q 530 370 530 469 l 530 353 l 144 353 q 142 292 142 336 q 315 64 142 64 q 514 161 418 64 l 548 129 m 395 421 q 281 572 395 572 q 146 410 153 572 l 395 410 l 395 421 m 130 860 q 144 890 132 878 q 150 897 146 894 q 159 904 154 901 q 191 916 171 913 q 233 901 216 916 q 255 861 251 886 q 263 823 258 840 q 292 785 269 806 q 391 726 315 764 l 391 679 q 213 731 288 687 q 171 762 182 751 q 150 786 159 773 q 136 814 140 800 l 131 829 l 130 834 q 130 853 130 844 l 130 860 z "},"é":{"ha":625,"x_min":0,"x_max":548,"o":"m 548 129 q 293 -6 434 -6 q 106 50 186 -6 q 0 289 0 127 q 83 534 0 439 q 288 627 162 627 q 472 543 405 627 q 530 370 530 469 l 530 353 l 144 353 q 142 292 142 336 q 315 64 142 64 q 514 161 418 64 l 548 129 m 395 421 q 281 572 395 572 q 146 410 153 572 l 395 410 l 395 421 m 429 860 l 430 853 q 429 834 430 844 l 428 829 l 423 814 q 409 786 418 800 q 388 762 399 773 q 346 731 377 751 q 168 679 271 687 l 168 726 q 267 785 244 764 q 296 823 290 806 q 304 861 302 840 q 326 901 308 886 q 368 916 344 916 q 401 904 389 913 q 409 897 405 901 q 415 890 412 894 q 429 860 427 878 z "},"ê":{"ha":625,"x_min":0,"x_max":548,"o":"m 548 129 q 293 -6 434 -6 q 106 50 186 -6 q 0 289 0 127 q 83 534 0 439 q 288 627 162 627 q 472 543 405 627 q 530 370 530 469 l 530 353 l 144 353 q 142 292 142 336 q 315 64 142 64 q 514 161 418 64 l 548 129 m 395 421 q 281 572 395 572 q 146 410 153 572 l 395 410 l 395 421 m 271 768 q 257 753 263 760 q 94 685 197 711 l 94 714 q 236 877 197 785 q 244 895 239 887 q 273 911 256 911 q 300 895 289 911 q 311 871 309 884 q 451 711 349 781 l 452 682 q 286 750 349 708 q 271 768 275 759 z "},"ë":{"ha":625,"x_min":0,"x_max":548,"o":"m 548 129 q 293 -6 434 -6 q 106 50 186 -6 q 0 289 0 127 q 83 534 0 439 q 288 627 162 627 q 472 543 405 627 q 530 370 530 469 l 530 353 l 144 353 q 142 292 142 336 q 315 64 142 64 q 514 161 418 64 l 548 129 m 395 421 q 281 572 395 572 q 146 410 153 572 l 395 410 l 395 421 m 100 837 q 123 890 100 866 q 183 918 144 918 q 239 895 217 918 q 264 837 264 870 q 237 776 264 799 q 183 754 210 754 q 125 779 151 754 q 100 837 100 805 m 363 837 q 387 890 363 866 q 446 918 408 918 q 503 895 481 918 q 528 837 528 870 q 500 776 528 799 q 446 754 473 754 q 389 779 414 754 q 363 837 363 805 z "},"ì":{"ha":416,"x_min":21,"x_max":336,"o":"m 264 627 l 264 164 q 336 51 264 55 l 336 -3 l 66 -3 l 66 50 q 138 164 138 58 l 138 458 q 128 536 138 515 q 66 574 115 564 l 66 627 l 264 627 m 22 853 q 35 883 24 871 q 41 890 39 887 q 50 897 46 895 q 83 909 62 906 q 125 895 107 909 q 146 854 143 880 q 155 816 149 833 q 184 778 161 799 q 283 719 207 757 l 283 672 q 105 724 179 680 q 62 755 74 745 q 42 780 51 766 q 28 807 33 793 l 23 822 l 22 827 q 21 846 21 837 l 22 853 z "},"í":{"ha":318,"x_min":9,"x_max":280,"o":"m 206 627 l 206 164 q 280 51 206 55 l 280 -3 l 9 -3 l 9 50 q 81 164 81 58 l 81 458 q 71 536 81 515 q 9 574 58 564 l 9 627 l 206 627 m 269 854 l 271 847 q 270 828 271 838 l 269 823 l 264 808 q 250 780 259 793 q 229 756 241 767 q 187 725 218 745 q 9 673 113 681 l 9 720 q 108 779 85 758 q 137 817 131 800 q 145 854 142 833 q 166 895 149 880 q 209 910 184 910 q 241 898 229 907 q 250 890 245 895 q 256 884 253 888 q 269 854 267 871 z "},"î":{"ha":517,"x_min":43,"x_max":401,"o":"m 302 627 l 302 164 q 374 51 302 55 l 374 -3 l 104 -3 l 104 50 q 174 164 174 58 l 174 458 q 166 536 174 515 q 104 574 151 564 l 104 627 l 302 627 m 220 768 q 206 753 212 760 q 43 685 146 711 l 43 714 q 185 877 146 785 q 193 895 188 887 q 222 911 205 911 q 250 895 238 911 q 260 871 258 884 q 400 711 298 781 l 401 682 q 235 750 298 708 q 220 768 224 759 z "},"ï":{"ha":407,"x_min":5,"x_max":381,"o":"m 275 627 l 275 164 q 349 51 275 55 l 349 -3 l 79 -3 l 79 50 q 150 164 150 58 l 150 458 q 140 536 150 515 q 79 574 128 564 l 79 627 l 275 627 m 5 831 q 27 884 5 860 q 87 912 48 912 q 143 888 121 912 q 169 831 169 864 q 141 770 169 793 q 87 748 115 748 q 30 773 56 748 q 5 831 5 799 m 217 831 q 240 884 217 860 q 300 912 262 912 q 356 888 335 912 q 381 831 381 864 q 353 770 381 793 q 300 748 327 748 q 242 773 268 748 q 217 831 217 799 z "},"ð":{"ha":699,"x_min":0,"x_max":620,"o":"m 160 722 l 296 787 q 198 911 236 869 l 228 942 l 278 897 q 298 875 290 885 l 355 817 l 497 886 l 513 842 l 385 780 q 620 313 620 581 q 503 52 620 141 q 311 -14 417 -14 q 121 52 207 -14 q 0 314 0 141 q 64 520 0 429 q 311 642 149 642 q 393 631 354 642 q 318 747 376 660 l 182 680 l 160 722 m 311 585 q 142 313 142 585 l 142 304 q 311 42 142 42 q 479 304 479 42 l 479 313 q 427 536 479 472 q 311 585 390 585 z "},"ñ":{"ha":732,"x_min":0,"x_max":654,"o":"m 526 903 q 391 748 488 748 q 302 770 358 748 l 292 774 q 230 789 248 789 q 164 748 193 789 l 127 748 q 259 893 173 893 q 347 873 287 893 q 424 851 408 851 q 486 903 472 851 l 526 903 m 0 50 q 73 165 73 60 l 73 493 q 1 574 73 558 l 1 627 l 198 627 l 197 547 q 404 640 286 640 l 411 640 q 561 564 523 638 q 581 432 581 524 l 581 165 q 654 51 581 55 l 654 -3 l 382 -3 l 382 50 q 456 165 456 60 l 456 437 q 363 564 456 564 q 198 458 267 564 l 198 165 q 270 50 198 58 l 270 -3 l 0 -3 l 0 50 z "},"ò":{"ha":699,"x_min":0,"x_max":620,"o":"m 311 627 q 610 397 550 627 q 620 304 620 356 q 610 229 620 272 q 456 35 574 92 q 311 1 387 1 q 167 35 233 1 q 10 229 46 92 q 0 304 0 272 q 10 397 0 356 q 311 627 72 627 m 311 573 q 193 524 233 573 q 142 313 142 465 q 164 156 142 209 q 311 55 200 55 q 479 313 479 55 q 428 524 479 465 q 311 573 390 573 m 163 860 q 176 890 165 878 q 182 897 179 894 q 191 904 186 901 q 224 916 203 913 q 266 901 248 916 q 288 861 283 886 q 296 823 290 840 q 325 785 302 806 q 424 726 348 764 l 423 679 q 245 731 320 687 q 203 762 215 751 q 182 786 192 773 q 168 814 173 800 l 163 829 l 163 834 q 162 853 162 844 l 163 860 z "},"ó":{"ha":699,"x_min":0,"x_max":620,"o":"m 311 627 q 610 397 550 627 q 620 304 620 356 q 610 229 620 272 q 456 35 574 92 q 311 1 387 1 q 167 35 233 1 q 10 229 46 92 q 0 304 0 272 q 10 397 0 356 q 311 627 72 627 m 311 573 q 193 524 233 573 q 142 313 142 465 q 164 156 142 209 q 311 55 200 55 q 479 313 479 55 q 428 524 479 465 q 311 573 390 573 m 473 860 l 474 853 q 473 834 474 844 l 472 829 l 467 814 q 453 786 463 800 q 432 762 444 773 q 390 731 421 751 q 212 679 315 687 l 212 726 q 311 785 288 764 q 340 823 334 806 q 349 861 346 840 q 370 901 352 886 q 412 916 388 916 q 445 904 433 913 q 453 897 449 901 q 459 890 456 894 q 473 860 471 878 z "},"ô":{"ha":699,"x_min":0,"x_max":620,"o":"m 311 627 q 610 397 550 627 q 620 304 620 356 q 610 229 620 272 q 456 35 574 92 q 311 1 387 1 q 167 35 233 1 q 10 229 46 92 q 0 304 0 272 q 10 397 0 356 q 311 627 72 627 m 311 573 q 193 524 233 573 q 142 313 142 465 q 164 156 142 209 q 311 55 200 55 q 479 313 479 55 q 428 524 479 465 q 311 573 390 573 m 315 768 q 302 753 308 760 q 138 685 241 711 l 139 714 q 281 877 242 785 q 289 895 283 887 q 317 911 300 911 q 345 895 334 911 q 355 871 353 884 q 496 711 393 781 l 496 682 q 331 750 393 708 q 315 768 320 759 z "},"õ":{"ha":699,"x_min":0,"x_max":620,"o":"m 311 627 q 610 397 550 627 q 620 304 620 356 q 610 229 620 272 q 456 35 574 92 q 311 1 387 1 q 167 35 233 1 q 10 229 46 92 q 0 304 0 272 q 10 397 0 356 q 311 627 72 627 m 311 573 q 193 524 233 573 q 142 313 142 465 q 164 156 142 209 q 311 55 200 55 q 479 313 479 55 q 428 524 479 465 q 311 573 390 573 m 494 897 q 359 742 456 742 q 270 764 326 742 l 260 768 q 198 783 216 783 q 132 742 161 783 l 95 742 q 227 887 141 887 q 315 867 255 887 q 392 845 376 845 q 454 897 440 845 l 494 897 z "},"ö":{"ha":699,"x_min":0,"x_max":620,"o":"m 311 627 q 610 397 550 627 q 620 304 620 356 q 610 229 620 272 q 456 35 574 92 q 311 1 387 1 q 167 35 233 1 q 10 229 46 92 q 0 304 0 272 q 10 397 0 356 q 311 627 72 627 m 311 573 q 193 524 233 573 q 142 313 142 465 q 164 156 142 209 q 311 55 200 55 q 479 313 479 55 q 428 524 479 465 q 311 573 390 573 m 100 837 q 123 890 100 866 q 183 918 144 918 q 239 895 217 918 q 264 837 264 870 q 237 776 264 799 q 183 754 210 754 q 125 779 151 754 q 100 837 100 805 m 363 837 q 387 890 363 866 q 446 918 408 918 q 503 895 481 918 q 528 837 528 870 q 500 776 528 799 q 446 754 473 754 q 389 779 414 754 q 363 837 363 805 z "},"÷":{"ha":852,"x_min":0,"x_max":774,"o":"m 0 541 l 774 541 l 774 466 l 0 466 l 0 541 m 294 729 q 322 798 294 770 q 386 827 348 827 q 451 798 425 827 q 479 729 479 770 q 452 661 479 689 q 386 631 425 631 q 322 661 348 631 q 294 729 294 689 m 294 279 q 322 347 294 319 q 386 376 348 376 q 451 347 425 376 q 479 279 479 319 q 452 211 479 239 q 386 181 425 181 q 322 210 348 181 q 294 279 294 239 z "},"ø":{"ha":762,"x_min":0,"x_max":686,"o":"m 31 43 l 0 87 l 77 143 q 35 314 35 212 q 111 536 35 446 q 346 642 197 642 q 598 512 517 642 l 655 552 l 686 511 l 625 464 q 656 314 656 399 q 578 84 656 175 q 346 -14 490 -14 q 106 98 186 -14 l 31 43 m 503 444 q 346 585 474 585 q 177 313 177 585 q 181 217 177 250 l 503 444 m 195 160 q 346 42 232 42 q 449 74 416 42 q 513 313 513 135 q 511 383 513 339 l 195 160 z "},"ù":{"ha":729,"x_min":0,"x_max":650,"o":"m 578 167 q 589 91 578 112 q 650 52 601 61 l 650 -2 l 452 -2 l 452 79 l 452 79 q 250 -14 363 -14 q 71 168 71 -14 l 71 493 q 0 576 71 576 l 0 629 l 195 629 l 195 187 q 288 60 195 60 q 452 166 383 60 l 452 494 q 381 576 452 568 l 381 629 l 578 629 l 578 167 m 169 860 q 182 890 171 878 q 189 897 185 894 q 197 904 193 901 q 230 916 210 913 q 272 901 254 916 q 294 861 290 886 q 302 823 296 840 q 331 785 308 806 q 430 726 354 764 l 429 679 q 252 731 326 687 q 210 762 221 751 q 189 786 198 773 q 174 814 179 800 l 170 829 l 169 834 q 168 853 168 844 l 169 860 z "},"ú":{"ha":729,"x_min":0,"x_max":650,"o":"m 578 167 q 589 91 578 112 q 650 52 601 61 l 650 -2 l 452 -2 l 452 79 l 452 79 q 250 -14 363 -14 q 71 168 71 -14 l 71 493 q 0 576 71 576 l 0 629 l 195 629 l 195 187 q 288 60 195 60 q 452 166 383 60 l 452 494 q 381 576 452 568 l 381 629 l 578 629 l 578 167 m 479 860 l 481 853 q 480 834 481 844 l 479 829 l 474 814 q 460 786 469 800 q 439 762 450 773 q 397 731 428 751 q 219 679 322 687 l 219 726 q 318 785 295 764 q 347 823 340 806 q 355 861 353 840 q 377 901 359 886 q 419 916 395 916 q 452 904 439 913 q 460 897 456 901 q 466 890 463 894 q 479 860 477 878 z "},"û":{"ha":729,"x_min":0,"x_max":650,"o":"m 578 167 q 589 91 578 112 q 650 52 601 61 l 650 -2 l 452 -2 l 452 79 l 452 79 q 250 -14 363 -14 q 71 168 71 -14 l 71 493 q 0 576 71 576 l 0 629 l 195 629 l 195 187 q 288 60 195 60 q 452 166 383 60 l 452 494 q 381 576 452 568 l 381 629 l 578 629 l 578 167 m 321 768 q 308 753 314 760 q 144 685 248 711 l 145 714 q 287 877 248 785 q 295 895 290 887 q 323 911 307 911 q 351 895 340 911 q 361 871 359 884 q 502 711 399 781 l 503 682 q 337 750 399 708 q 321 768 326 759 z "},"ü":{"ha":729,"x_min":0,"x_max":650,"o":"m 578 167 q 589 91 578 112 q 650 52 601 61 l 650 -2 l 452 -2 l 452 79 l 452 79 q 250 -14 363 -14 q 71 168 71 -14 l 71 493 q 0 576 71 576 l 0 629 l 195 629 l 195 187 q 288 60 195 60 q 452 166 383 60 l 452 494 q 381 576 452 568 l 381 629 l 578 629 l 578 167 m 100 837 q 123 890 100 866 q 183 918 144 918 q 239 895 217 918 q 264 837 264 870 q 237 776 264 799 q 183 754 210 754 q 125 779 151 754 q 100 837 100 805 m 363 837 q 387 890 363 866 q 446 918 408 918 q 503 895 481 918 q 528 837 528 870 q 500 776 528 799 q 446 754 473 754 q 389 779 414 754 q 363 837 363 805 z "},"ý":{"ha":770,"x_min":0,"x_max":692,"o":"m 530 860 l 532 853 q 531 834 532 844 l 530 829 l 525 814 q 511 786 520 800 q 490 762 501 773 q 448 731 479 751 q 270 679 373 687 l 270 726 q 369 785 346 764 q 397 823 391 806 q 406 861 404 840 q 428 901 410 886 q 470 916 446 916 q 503 904 490 913 q 511 897 507 901 q 517 890 514 894 q 530 860 528 878 m 692 574 q 595 479 633 561 l 340 -79 q 252 -233 290 -189 q 121 -292 197 -292 q 5 -203 5 -292 q 68 -132 5 -132 q 121 -150 95 -132 q 171 -172 146 -172 q 257 -95 224 -172 l 304 7 l 116 479 q 0 573 75 563 l 0 627 l 304 627 l 304 573 l 284 573 q 240 536 240 573 q 256 487 240 520 l 379 178 l 381 178 l 509 460 q 529 528 529 517 q 466 573 507 572 l 466 627 l 692 627 l 692 574 z "},"þ":{"ha":758,"x_min":0,"x_max":680,"o":"m 0 -302 l 0 -248 q 71 -135 71 -241 l 71 749 q 60 829 71 810 q 0 863 46 856 l 0 917 l 195 917 l 195 572 l 196 572 q 377 638 259 638 q 573 566 492 638 q 680 311 680 470 q 573 56 680 151 q 377 -17 492 -17 q 196 50 259 -17 l 195 50 l 195 -134 q 277 -248 195 -248 l 277 -302 l 0 -302 m 195 220 q 365 39 195 39 q 537 311 537 39 q 366 583 537 583 q 232 515 281 583 q 195 408 195 463 l 195 220 z "},"ÿ":{"ha":770,"x_min":0,"x_max":692,"o":"m 168 837 q 191 890 168 866 q 251 918 212 918 q 307 895 286 918 q 332 837 332 870 q 304 776 332 799 q 251 754 278 754 q 194 779 220 754 q 168 837 168 805 m 432 837 q 454 890 432 866 q 515 918 477 918 q 571 895 549 918 q 596 837 596 870 q 568 776 596 799 q 515 754 542 754 q 457 779 483 754 q 432 837 432 805 m 692 574 q 595 479 633 561 l 340 -79 q 252 -233 290 -189 q 121 -292 197 -292 q 5 -203 5 -292 q 68 -132 5 -132 q 121 -150 95 -132 q 171 -172 146 -172 q 257 -95 224 -172 l 304 7 l 116 479 q 0 573 75 563 l 0 627 l 304 627 l 304 573 l 284 573 q 240 536 240 573 q 256 487 240 520 l 379 178 l 381 178 l 509 460 q 529 528 529 517 q 466 573 507 572 l 466 627 l 692 627 l 692 574 z "},"Ā":{"ha":1071,"x_min":-3,"x_max":1083,"o":"m 368 1167 l 749 1167 l 749 1093 l 368 1093 l 368 1167 m 972 155 q 1083 54 1017 56 l 1083 -5 l 781 -5 l 781 53 q 826 69 817 60 q 831 103 831 77 q 820 142 831 113 l 763 267 l 256 267 l 199 149 q 183 102 183 113 q 241 53 183 64 l 241 -5 l -3 -5 l -3 54 q 114 151 71 57 l 448 840 q 460 872 460 865 q 425 888 460 888 l 425 946 q 530 1008 490 958 l 570 1008 l 972 155 m 520 795 l 513 795 l 290 333 l 736 333 l 520 795 z "},"ā":{"ha":677,"x_min":0,"x_max":599,"o":"m 599 47 q 492 -14 557 -14 q 383 75 408 -14 l 385 75 q 192 -14 302 -14 q 50 37 101 -14 q 0 161 0 85 q 367 392 0 370 q 346 530 367 488 q 252 585 322 585 q 174 534 193 585 q 150 474 150 466 q 111 463 143 463 q 56 515 56 463 q 110 599 56 562 q 265 642 170 642 q 461 544 411 642 q 491 361 491 484 l 491 157 q 555 60 491 60 q 585 70 566 60 l 599 47 m 367 333 q 134 164 134 320 q 165 87 134 116 q 242 60 195 60 q 349 130 319 60 q 367 279 367 177 l 367 333 m 513 906 l 513 813 l 57 813 l 57 906 l 513 906 z "},"Ă":{"ha":1104,"x_min":-3,"x_max":1083,"o":"m 727 1280 q 659 1131 723 1184 q 535 1090 608 1090 q 410 1131 463 1090 q 342 1280 347 1184 l 397 1280 q 440 1204 405 1234 q 535 1171 479 1171 q 631 1204 592 1171 q 675 1280 666 1234 l 727 1280 m 972 155 q 1083 54 1017 56 l 1083 -5 l 781 -5 l 781 53 q 826 69 817 60 q 831 103 831 77 q 820 142 831 113 l 763 267 l 256 267 l 199 149 q 183 102 183 113 q 241 53 183 64 l 241 -5 l -3 -5 l -3 54 q 114 151 71 57 l 448 840 q 460 872 460 865 q 425 888 460 888 l 425 946 q 530 1008 490 958 l 570 1008 l 972 155 m 520 795 l 513 795 l 290 333 l 736 333 l 520 795 z "},"ă":{"ha":677,"x_min":0,"x_max":599,"o":"m 599 47 q 492 -14 557 -14 q 383 75 408 -14 l 385 75 q 192 -14 302 -14 q 50 37 101 -14 q 0 161 0 85 q 367 392 0 370 q 346 530 367 488 q 252 585 322 585 q 174 534 193 585 q 150 474 150 466 q 111 463 143 463 q 56 515 56 463 q 110 599 56 562 q 265 642 170 642 q 461 544 411 642 q 491 361 491 484 l 491 157 q 555 60 491 60 q 585 70 566 60 l 599 47 m 367 333 q 134 164 134 320 q 165 87 134 116 q 242 60 195 60 q 349 130 319 60 q 367 279 367 177 l 367 333 m 135 868 q 175 795 137 826 q 262 765 214 765 q 345 792 310 765 q 390 868 385 821 l 437 868 q 399 754 433 801 q 266 694 351 694 q 128 756 174 694 q 87 868 92 802 l 135 868 z "},"Ą":{"ha":1095,"x_min":-3,"x_max":1083,"o":"m 1010 -7 q 912 -47 949 -25 q 841 -147 841 -87 q 907 -205 841 -205 q 1004 -159 958 -205 l 1026 -189 q 867 -276 943 -276 q 787 -245 817 -276 q 756 -175 756 -218 q 785 -90 756 -128 q 911 -7 814 -49 l 1010 -7 m 972 155 q 1083 54 1017 56 l 1083 -5 l 781 -5 l 781 53 q 826 69 817 60 q 831 103 831 77 q 820 142 831 113 l 763 267 l 256 267 l 199 149 q 183 102 183 113 q 241 53 183 64 l 241 -5 l -3 -5 l -3 54 q 114 151 71 57 l 448 840 q 460 872 460 865 q 425 888 460 888 l 425 946 q 530 1008 490 958 l 570 1008 l 972 155 m 520 795 l 513 795 l 290 333 l 736 333 l 520 795 z "},"ą":{"ha":708,"x_min":0,"x_max":631,"o":"m 599 81 q 547 31 578 50 q 439 -93 436 -41 q 506 -146 444 -146 q 614 -105 559 -146 l 631 -131 q 464 -212 559 -212 q 381 -180 411 -212 q 353 -110 353 -151 q 464 22 353 -37 q 383 108 402 33 l 385 108 q 192 19 302 19 q 50 70 101 19 q 0 193 0 118 q 367 426 0 402 q 346 562 367 522 q 252 617 322 617 q 174 568 193 617 q 150 507 150 498 q 111 496 143 496 q 56 549 56 496 q 110 632 56 593 q 265 674 170 674 q 461 576 411 674 q 491 395 491 516 l 491 191 q 555 94 491 94 q 585 101 566 94 l 599 81 m 367 365 q 134 197 134 353 q 165 119 134 148 q 242 94 195 94 q 349 163 319 94 q 367 311 367 210 l 367 365 z "},"Ć":{"ha":956,"x_min":-3,"x_max":947,"o":"m 841 753 q 703 907 800 854 q 525 953 623 953 q 280 840 385 953 q 165 493 165 715 q 273 164 165 283 q 555 52 379 52 q 907 209 758 52 l 947 168 q 525 -16 772 -16 q 147 119 294 -16 q -3 494 -3 262 q 141 869 -3 722 q 513 1018 286 1018 q 730 986 614 1018 q 837 966 807 966 q 871 985 852 966 l 905 985 l 905 753 l 841 753 m 715 1261 l 716 1254 q 715 1235 716 1244 l 714 1230 l 709 1215 q 695 1187 705 1200 q 674 1163 686 1174 q 632 1132 663 1152 q 454 1080 557 1088 l 454 1126 q 553 1185 530 1164 q 582 1223 576 1206 q 591 1261 588 1240 q 612 1302 594 1287 q 654 1317 630 1317 q 687 1305 675 1314 q 695 1297 691 1302 q 701 1291 699 1295 q 715 1261 713 1278 z "},"ć":{"ha":644,"x_min":0,"x_max":566,"o":"m 566 122 q 303 -3 452 -3 q 94 74 180 -3 q 0 300 0 158 q 90 532 0 440 q 312 627 176 627 q 466 589 410 627 q 517 509 517 555 q 454 451 517 451 q 387 514 389 451 l 387 517 q 316 572 381 572 q 199 512 243 572 q 142 300 142 441 q 220 114 142 170 q 338 75 271 75 q 534 155 459 75 l 566 122 m 441 860 l 443 853 q 442 834 443 844 l 441 829 l 436 814 q 422 786 431 800 q 401 762 412 773 q 359 731 390 751 q 181 679 284 687 l 181 726 q 280 785 257 764 q 309 823 302 806 q 317 861 315 840 q 339 901 321 886 q 381 916 357 916 q 414 904 401 913 q 422 897 418 901 q 428 890 425 894 q 441 860 439 878 z "},"Ĉ":{"ha":956,"x_min":-3,"x_max":947,"o":"m 841 753 q 703 907 800 854 q 525 953 623 953 q 280 840 385 953 q 165 493 165 715 q 273 164 165 283 q 555 52 379 52 q 907 209 758 52 l 947 168 q 525 -16 772 -16 q 147 119 294 -16 q -3 494 -3 262 q 141 869 -3 722 q 513 1018 286 1018 q 730 986 614 1018 q 837 966 807 966 q 871 985 852 966 l 905 985 l 905 753 l 841 753 m 530 1168 q 517 1154 523 1161 q 353 1086 456 1112 l 354 1115 q 496 1278 457 1186 q 504 1296 498 1288 q 532 1312 515 1312 q 560 1296 549 1312 q 570 1272 568 1285 q 711 1112 608 1182 l 711 1082 q 546 1151 608 1109 q 530 1168 535 1160 z "},"ĉ":{"ha":644,"x_min":0,"x_max":566,"o":"m 566 122 q 303 -3 452 -3 q 94 74 180 -3 q 0 300 0 158 q 90 532 0 440 q 312 627 176 627 q 466 589 410 627 q 517 509 517 555 q 454 451 517 451 q 387 514 389 451 l 387 517 q 316 572 381 572 q 199 512 243 572 q 142 300 142 441 q 220 114 142 170 q 338 75 271 75 q 534 155 459 75 l 566 122 m 309 774 q 296 760 302 766 q 132 691 235 718 l 133 720 q 275 883 236 791 q 283 901 277 893 q 311 917 294 917 q 339 901 328 917 q 349 877 347 890 q 490 717 387 787 l 490 688 q 325 756 387 714 q 309 774 314 765 z "},"Ċ":{"ha":810,"x_min":75,"x_max":1026,"o":"m 920 753 q 782 907 878 854 q 604 953 701 953 q 359 840 463 953 q 243 493 243 715 q 352 164 243 283 q 633 52 458 52 q 986 209 836 52 l 1026 168 q 604 -16 851 -16 q 226 119 373 -16 q 75 494 75 262 q 220 869 75 722 q 591 1018 365 1018 q 809 986 693 1018 q 916 966 886 966 q 949 985 931 966 l 984 985 l 984 753 l 920 753 m 564 1114 q 533 1161 538 1131 q 544 1213 528 1188 q 589 1242 559 1236 q 644 1232 618 1248 q 673 1183 667 1213 q 663 1132 680 1158 q 618 1102 647 1109 q 564 1114 587 1097 z "},"ċ":{"ha":649,"x_min":73,"x_max":639,"o":"m 639 122 q 376 -3 524 -3 q 166 74 253 -3 q 73 300 73 158 q 162 532 73 440 q 385 627 248 627 q 538 589 483 627 q 590 509 590 555 q 527 451 590 451 q 459 514 462 451 l 459 517 q 389 572 454 572 q 271 512 315 572 q 215 300 215 441 q 293 114 215 170 q 411 75 343 75 q 606 155 532 75 l 639 122 m 357 724 q 327 771 332 741 q 338 823 321 798 q 382 852 353 846 q 437 842 412 858 q 467 793 461 823 q 457 742 473 768 q 412 712 441 719 q 357 724 381 707 z "},"Č":{"ha":951,"x_min":-3,"x_max":947,"o":"m 841 753 q 703 907 800 854 q 525 953 623 953 q 280 840 385 953 q 165 493 165 715 q 273 164 165 283 q 555 52 379 52 q 907 209 758 52 l 947 168 q 525 -16 772 -16 q 147 119 294 -16 q -3 494 -3 262 q 141 869 -3 722 q 513 1018 286 1018 q 730 986 614 1018 q 837 966 807 966 q 871 985 852 966 l 905 985 l 905 753 l 841 753 m 550 1225 q 566 1243 555 1234 q 731 1312 628 1285 l 730 1282 q 590 1122 628 1212 q 580 1098 588 1109 q 552 1082 568 1082 q 524 1098 535 1082 q 515 1116 518 1106 q 374 1279 477 1208 l 373 1308 q 536 1240 476 1282 q 550 1225 543 1233 z "},"č":{"ha":644,"x_min":0,"x_max":566,"o":"m 566 122 q 303 -3 452 -3 q 94 74 180 -3 q 0 300 0 158 q 90 532 0 440 q 312 627 176 627 q 466 589 410 627 q 517 509 517 555 q 454 451 517 451 q 387 514 389 451 l 387 517 q 316 572 381 572 q 199 512 243 572 q 142 300 142 441 q 220 114 142 170 q 338 75 271 75 q 534 155 459 75 l 566 122 m 315 825 q 330 842 319 833 q 496 911 393 884 l 495 882 q 355 722 393 811 q 345 697 353 708 q 317 682 333 682 q 288 697 300 682 q 280 715 283 705 q 138 878 241 807 l 138 907 q 301 839 241 881 q 315 825 307 832 z "},"Ď":{"ha":1083,"x_min":0,"x_max":1004,"o":"m 437 1017 q 911 806 758 1017 q 1004 497 1004 675 q 873 150 1004 297 q 439 -3 736 -3 l 0 -3 l 0 52 q 88 167 88 60 l 88 847 q 0 962 88 955 l 0 1017 l 437 1017 m 400 60 q 681 135 567 60 q 844 503 844 246 q 659 886 844 772 q 400 955 546 955 l 218 955 l 218 60 l 400 60 m 429 1225 q 445 1243 434 1234 q 610 1312 507 1285 l 610 1282 q 469 1122 507 1212 q 459 1098 467 1109 q 431 1082 448 1082 q 403 1098 414 1082 q 395 1116 397 1106 q 253 1279 356 1208 l 252 1308 q 416 1240 355 1282 q 429 1225 422 1233 z "},"ď":{"ha":897,"x_min":0,"x_max":888,"o":"m 633 134 q 706 52 633 58 l 706 -2 l 509 -2 l 509 52 l 503 52 q 321 -14 420 -14 q 106 57 195 -14 q 0 304 0 142 q 94 559 0 467 q 296 642 176 642 q 498 587 415 642 l 509 587 l 509 779 q 446 863 509 844 l 446 917 l 633 917 l 633 134 m 509 494 q 353 585 471 585 q 217 534 270 585 q 142 313 142 464 q 195 111 142 181 q 328 42 244 42 q 444 79 391 42 q 509 165 497 116 l 509 494 m 713 662 q 808 777 798 726 l 807 779 l 785 779 q 715 844 715 786 l 715 849 q 797 916 720 916 q 888 827 888 916 q 745 633 888 711 l 713 662 z "},"Đ":{"ha":1099,"x_min":0,"x_max":1020,"o":"m 468 992 q 928 787 781 992 q 1020 485 1020 659 q 892 146 1020 289 q 469 -3 757 -3 l 44 -3 l 44 50 q 130 162 130 60 l 130 476 l 0 476 l 0 538 l 130 538 l 130 827 q 44 941 130 930 l 44 992 l 468 992 m 437 60 q 710 132 602 60 q 870 490 870 241 q 688 866 870 753 q 437 930 578 930 l 260 930 l 260 538 l 412 538 l 412 476 l 260 476 l 260 60 l 437 60 z "},"đ":{"ha":843,"x_min":0,"x_max":749,"o":"m 749 771 l 749 714 l 236 714 l 236 771 l 749 771 m 633 134 q 706 52 633 58 l 706 -2 l 509 -2 l 509 52 l 503 52 q 321 -14 420 -14 q 106 57 195 -14 q 0 304 0 142 q 94 559 0 467 q 296 642 176 642 q 498 587 415 642 l 509 587 l 509 779 q 446 863 509 844 l 446 917 l 633 917 l 633 134 m 509 494 q 353 585 471 585 q 217 534 270 585 q 142 313 142 464 q 195 111 142 181 q 328 42 244 42 q 444 79 391 42 q 509 165 497 116 l 509 494 z "},"Ē":{"ha":917,"x_min":0,"x_max":901,"o":"m 213 1167 l 616 1167 l 616 1093 l 213 1093 l 213 1167 m 806 995 l 812 804 l 748 804 q 662 904 726 877 q 513 923 612 923 l 238 923 l 238 531 l 424 531 q 545 609 529 531 l 608 609 l 608 389 l 545 389 q 499 459 526 445 q 424 465 484 465 l 238 465 l 238 61 l 547 61 q 835 215 822 61 l 901 215 l 884 -5 l 0 -5 l 0 52 q 92 161 92 62 l 92 821 q 0 928 92 927 l 1 995 l 806 995 z "},"ē":{"ha":625,"x_min":0,"x_max":548,"o":"m 534 923 l 534 830 l 79 830 l 79 923 l 534 923 m 548 129 q 293 -6 434 -6 q 106 50 186 -6 q 0 289 0 127 q 83 534 0 439 q 288 627 162 627 q 472 543 405 627 q 530 370 530 469 l 530 353 l 144 353 q 142 292 142 336 q 315 64 142 64 q 514 161 418 64 l 548 129 m 395 421 q 281 572 395 572 q 146 410 153 572 l 395 410 l 395 421 z "},"Ĕ":{"ha":822,"x_min":50,"x_max":951,"o":"m 856 995 l 862 804 l 798 804 q 712 904 776 877 q 564 923 663 923 l 288 923 l 288 531 l 474 531 q 595 609 579 531 l 658 609 l 658 389 l 595 389 q 549 459 576 445 q 474 465 534 465 l 288 465 l 288 61 l 597 61 q 885 215 872 61 l 951 215 l 935 -5 l 50 -5 l 50 52 q 142 161 142 62 l 142 821 q 50 928 142 927 l 52 995 l 856 995 m 366 1244 q 406 1172 368 1202 q 494 1141 446 1141 q 576 1168 541 1141 q 621 1244 616 1198 l 669 1244 q 630 1131 665 1177 q 497 1070 582 1070 q 359 1133 406 1070 q 318 1244 323 1178 l 366 1244 z "},"ĕ":{"ha":706,"x_min":87,"x_max":635,"o":"m 635 129 q 380 -6 521 -6 q 193 50 273 -6 q 87 289 87 127 q 170 534 87 439 q 375 627 249 627 q 559 543 492 627 q 617 370 617 469 l 617 353 l 231 353 q 229 292 229 336 q 401 64 229 64 q 601 161 505 64 l 635 129 m 482 420 q 368 561 482 561 q 233 410 240 561 l 482 410 l 482 420 m 248 874 q 288 802 250 832 q 375 771 327 771 q 458 798 422 771 q 503 874 498 827 l 550 874 q 511 760 546 807 q 378 700 463 700 q 241 762 287 700 q 199 874 204 808 l 248 874 z "},"Ė":{"ha":930,"x_min":0,"x_max":901,"o":"m 351 1168 q 378 1229 351 1203 q 434 1255 402 1255 q 490 1232 463 1255 q 515 1168 515 1209 q 492 1109 515 1135 q 434 1084 468 1084 q 375 1114 397 1084 q 351 1168 351 1139 m 806 995 l 812 804 l 748 804 q 662 904 726 877 q 513 923 612 923 l 238 923 l 238 531 l 424 531 q 545 609 529 531 l 608 609 l 608 389 l 545 389 q 499 459 526 445 q 424 465 484 465 l 238 465 l 238 61 l 547 61 q 835 215 822 61 l 901 215 l 884 -5 l 0 -5 l 0 52 q 92 161 92 62 l 92 821 q 0 928 92 927 l 1 995 l 806 995 z "},"ė":{"ha":625,"x_min":0,"x_max":548,"o":"m 187 823 q 214 881 187 857 q 270 906 239 906 q 325 884 298 906 q 351 823 351 861 q 328 766 351 790 q 270 742 303 742 q 212 770 233 742 q 187 823 187 794 m 548 129 q 293 -6 434 -6 q 106 50 186 -6 q 0 289 0 127 q 83 534 0 439 q 288 627 162 627 q 472 543 405 627 q 530 370 530 469 l 530 353 l 144 353 q 142 292 142 336 q 315 64 142 64 q 514 161 418 64 l 548 129 m 395 421 q 281 572 395 572 q 146 410 153 572 l 395 410 l 395 421 z "},"Ę":{"ha":917,"x_min":0,"x_max":895,"o":"m 719 -3 q 669 -28 690 -15 q 589 -134 589 -73 q 662 -194 589 -194 q 768 -146 718 -194 l 792 -176 q 616 -269 700 -269 q 529 -237 564 -269 q 496 -163 496 -208 q 527 -75 496 -113 q 627 -3 553 -38 l 0 -3 l 0 50 q 92 162 92 61 l 92 823 q 0 932 92 931 l 1 994 l 799 995 l 805 808 l 747 808 q 660 908 725 880 q 510 927 610 927 l 231 927 l 231 530 l 420 530 q 545 608 528 530 l 601 608 l 601 391 l 545 391 q 498 461 526 447 q 420 467 481 467 l 231 467 l 231 59 l 543 59 q 835 214 822 59 l 895 214 l 878 -3 l 719 -3 z "},"ę":{"ha":625,"x_min":0,"x_max":548,"o":"m 548 160 q 432 58 511 111 l 383 11 q 329 -93 325 -41 q 394 -146 333 -146 q 501 -105 448 -146 l 519 -131 q 353 -212 448 -212 q 268 -180 299 -212 q 240 -110 240 -151 q 331 24 240 -31 l 333 22 q 293 19 315 19 q 106 78 186 19 q 0 325 0 158 q 83 578 0 481 q 288 674 162 674 q 477 583 410 674 q 530 393 534 502 l 144 393 q 142 328 142 374 q 315 91 142 91 q 514 192 418 91 l 548 160 m 395 449 q 362 578 398 532 q 281 617 332 617 q 146 449 153 617 l 395 449 z "},"Ě":{"ha":937,"x_min":0,"x_max":901,"o":"m 806 995 l 812 804 l 748 804 q 662 904 726 877 q 513 923 612 923 l 238 923 l 238 531 l 424 531 q 545 609 529 531 l 608 609 l 608 389 l 545 389 q 499 459 526 445 q 424 465 484 465 l 238 465 l 238 61 l 547 61 q 835 215 822 61 l 901 215 l 884 -5 l 0 -5 l 0 52 q 92 161 92 62 l 92 821 q 0 928 92 927 l 1 995 l 806 995 m 435 1225 q 451 1243 440 1234 q 616 1312 513 1285 l 616 1282 q 475 1122 513 1212 q 465 1098 473 1109 q 437 1082 454 1082 q 409 1098 420 1082 q 401 1116 404 1106 q 259 1279 362 1208 l 258 1308 q 422 1240 361 1282 q 435 1225 428 1233 z "},"ě":{"ha":625,"x_min":0,"x_max":548,"o":"m 548 129 q 293 -6 434 -6 q 106 50 186 -6 q 0 289 0 127 q 83 534 0 439 q 288 627 162 627 q 472 543 405 627 q 530 370 530 469 l 530 353 l 144 353 q 142 292 142 336 q 315 64 142 64 q 514 161 418 64 l 548 129 m 395 421 q 281 572 395 572 q 146 410 153 572 l 395 410 l 395 421 m 271 825 q 286 842 275 833 q 452 911 349 884 l 451 882 q 311 722 349 811 q 300 697 309 708 q 273 682 289 682 q 244 697 256 682 q 236 715 239 705 q 94 878 197 807 l 94 907 q 257 839 197 881 q 271 825 263 832 z "},"Ĝ":{"ha":991,"x_min":0,"x_max":912,"o":"m 849 749 l 795 749 q 484 952 715 952 q 254 852 345 952 q 148 519 148 734 q 357 81 148 176 q 536 50 423 50 q 707 101 641 50 q 784 244 776 155 q 701 361 794 357 l 701 416 l 912 416 l 912 64 q 531 -14 685 -14 q 138 120 269 -14 q 0 522 0 261 q 111 841 0 699 q 482 1015 250 1015 q 696 976 604 1015 q 772 959 741 959 q 789 965 779 959 q 796 976 794 970 l 849 976 l 849 749 m 473 1168 q 460 1154 466 1161 q 296 1086 399 1112 l 297 1115 q 439 1278 400 1186 q 447 1296 441 1288 q 475 1312 458 1312 q 503 1296 492 1312 q 513 1272 511 1285 q 654 1112 551 1182 l 654 1082 q 489 1151 551 1109 q 473 1168 478 1160 z "},"ĝ":{"ha":726,"x_min":0,"x_max":647,"o":"m 309 768 q 296 753 302 760 q 132 685 235 711 l 133 714 q 275 877 236 785 q 283 895 277 887 q 311 911 294 911 q 339 895 328 911 q 349 871 347 884 q 490 711 387 781 l 490 682 q 325 750 387 708 q 309 768 314 759 m 0 57 l 125 256 q 27 421 27 309 q 100 578 27 520 q 280 635 170 635 q 481 569 407 635 q 564 633 503 633 q 647 555 647 633 q 593 498 647 498 q 552 538 552 498 q 555 555 552 545 q 568 576 559 568 l 572 583 l 557 585 q 512 544 526 583 l 519 526 q 532 494 528 512 q 543 425 543 463 q 460 265 543 323 q 289 215 387 215 q 183 232 233 215 l 111 122 l 113 119 l 189 146 q 328 172 256 172 q 518 118 437 172 q 614 -45 614 58 q 532 -189 614 -134 q 328 -246 452 -246 q 139 -205 215 -246 q 61 -93 61 -162 q 135 -18 61 -18 q 200 -74 200 -18 q 192 -104 200 -90 q 168 -142 168 -141 q 307 -191 168 -191 q 524 -64 524 -191 q 309 54 524 54 q 27 -1 174 54 l 0 57 m 282 573 q 166 418 166 573 q 282 263 166 263 q 396 419 396 263 q 282 573 396 573 z "},"Ğ":{"ha":976,"x_min":0,"x_max":897,"o":"m 836 752 l 783 752 q 475 956 705 956 q 250 857 340 956 q 145 522 145 738 q 353 81 145 176 q 528 50 415 50 q 696 101 631 50 q 770 245 764 156 q 690 362 782 359 l 690 417 l 897 417 l 897 64 q 524 -14 673 -14 q 137 120 265 -14 q 0 525 0 261 q 110 844 0 702 q 474 1017 246 1017 q 688 979 593 1017 q 761 963 728 963 q 777 968 769 963 q 785 979 783 973 l 836 979 l 836 752 m 669 1237 q 604 1092 664 1144 q 478 1054 551 1054 q 355 1092 408 1054 q 290 1237 294 1144 l 341 1237 q 386 1165 349 1192 q 478 1134 424 1134 q 573 1165 533 1134 q 616 1237 608 1192 l 669 1237 z "},"ğ":{"ha":726,"x_min":0,"x_max":647,"o":"m 0 57 l 125 256 q 27 421 27 309 q 100 578 27 520 q 280 635 170 635 q 481 569 407 635 q 564 633 503 633 q 647 555 647 633 q 593 498 647 498 q 552 538 552 498 q 555 555 552 545 q 568 576 559 568 l 572 583 l 557 585 q 512 544 526 583 l 519 526 q 532 494 528 512 q 543 425 543 463 q 460 265 543 323 q 289 215 387 215 q 183 232 233 215 l 111 122 l 113 119 l 189 146 q 328 172 256 172 q 518 118 437 172 q 614 -45 614 58 q 532 -189 614 -134 q 328 -246 452 -246 q 139 -205 215 -246 q 61 -93 61 -162 q 135 -18 61 -18 q 200 -74 200 -18 q 192 -104 200 -90 q 168 -142 168 -141 q 307 -191 168 -191 q 524 -64 524 -191 q 309 54 524 54 q 27 -1 174 54 l 0 57 m 282 573 q 166 418 166 573 q 282 263 166 263 q 396 419 396 263 q 282 573 396 573 m 186 861 q 226 789 188 819 q 313 758 265 758 q 396 785 361 758 q 441 861 436 814 l 488 861 q 450 747 484 794 q 317 687 401 687 q 179 749 225 687 q 138 861 142 795 l 186 861 z "},"Ġ":{"ha":942,"x_min":75,"x_max":1076,"o":"m 1006 750 l 943 750 q 606 953 856 953 q 357 854 456 953 q 243 519 243 735 q 471 82 243 176 q 663 52 539 52 q 846 102 775 52 q 929 245 920 155 q 840 360 941 355 l 840 419 l 1076 419 l 1076 62 q 657 -16 825 -16 q 226 119 369 -16 q 75 524 75 260 q 199 843 75 702 q 604 1018 349 1018 q 840 979 736 1018 q 922 964 886 964 q 936 968 928 964 q 949 979 943 975 l 1006 979 l 1006 750 m 621 1128 q 590 1175 595 1145 q 601 1226 585 1202 q 646 1256 616 1249 q 701 1245 675 1261 q 730 1197 724 1227 q 720 1145 736 1171 q 675 1116 704 1122 q 621 1128 644 1110 z "},"ġ":{"ha":706,"x_min":24,"x_max":671,"o":"m 24 57 l 150 256 q 52 421 52 309 q 125 578 52 520 q 304 635 195 635 q 506 569 431 635 q 589 633 527 633 q 671 555 671 633 q 618 498 671 498 q 576 538 576 498 q 579 555 576 545 q 592 576 584 568 l 596 583 l 582 585 q 536 544 550 583 l 544 526 q 556 494 553 512 q 567 425 567 463 q 485 265 567 323 q 313 215 412 215 q 208 232 257 215 l 136 122 l 138 119 l 214 146 q 352 172 281 172 q 543 118 461 172 q 639 -45 639 58 q 557 -189 639 -134 q 352 -246 476 -246 q 163 -205 239 -246 q 85 -93 85 -162 q 159 -18 85 -18 q 224 -74 224 -18 q 216 -104 224 -90 q 193 -142 193 -141 q 331 -191 193 -191 q 549 -64 549 -191 q 333 54 549 54 q 52 -1 199 54 l 24 57 m 307 573 q 191 418 191 573 q 307 263 191 263 q 420 419 420 263 q 307 573 420 573 m 275 746 q 244 793 250 763 q 255 844 239 820 q 300 874 271 867 q 355 863 329 880 q 385 815 378 845 q 374 764 391 789 q 329 734 358 741 q 275 746 298 728 z "},"Ģ":{"ha":1045,"x_min":0,"x_max":966,"o":"m 897 822 l 842 822 q 511 1023 759 1023 q 269 924 365 1023 q 155 595 155 808 q 378 157 155 254 q 566 127 448 127 q 749 178 679 127 q 830 323 822 233 q 741 437 841 433 l 741 491 l 966 491 l 966 140 q 562 64 724 64 q 146 198 286 64 q 0 597 0 336 q 120 913 0 774 q 510 1085 265 1085 q 738 1046 639 1085 q 819 1029 783 1029 q 835 1036 827 1029 q 846 1046 842 1042 l 897 1046 l 897 822 m 389 -293 q 491 -165 479 -222 l 490 -163 q 465 -163 478 -165 q 391 -89 391 -156 l 391 -83 q 477 -6 397 -6 q 574 -110 574 -6 q 422 -328 574 -239 l 389 -293 z "},"ģ":{"ha":726,"x_min":0,"x_max":647,"o":"m 381 1013 q 292 891 304 945 l 293 890 q 315 889 304 892 q 380 813 380 884 q 304 742 380 742 q 220 838 220 742 q 351 1046 220 961 l 381 1013 m 0 57 l 125 256 q 27 421 27 309 q 100 578 27 520 q 280 635 170 635 q 481 569 407 635 q 564 633 503 633 q 647 555 647 633 q 593 498 647 498 q 552 538 552 498 q 555 555 552 545 q 568 576 559 568 l 572 583 l 557 585 q 512 544 526 583 l 519 526 q 532 494 528 512 q 543 425 543 463 q 460 265 543 323 q 289 215 387 215 q 183 232 233 215 l 111 122 l 113 119 l 189 146 q 328 172 256 172 q 518 118 437 172 q 614 -45 614 58 q 532 -189 614 -134 q 328 -246 452 -246 q 139 -205 215 -246 q 61 -93 61 -162 q 135 -18 61 -18 q 200 -74 200 -18 q 192 -104 200 -90 q 168 -142 168 -141 q 307 -191 168 -191 q 524 -64 524 -191 q 309 54 524 54 q 27 -1 174 54 l 0 57 m 282 573 q 166 418 166 573 q 282 263 166 263 q 396 419 396 263 q 282 573 396 573 z "},"Ĥ":{"ha":1078,"x_min":0,"x_max":987,"o":"m 294 959 q 211 844 211 951 l 211 548 l 773 548 l 773 844 q 691 960 773 949 l 691 1015 l 987 1015 l 987 959 q 902 844 902 951 l 902 165 q 987 52 902 61 l 987 -3 l 691 -3 l 691 52 q 773 165 773 62 l 773 483 l 211 483 l 211 165 q 294 52 211 60 l 294 -3 l 0 -3 l 0 52 q 84 165 84 60 l 84 844 q 0 959 84 951 l 0 1015 l 294 1015 l 294 959 m 486 1168 q 473 1154 479 1161 q 309 1086 412 1112 l 310 1115 q 452 1278 413 1186 q 460 1296 454 1288 q 488 1312 471 1312 q 516 1296 505 1312 q 526 1272 524 1285 q 667 1112 564 1182 l 667 1082 q 502 1151 564 1109 q 486 1168 491 1160 z "},"ĥ":{"ha":730,"x_min":0,"x_max":652,"o":"m 391 787 q 378 772 384 779 q 214 704 317 730 l 215 733 q 357 896 318 804 q 365 914 359 906 q 393 930 376 930 q 421 914 410 930 q 431 890 429 903 q 572 730 469 800 l 572 701 q 407 769 469 727 q 391 787 396 778 m 200 557 l 204 557 q 409 640 296 640 q 581 432 581 640 l 581 163 q 652 50 581 58 l 652 -3 l 385 -3 l 385 50 q 447 90 433 57 q 456 163 456 109 l 456 437 q 362 565 456 565 q 200 455 256 565 l 200 164 q 270 50 203 60 l 270 -3 l 0 -3 l 0 50 q 73 164 73 60 l 73 753 q 64 833 73 798 q 3 865 50 857 l 3 918 l 200 918 l 200 557 z "},"Ħ":{"ha":1019,"x_min":0,"x_max":987,"o":"m 211 690 l 211 537 l 773 537 l 773 690 l 211 690 m 84 690 l 26 690 l 26 744 l 84 744 l 84 827 q 0 940 84 932 l 0 994 l 294 994 l 294 940 q 211 827 211 932 l 211 744 l 773 744 l 773 827 q 691 941 773 930 l 691 994 l 987 994 l 987 940 q 902 827 902 932 l 902 744 l 962 744 l 962 690 l 902 690 l 902 162 q 987 50 902 60 l 987 -3 l 691 -3 l 691 50 q 773 162 773 61 l 773 473 l 211 473 l 211 162 q 294 51 211 59 l 294 -3 l 0 -3 l 0 51 q 84 162 84 59 l 84 690 z "},"ħ":{"ha":680,"x_min":0,"x_max":652,"o":"m 73 711 l 3 711 l 3 778 l 72 778 q 64 833 70 808 q 3 865 50 857 l 3 918 l 200 918 l 200 778 l 480 778 l 480 711 l 200 711 l 200 557 l 204 557 q 409 640 296 640 q 581 432 581 640 l 581 163 q 652 50 581 58 l 652 -3 l 385 -3 l 385 50 q 447 90 433 57 q 456 163 456 109 l 456 437 q 362 565 456 565 q 200 455 256 565 l 200 164 q 270 50 203 60 l 270 -3 l 0 -3 l 0 50 q 73 164 73 60 l 73 711 z "},"Ĩ":{"ha":485,"x_min":71,"x_max":471,"o":"m 444 938 q 353 827 353 930 l 353 162 q 444 52 353 62 l 444 -5 l 116 -5 l 116 52 q 207 162 207 62 l 207 827 q 116 938 207 930 l 116 996 l 444 996 l 444 938 m 471 1247 q 336 1093 432 1093 q 246 1114 302 1093 l 236 1118 q 174 1134 193 1134 q 109 1093 138 1134 l 71 1093 q 203 1238 117 1238 q 292 1217 231 1238 q 368 1196 352 1196 q 431 1247 416 1196 l 471 1247 z "},"ĩ":{"ha":422,"x_min":49,"x_max":448,"o":"m 318 627 l 318 164 q 390 51 318 55 l 390 -3 l 120 -3 l 120 50 q 191 164 191 58 l 191 458 q 182 536 191 515 q 120 574 168 564 l 120 627 l 318 627 m 448 905 q 313 751 410 751 q 224 772 280 751 l 214 777 q 152 792 170 792 q 86 751 115 792 l 49 751 q 181 896 95 896 q 269 876 209 896 q 346 854 330 854 q 408 905 394 854 l 448 905 z "},"Ī":{"ha":452,"x_min":0,"x_max":429,"o":"m 0 1177 l 429 1177 l 429 1102 l 0 1102 l 0 1177 m 382 938 q 291 827 291 930 l 291 162 q 382 52 291 62 l 382 -5 l 54 -5 l 54 52 q 145 162 145 62 l 145 827 q 54 938 145 930 l 54 996 l 382 996 l 382 938 z "},"ī":{"ha":535,"x_min":0,"x_max":456,"o":"m 293 627 l 293 164 q 366 51 293 55 l 366 -3 l 95 -3 l 95 50 q 166 164 166 58 l 166 458 q 157 536 166 515 q 95 574 142 564 l 95 627 l 293 627 m 456 905 l 456 812 l 0 812 l 0 905 l 456 905 z "},"Ĭ":{"ha":484,"x_min":136,"x_max":522,"o":"m 463 938 q 372 827 372 930 l 372 162 q 463 52 372 62 l 463 -5 l 136 -5 l 136 52 q 227 162 227 62 l 227 827 q 136 938 227 930 l 136 996 l 463 996 l 463 938 m 219 1204 q 259 1131 221 1162 q 347 1101 298 1101 q 429 1128 394 1101 q 474 1204 469 1157 l 522 1204 q 483 1090 517 1137 q 350 1029 435 1029 q 212 1092 258 1029 q 171 1204 176 1137 l 219 1204 z "},"ĭ":{"ha":422,"x_min":-16,"x_max":334,"o":"m 194 627 l 194 164 q 266 51 194 55 l 266 -3 l -4 -3 l -4 50 q 67 164 67 58 l 67 458 q 58 536 67 515 q -4 574 43 564 l -4 627 l 194 627 m 32 879 q 72 806 34 837 q 159 776 111 776 q 242 803 207 776 q 287 879 282 832 l 334 879 q 296 765 330 812 q 163 705 248 705 q 25 767 71 705 q -16 879 -12 812 l 32 879 z "},"Į":{"ha":391,"x_min":27,"x_max":374,"o":"m 294 -5 q 191 -113 188 -65 q 255 -161 195 -161 q 358 -123 306 -161 l 374 -148 q 214 -219 305 -219 q 136 -191 164 -219 q 108 -128 108 -166 q 227 -5 108 -64 l 294 -5 m 355 941 q 264 830 264 932 l 264 165 q 355 54 264 65 l 355 -3 l 27 -3 l 27 54 q 118 165 118 65 l 118 830 q 27 941 118 932 l 27 999 l 355 999 l 355 941 z "},"į":{"ha":419,"x_min":0,"x_max":341,"o":"m 195 662 l 195 199 q 269 85 195 90 l 269 33 q 149 -93 145 -23 q 217 -146 155 -146 q 326 -105 271 -146 l 341 -131 q 174 -212 270 -212 q 92 -180 122 -212 q 63 -110 63 -151 q 191 31 63 -37 l 0 31 l 0 85 q 71 199 71 93 l 71 493 q 62 570 71 549 q 0 608 47 599 l 0 662 l 195 662 m 44 916 q 57 967 37 947 q 106 989 75 989 q 165 968 138 989 q 198 918 192 948 q 185 863 203 884 q 136 841 168 841 q 77 863 104 841 q 44 916 49 883 z "},"İ":{"ha":399,"x_min":-3,"x_max":324,"o":"m 57 1179 q 90 1251 57 1219 q 162 1280 119 1280 q 236 1251 205 1280 q 267 1179 267 1219 q 236 1112 267 1140 q 162 1081 205 1081 q 90 1111 119 1081 q 57 1179 57 1139 m 324 938 q 233 827 233 930 l 233 162 q 324 52 233 62 l 324 -5 l -3 -5 l -3 52 q 87 162 87 62 l 87 827 q -3 938 87 930 l -3 996 l 324 996 l 324 938 z "},"ı":{"ha":348,"x_min":0,"x_max":270,"o":"m 198 627 l 198 164 q 270 51 198 55 l 270 -3 l 0 -3 l 0 50 q 71 164 71 58 l 71 458 q 62 536 71 515 q 0 574 47 564 l 0 627 l 198 627 z "},"Ĳ":{"ha":932,"x_min":50,"x_max":867,"o":"m 378 938 q 287 827 287 930 l 287 162 q 378 52 287 62 l 378 -5 l 50 -5 l 50 52 q 141 162 141 62 l 141 827 q 50 938 141 930 l 50 996 l 378 996 l 378 938 m 867 999 l 867 944 q 770 838 770 932 l 770 174 q 669 -95 770 1 q 470 -175 584 -175 q 361 -145 404 -175 q 321 -80 321 -117 q 342 -30 321 -52 q 396 -13 365 -13 q 471 -65 471 -13 q 470 -83 471 -75 q 467 -90 467 -87 q 505 -109 467 -109 q 615 119 615 -109 l 615 838 q 517 943 615 935 l 517 999 l 867 999 z "},"ĳ":{"ha":738,"x_min":31,"x_max":598,"o":"m 226 627 l 226 164 q 299 51 226 55 l 299 -3 l 31 -3 l 31 50 q 102 164 102 58 l 102 458 q 92 536 102 515 q 31 574 78 564 l 31 627 l 226 627 m 64 833 q 87 886 64 862 q 147 913 109 913 q 203 890 182 913 q 229 833 229 866 q 201 772 229 794 q 147 750 174 750 q 90 775 116 750 q 64 833 64 801 m 598 629 l 598 37 q 551 -203 598 -121 q 378 -303 494 -303 q 305 -281 334 -303 q 277 -227 277 -256 q 336 -173 277 -173 q 385 -199 364 -173 q 438 -230 413 -230 q 473 -184 473 -230 l 473 458 q 388 573 473 573 l 359 573 l 359 629 l 598 629 m 423 833 q 446 886 423 862 q 506 913 468 913 q 562 890 541 913 q 587 833 587 866 q 559 772 587 794 q 506 750 533 750 q 448 775 475 750 q 423 833 423 801 z "},"Ĵ":{"ha":458,"x_min":-193,"x_max":369,"o":"m 353 999 l 353 944 q 256 838 256 932 l 256 174 q 155 -95 256 1 q -44 -175 70 -175 q -153 -145 -111 -175 q -193 -80 -193 -117 q -172 -30 -193 -52 q -118 -13 -149 -13 q -43 -65 -43 -13 q -44 -83 -43 -75 q -47 -90 -47 -87 q -9 -109 -47 -109 q 101 119 101 -109 l 101 838 q 3 943 101 935 l 3 999 l 353 999 m 188 1156 q 174 1141 180 1148 q 11 1073 114 1099 l 12 1102 q 153 1265 115 1173 q 161 1283 156 1275 q 190 1299 173 1299 q 218 1283 206 1299 q 228 1259 226 1272 q 368 1099 266 1169 l 369 1069 q 203 1138 266 1096 q 188 1156 193 1147 z "},"ĵ":{"ha":426,"x_min":-50,"x_max":362,"o":"m 271 648 l 271 60 q 223 -181 271 -99 q 51 -281 168 -281 q -22 -258 7 -281 q -50 -204 -50 -235 q 9 -151 -50 -151 q 58 -177 38 -151 q 111 -208 86 -208 q 145 -163 145 -208 l 145 479 q 60 594 145 594 l 32 594 l 32 648 l 271 648 m 181 768 q 168 753 174 760 q 4 685 107 711 l 5 714 q 146 877 108 785 q 155 895 149 887 q 183 911 166 911 q 211 895 199 911 q 221 871 219 884 q 361 711 259 781 l 362 682 q 197 750 259 708 q 181 768 186 759 z "},"Ķ":{"ha":1030,"x_min":0,"x_max":951,"o":"m 288 1031 l 288 976 q 207 860 207 969 l 207 555 l 210 555 l 582 873 q 625 942 625 914 q 587 976 625 976 l 573 976 l 573 1031 l 868 1031 l 868 977 q 670 865 772 950 l 390 624 l 791 172 q 951 65 875 79 l 951 10 l 593 10 l 593 66 l 606 66 q 653 107 653 66 q 623 168 653 131 l 292 537 l 207 463 l 207 180 q 288 66 207 74 l 288 10 l 0 10 l 0 65 q 82 180 82 75 l 82 860 q 0 976 82 969 l 0 1031 l 288 1031 m 353 -311 q 447 -180 435 -238 l 446 -178 q 425 -178 437 -180 q 355 -102 355 -172 l 355 -97 q 436 -18 360 -18 q 526 -122 526 -18 q 385 -347 526 -255 l 353 -311 z "},"ķ":{"ha":739,"x_min":0,"x_max":663,"o":"m 195 -359 q 306 -213 292 -279 l 304 -212 q 277 -212 293 -213 q 197 -127 197 -203 l 197 -121 q 291 -33 204 -33 q 396 -150 396 -33 q 231 -399 396 -298 l 195 -359 m 200 380 l 350 507 q 385 549 385 537 q 339 573 385 573 l 339 627 l 597 627 l 597 573 q 430 491 519 568 l 340 414 l 554 141 q 663 54 618 56 l 663 0 l 363 0 l 363 55 q 422 82 422 49 q 405 117 422 97 l 243 326 l 200 288 l 200 164 q 270 50 203 60 l 270 -3 l 0 -3 l 0 50 q 73 164 73 60 l 73 753 q 64 833 73 798 q 3 865 50 857 l 3 918 l 200 918 l 200 380 z "},"ĸ":{"ha":739,"x_min":0,"x_max":660,"o":"m 195 377 l 347 507 q 382 549 382 536 q 336 573 382 573 l 336 627 l 595 627 l 595 573 q 427 490 517 568 l 338 412 l 551 138 q 660 51 616 52 l 660 -3 l 360 -3 l 360 52 q 419 79 419 45 q 402 115 419 94 l 241 324 l 195 284 l 195 164 q 267 50 195 58 l 267 -3 l 0 -3 l 0 50 q 71 164 71 58 l 71 463 q 0 577 71 569 l 0 631 l 195 631 l 195 377 z "},"Ĺ":{"ha":870,"x_min":-3,"x_max":781,"o":"m 303 943 q 218 829 218 933 l 218 62 l 518 62 q 657 116 600 62 q 720 240 705 165 l 781 240 l 781 -5 l -3 -5 l -3 53 q 81 165 81 62 l 81 829 q -3 943 81 933 l -3 999 l 303 999 l 303 943 m 314 1242 l 315 1235 q 315 1216 315 1225 l 313 1211 l 309 1196 q 294 1168 304 1181 q 274 1144 285 1155 q 231 1113 262 1133 q 54 1061 157 1069 l 54 1107 q 152 1166 130 1145 q 181 1204 175 1187 q 190 1242 187 1221 q 211 1283 193 1268 q 254 1298 229 1298 q 286 1286 274 1295 q 294 1278 290 1283 q 300 1272 298 1276 q 314 1242 312 1259 z "},"ĺ":{"ha":311,"x_min":0,"x_max":271,"o":"m 269 1139 l 271 1133 q 270 1114 271 1123 l 269 1108 l 264 1093 q 250 1066 259 1079 q 229 1042 240 1053 q 186 1010 218 1031 q 9 958 112 966 l 9 1005 q 107 1064 85 1043 q 136 1102 130 1085 q 145 1140 142 1119 q 166 1181 149 1166 q 209 1196 184 1196 q 241 1183 229 1192 q 250 1176 245 1181 q 256 1169 253 1173 q 269 1139 267 1157 m 200 918 l 200 164 q 270 50 203 60 l 270 -3 l 0 -3 l 0 50 q 73 164 73 60 l 73 753 q 64 833 73 798 q 3 865 50 857 l 3 918 l 200 918 z "},"Ļ":{"ha":870,"x_min":-3,"x_max":781,"o":"m 264 -267 q 357 -157 346 -205 l 356 -156 q 334 -156 346 -157 q 267 -92 267 -151 l 267 -87 q 345 -22 272 -22 q 435 -110 435 -22 q 297 -298 435 -222 l 264 -267 m 303 943 q 218 829 218 933 l 218 62 l 518 62 q 657 116 600 62 q 720 240 705 165 l 781 240 l 781 -5 l -3 -5 l -3 53 q 81 165 81 62 l 81 829 q -3 943 81 933 l -3 999 l 303 999 l 303 943 z "},"ļ":{"ha":348,"x_min":0,"x_max":270,"o":"m 36 -359 q 148 -213 134 -279 l 147 -212 q 120 -212 134 -213 q 38 -127 38 -203 l 38 -121 q 133 -33 46 -33 q 237 -150 237 -33 q 74 -399 237 -298 l 36 -359 m 200 918 l 200 164 q 270 50 203 60 l 270 -3 l 0 -3 l 0 50 q 73 164 73 60 l 73 753 q 64 833 73 798 q 3 865 50 857 l 3 918 l 200 918 z "},"Ľ":{"ha":843,"x_min":0,"x_max":777,"o":"m 300 944 q 214 829 214 935 l 214 60 l 518 60 q 660 115 602 60 q 722 238 709 164 l 777 238 l 777 -3 l 0 -3 l 0 51 q 84 165 84 60 l 84 829 q 0 944 84 935 l 0 997 l 300 997 l 300 944 m 491 675 q 586 789 575 739 l 585 791 l 563 791 q 493 857 493 799 l 493 862 q 574 929 498 929 q 666 840 666 929 q 523 646 666 724 l 491 675 z "},"ľ":{"ha":471,"x_min":0,"x_max":450,"o":"m 200 918 l 200 164 q 270 50 203 60 l 270 -3 l 0 -3 l 0 50 q 73 164 73 60 l 73 753 q 64 833 73 798 q 3 865 50 857 l 3 918 l 200 918 m 275 662 q 370 777 359 726 l 368 779 l 347 779 q 277 844 277 786 l 277 849 q 358 916 281 916 q 450 827 450 916 q 307 633 450 711 l 275 662 z "},"Ŀ":{"ha":822,"x_min":50,"x_max":834,"o":"m 357 939 q 271 826 271 929 l 271 62 l 572 62 q 711 115 654 62 q 773 239 759 164 l 834 239 l 834 -5 l 50 -5 l 50 53 q 134 164 134 62 l 134 826 q 50 939 134 929 l 50 995 l 357 995 l 357 939 m 450 281 q 420 328 425 298 q 431 380 414 355 q 475 410 446 403 q 530 399 505 415 q 560 351 554 380 q 550 299 566 325 q 505 269 534 276 q 450 281 474 264 z "},"ŀ":{"ha":500,"x_min":18,"x_max":402,"o":"m 218 918 l 218 164 q 288 50 220 60 l 288 -3 l 18 -3 l 18 50 q 90 164 90 60 l 90 753 q 81 833 90 798 q 21 865 67 857 l 21 918 l 218 918 m 286 205 q 256 252 261 222 q 267 303 250 279 q 311 333 282 326 q 366 322 340 338 q 396 274 390 304 q 386 222 402 248 q 340 193 370 199 q 286 205 310 187 z "},"Ł":{"ha":902,"x_min":0,"x_max":829,"o":"m 267 572 l 414 702 l 456 656 l 267 487 l 267 62 l 570 62 q 712 117 654 62 q 774 240 761 166 l 829 240 l 829 -1 l 52 -1 l 52 53 q 136 167 136 62 l 136 372 l 43 288 l 0 336 l 136 457 l 136 831 q 52 946 136 937 l 52 999 l 352 999 l 352 946 q 267 831 267 937 l 267 572 z "},"ł":{"ha":511,"x_min":0,"x_max":436,"o":"m 269 525 l 404 617 l 436 574 l 269 459 l 269 164 q 339 50 272 60 l 339 -3 l 69 -3 l 69 50 q 142 164 142 60 l 142 371 l 32 295 l 0 339 l 142 437 l 142 753 q 133 833 142 798 q 73 865 119 857 l 73 918 l 269 918 l 269 525 z "},"Ń":{"ha":1071,"x_min":-3,"x_max":955,"o":"m -3 52 q 62 82 38 60 q 81 151 81 111 l 81 823 q -3 938 81 935 l -3 996 l 208 996 l 789 258 l 802 242 l 802 830 q 720 939 802 928 l 720 996 l 955 996 l 955 939 q 886 901 903 927 q 871 830 871 880 l 871 -5 l 819 -5 l 146 849 l 150 849 l 150 151 q 233 53 150 53 l 233 -5 l -3 -5 l -3 52 m 619 1248 l 621 1241 q 620 1222 621 1232 l 618 1217 l 614 1202 q 600 1174 609 1187 q 579 1150 590 1161 q 536 1119 568 1139 q 359 1067 462 1075 l 359 1114 q 457 1173 435 1152 q 486 1211 480 1194 q 495 1249 492 1227 q 516 1289 498 1274 q 559 1304 534 1304 q 591 1292 579 1301 q 600 1284 595 1289 q 606 1278 603 1282 q 619 1248 617 1265 z "},"ń":{"ha":732,"x_min":0,"x_max":654,"o":"m 467 866 l 468 859 q 467 840 468 850 l 466 835 l 461 820 q 447 792 456 806 q 426 768 437 779 q 384 737 415 758 q 206 685 309 693 l 206 732 q 305 791 282 770 q 334 829 328 812 q 342 867 340 846 q 364 907 346 892 q 406 922 382 922 q 439 910 427 919 q 447 903 443 907 q 453 896 450 900 q 467 866 465 884 m 0 50 q 73 165 73 60 l 73 493 q 1 574 73 558 l 1 627 l 198 627 l 197 547 q 404 640 286 640 l 411 640 q 561 564 523 638 q 581 432 581 524 l 581 165 q 654 51 581 55 l 654 -3 l 382 -3 l 382 50 q 456 165 456 60 l 456 437 q 363 564 456 564 q 198 458 267 564 l 198 165 q 270 50 198 58 l 270 -3 l 0 -3 l 0 50 z "},"Ņ":{"ha":1050,"x_min":-3,"x_max":955,"o":"m 393 -306 q 492 -175 482 -233 l 492 -174 q 467 -174 482 -176 q 395 -98 395 -165 l 395 -93 q 481 -15 401 -15 q 574 -119 574 -15 q 427 -341 574 -250 l 393 -306 m -3 52 q 62 82 38 60 q 81 151 81 111 l 81 823 q -3 938 81 935 l -3 996 l 208 996 l 789 258 l 802 242 l 802 830 q 720 939 802 928 l 720 996 l 955 996 l 955 939 q 886 901 903 927 q 871 830 871 880 l 871 -5 l 819 -5 l 146 849 l 150 849 l 150 151 q 233 53 150 53 l 233 -5 l -3 -5 l -3 52 z "},"ņ":{"ha":732,"x_min":0,"x_max":654,"o":"m 256 -318 q 351 -191 338 -248 l 350 -189 q 326 -189 339 -190 q 258 -115 258 -182 l 258 -109 q 338 -33 262 -33 q 427 -135 427 -33 q 288 -353 427 -264 l 256 -318 m 0 50 q 73 165 73 60 l 73 493 q 1 574 73 558 l 1 627 l 198 627 l 197 547 q 404 640 286 640 l 411 640 q 561 564 523 638 q 581 432 581 524 l 581 165 q 654 51 581 55 l 654 -3 l 382 -3 l 382 50 q 456 165 456 60 l 456 437 q 363 564 456 564 q 198 458 267 564 l 198 165 q 270 50 198 58 l 270 -3 l 0 -3 l 0 50 z "},"Ň":{"ha":1068,"x_min":-3,"x_max":955,"o":"m -3 52 q 62 82 38 60 q 81 151 81 111 l 81 823 q -3 938 81 935 l -3 996 l 208 996 l 789 258 l 802 242 l 802 830 q 720 939 802 928 l 720 996 l 955 996 l 955 939 q 886 901 903 927 q 871 830 871 880 l 871 -5 l 819 -5 l 146 849 l 150 849 l 150 151 q 233 53 150 53 l 233 -5 l -3 -5 l -3 52 m 499 1219 q 515 1236 504 1227 q 680 1305 577 1278 l 680 1276 q 539 1116 577 1205 q 529 1091 537 1102 q 501 1076 517 1076 q 473 1091 484 1076 q 465 1109 467 1099 q 323 1272 426 1201 l 322 1301 q 486 1233 425 1275 q 499 1219 492 1226 z "},"ň":{"ha":732,"x_min":0,"x_max":654,"o":"m 334 812 q 350 830 339 821 q 515 899 412 872 l 515 869 q 374 709 412 799 q 364 685 372 696 q 336 669 353 669 q 308 685 319 669 q 300 703 302 693 q 158 866 261 795 l 157 895 q 321 827 260 869 q 334 812 327 820 m 0 50 q 73 165 73 60 l 73 493 q 1 574 73 558 l 1 627 l 198 627 l 197 547 q 404 640 286 640 l 411 640 q 561 564 523 638 q 581 432 581 524 l 581 165 q 654 51 581 55 l 654 -3 l 382 -3 l 382 50 q 456 165 456 60 l 456 437 q 363 564 456 564 q 198 458 267 564 l 198 165 q 270 50 198 58 l 270 -3 l 0 -3 l 0 50 z "},"ŉ":{"ha":1040,"x_min":1,"x_max":804,"o":"m 150 43 q 222 159 222 54 l 222 487 q 151 568 222 552 l 151 621 l 348 621 l 347 541 q 553 633 435 633 l 561 633 q 711 558 673 632 q 730 426 730 517 l 730 159 q 804 45 730 49 l 804 -9 l 532 -9 l 532 43 q 606 159 606 54 l 606 431 q 513 558 606 558 q 348 452 416 558 l 348 159 q 420 43 348 52 l 420 -9 l 150 -9 l 150 43 m 1 598 q 104 747 92 677 l 100 750 l 75 750 q 1 838 1 758 q 87 922 1 922 q 185 808 185 922 q 32 564 185 663 l 1 598 z "},"Ŋ":{"ha":990,"x_min":-3,"x_max":955,"o":"m 800 20 l 150 845 l 150 151 q 233 53 150 53 l 233 -5 l -3 -5 l -3 52 q 62 82 38 60 q 81 151 81 111 l 81 823 q -3 938 81 935 l -3 996 l 208 996 l 789 258 l 802 242 l 802 830 q 720 939 802 928 l 720 996 l 955 996 l 955 939 q 886 901 903 927 q 871 830 871 880 l 871 -5 l 871 -5 q 861 -145 870 -88 q 829 -246 850 -208 q 777 -299 808 -283 q 705 -315 746 -315 l 677 -315 l 677 -243 l 694 -243 q 739 -231 720 -243 q 772 -190 759 -218 q 792 -113 785 -161 q 800 9 800 -64 l 800 20 z "},"ŋ":{"ha":838,"x_min":56,"x_max":763,"o":"m 432 43 l 432 -12 l 56 -12 l 56 43 l 71 43 q 113 46 93 43 q 148 57 134 49 q 171 81 162 65 q 180 123 180 97 l 180 485 q 171 525 180 509 q 148 548 162 540 q 113 558 133 555 q 71 561 92 561 l 62 561 l 62 615 l 292 615 l 311 522 l 311 522 q 356 573 332 553 q 408 606 380 594 q 465 622 435 618 q 528 627 495 627 q 627 613 583 627 q 701 572 671 600 q 747 500 731 544 q 763 397 763 457 l 763 -18 q 744 -149 763 -96 q 691 -232 726 -201 q 609 -276 656 -263 q 505 -290 562 -290 l 480 -290 l 480 -229 l 492 -229 q 549 -219 524 -229 q 591 -185 574 -209 q 617 -121 608 -161 q 627 -19 627 -80 l 627 391 q 618 458 627 429 q 593 506 610 486 q 548 536 576 526 q 479 547 520 547 q 401 532 433 547 q 351 492 370 517 q 324 433 332 467 q 315 362 315 399 l 315 117 q 324 78 315 93 q 347 56 332 63 q 382 45 362 48 q 425 43 403 43 l 432 43 z "},"Ō":{"ha":1104,"x_min":0,"x_max":972,"o":"m 264 1253 l 693 1253 l 693 1169 l 264 1169 l 264 1253 m 487 1019 q 849 852 709 1019 q 972 509 972 703 q 849 162 972 310 q 487 -3 709 -3 q 125 162 264 -3 q 0 509 0 310 q 125 852 0 703 q 487 1019 264 1019 m 484 958 q 242 840 337 958 q 139 510 139 717 q 242 176 139 297 q 484 58 337 58 q 726 176 630 58 q 829 510 829 297 q 726 840 829 717 q 484 958 630 958 z "},"ō":{"ha":699,"x_min":0,"x_max":620,"o":"m 537 906 l 537 813 l 83 813 l 83 906 l 537 906 m 311 627 q 610 397 550 627 q 620 304 620 356 q 610 229 620 272 q 456 35 574 92 q 311 1 387 1 q 167 35 233 1 q 10 229 46 92 q 0 304 0 272 q 10 397 0 356 q 311 627 72 627 m 311 573 q 193 524 233 573 q 142 313 142 465 q 164 156 142 209 q 311 55 200 55 q 479 313 479 55 q 428 524 479 465 q 311 573 390 573 z "},"Ŏ":{"ha":1104,"x_min":0,"x_max":972,"o":"m 487 1019 q 849 852 709 1019 q 972 509 972 703 q 849 162 972 310 q 487 -3 709 -3 q 125 162 264 -3 q 0 509 0 310 q 125 852 0 703 q 487 1019 264 1019 m 484 958 q 242 840 337 958 q 139 510 139 717 q 242 176 139 297 q 484 58 337 58 q 726 176 630 58 q 829 510 829 297 q 726 840 829 717 q 484 958 630 958 m 682 1280 q 614 1131 678 1184 q 490 1090 564 1090 q 365 1131 418 1090 q 298 1280 302 1184 l 353 1280 q 395 1204 360 1234 q 490 1171 434 1171 q 586 1204 547 1171 q 630 1280 621 1234 l 682 1280 z "},"ŏ":{"ha":699,"x_min":0,"x_max":620,"o":"m 311 627 q 610 397 550 627 q 620 304 620 356 q 610 229 620 272 q 456 35 574 92 q 311 1 387 1 q 167 35 233 1 q 10 229 46 92 q 0 304 0 272 q 10 397 0 356 q 311 627 72 627 m 311 573 q 193 524 233 573 q 142 313 142 465 q 164 156 142 209 q 311 55 200 55 q 479 313 479 55 q 428 524 479 465 q 311 573 390 573 m 192 868 q 232 795 194 826 q 319 765 271 765 q 402 792 367 765 q 447 868 442 821 l 494 868 q 456 754 490 801 q 323 694 408 694 q 185 756 231 694 q 144 868 149 802 l 192 868 z "},"Ő":{"ha":1104,"x_min":1,"x_max":973,"o":"m 488 1015 q 850 848 710 1015 q 973 505 973 699 q 850 158 973 306 q 488 -7 710 -7 q 126 158 264 -7 q 1 505 1 306 q 126 848 1 699 q 488 1015 264 1015 m 484 954 q 243 836 338 954 q 140 506 140 713 q 243 172 140 293 q 484 54 338 54 q 726 172 631 54 q 829 506 829 293 q 726 836 829 713 q 484 954 631 954 m 530 1248 l 532 1241 q 531 1222 532 1232 l 530 1217 l 525 1202 q 511 1174 520 1187 q 490 1150 501 1161 q 448 1119 479 1139 q 270 1067 373 1075 l 270 1114 q 369 1173 346 1152 q 397 1211 391 1194 q 406 1249 404 1227 q 428 1289 410 1274 q 470 1304 446 1304 q 503 1292 490 1301 q 511 1284 507 1289 q 517 1278 514 1282 q 530 1248 528 1265 m 772 1255 l 774 1248 q 773 1229 774 1238 l 772 1223 l 767 1208 q 753 1181 762 1194 q 732 1157 743 1168 q 690 1126 721 1146 q 512 1074 615 1082 l 512 1120 q 611 1179 588 1158 q 640 1217 633 1200 q 648 1255 646 1234 q 670 1296 652 1281 q 712 1311 688 1311 q 745 1299 732 1308 q 753 1291 749 1296 q 759 1284 756 1289 q 772 1255 770 1272 z "},"ő":{"ha":745,"x_min":0,"x_max":627,"o":"m 311 627 q 610 397 550 627 q 620 304 620 356 q 610 229 620 272 q 456 35 574 92 q 311 1 387 1 q 167 35 233 1 q 10 229 46 92 q 0 304 0 272 q 10 397 0 356 q 311 627 72 627 m 311 573 q 193 524 233 573 q 142 313 142 465 q 164 156 142 209 q 311 55 200 55 q 479 313 479 55 q 428 524 479 465 q 311 573 390 573 m 410 866 l 411 859 q 410 840 411 850 l 409 835 l 404 820 q 390 792 399 806 q 369 768 380 779 q 327 737 358 758 q 149 685 252 693 l 149 732 q 248 791 225 770 q 277 829 271 812 q 286 867 283 846 q 307 907 289 892 q 349 922 325 922 q 382 910 370 919 q 390 903 386 907 q 396 896 393 900 q 410 866 408 884 m 626 860 l 627 853 q 627 834 627 844 l 625 829 l 621 814 q 606 786 616 800 q 586 762 597 773 q 543 731 574 751 q 366 679 469 687 l 366 726 q 464 785 441 764 q 493 823 487 806 q 502 861 499 840 q 523 901 505 886 q 566 916 541 916 q 598 904 586 913 q 606 897 602 901 q 612 890 610 894 q 626 860 624 878 z "},"Œ":{"ha":1554,"x_min":0,"x_max":1475,"o":"m 1475 216 l 1458 -1 l 640 -1 q 518 -12 574 -12 q 141 138 288 -12 q 0 505 0 282 q 146 876 0 729 q 518 1021 292 1021 q 640 1009 574 1021 l 1220 1012 q 1326 1021 1220 1012 l 1348 1021 l 1348 829 l 1294 829 q 1209 932 1265 904 q 1069 952 1166 952 l 808 952 l 808 540 l 985 540 q 1103 620 1088 540 l 1156 620 l 1156 402 l 1103 402 q 1057 473 1084 458 q 985 483 1040 483 l 808 483 l 808 58 l 1143 58 q 1420 216 1408 58 l 1475 216 m 518 964 q 257 841 356 964 q 153 549 165 728 q 152 454 152 517 q 174 317 152 395 q 300 122 212 194 q 518 43 392 43 q 675 140 675 43 l 675 871 q 631 953 675 932 q 518 964 602 964 z "},"œ":{"ha":1093,"x_min":0,"x_max":1017,"o":"m 618 357 q 615 241 615 288 q 654 119 615 173 q 782 59 700 59 q 981 159 892 59 l 1017 126 q 761 -14 903 -14 q 536 81 612 -14 l 535 81 q 311 -14 452 -14 q 81 84 167 -14 q 0 314 0 175 q 90 553 0 461 q 311 642 172 642 q 534 549 448 642 l 542 549 q 754 642 627 642 q 941 553 872 642 q 999 372 999 475 l 999 357 l 618 357 m 863 414 q 848 512 867 467 q 746 585 821 585 q 616 414 623 585 l 863 414 m 311 585 q 142 313 142 585 q 168 134 142 193 q 311 42 206 42 q 456 138 418 42 q 477 313 477 195 q 475 399 477 386 q 311 585 459 585 z "},"Ŕ":{"ha":956,"x_min":0,"x_max":912,"o":"m 385 994 q 758 849 682 994 q 784 742 784 799 q 579 481 784 533 l 784 149 q 912 51 844 54 l 912 -3 l 724 -3 l 436 460 l 217 460 l 217 163 q 302 50 217 60 l 302 -3 l 0 -3 l 0 50 q 85 163 85 60 l 85 828 q 0 943 85 931 l 0 994 l 385 994 m 362 520 q 632 730 632 520 q 537 905 632 859 q 362 932 479 932 l 217 932 l 217 520 l 362 520 m 530 1248 l 532 1241 q 531 1222 532 1232 l 530 1217 l 525 1202 q 511 1174 520 1187 q 490 1150 501 1161 q 448 1119 479 1139 q 270 1067 373 1075 l 270 1114 q 369 1173 346 1152 q 397 1211 391 1194 q 406 1249 404 1227 q 428 1289 410 1274 q 470 1304 446 1304 q 503 1292 490 1301 q 511 1284 507 1289 q 517 1278 514 1282 q 530 1248 528 1265 z "},"ŕ":{"ha":519,"x_min":0,"x_max":441,"o":"m 198 627 l 198 527 l 199 527 q 358 640 273 640 q 441 566 441 640 q 382 504 441 504 q 327 527 347 504 q 296 548 315 548 q 231 491 261 548 q 198 340 198 429 l 198 164 q 270 51 198 55 l 270 -3 l 0 -3 l 0 50 q 73 164 73 58 l 73 493 q 1 574 73 559 l 1 627 l 198 627 m 429 860 l 430 853 q 429 834 430 844 l 428 829 l 423 814 q 409 786 418 800 q 388 762 399 773 q 346 731 377 751 q 168 679 271 687 l 168 726 q 267 785 244 764 q 296 823 290 806 q 304 861 302 840 q 326 901 308 886 q 368 916 344 916 q 401 904 389 913 q 409 897 405 901 q 415 890 412 894 q 429 860 427 878 z "},"Ŗ":{"ha":971,"x_min":0,"x_max":912,"o":"m 328 -319 q 425 -190 414 -247 l 424 -188 q 401 -188 414 -189 q 330 -111 330 -181 l 330 -107 q 412 -27 335 -27 q 505 -132 505 -27 q 361 -355 505 -263 l 328 -319 m 385 994 q 758 849 682 994 q 784 742 784 799 q 579 481 784 533 l 784 149 q 912 51 844 54 l 912 -3 l 724 -3 l 436 460 l 217 460 l 217 163 q 302 50 217 60 l 302 -3 l 0 -3 l 0 50 q 85 163 85 60 l 85 828 q 0 943 85 931 l 0 994 l 385 994 m 362 520 q 632 730 632 520 q 537 905 632 859 q 362 932 479 932 l 217 932 l 217 520 l 362 520 z "},"ŗ":{"ha":519,"x_min":0,"x_max":441,"o":"m 198 627 l 198 527 l 199 527 q 358 641 273 641 q 441 566 441 641 q 382 504 441 504 q 327 528 347 504 q 296 548 315 548 q 231 491 261 548 q 198 340 198 429 l 198 164 q 270 51 198 56 l 270 -3 l 0 -3 l 0 50 q 73 164 73 58 l 73 493 q 1 575 73 559 l 1 627 l 198 627 m 98 -359 q 208 -213 195 -279 l 206 -212 q 180 -212 196 -213 q 100 -127 100 -203 l 100 -121 q 195 -33 107 -33 q 300 -150 300 -33 q 135 -399 300 -298 l 98 -359 z "},"Ř":{"ha":956,"x_min":0,"x_max":912,"o":"m 385 994 q 758 849 682 994 q 784 742 784 799 q 579 481 784 533 l 784 149 q 912 51 844 54 l 912 -3 l 724 -3 l 436 460 l 217 460 l 217 163 q 302 50 217 60 l 302 -3 l 0 -3 l 0 50 q 85 163 85 60 l 85 828 q 0 943 85 931 l 0 994 l 385 994 m 362 520 q 632 730 632 520 q 537 905 632 859 q 362 932 479 932 l 217 932 l 217 520 l 362 520 m 378 1225 q 393 1243 382 1234 q 559 1312 456 1285 l 558 1282 q 418 1122 456 1212 q 408 1098 416 1109 q 380 1082 396 1082 q 351 1098 363 1082 q 343 1116 346 1106 q 201 1279 304 1208 l 201 1308 q 364 1240 304 1282 q 378 1225 370 1233 z "},"ř":{"ha":519,"x_min":0,"x_max":441,"o":"m 198 627 l 198 527 l 199 527 q 358 640 273 640 q 441 566 441 640 q 382 504 441 504 q 327 527 347 504 q 296 548 315 548 q 231 491 261 548 q 198 340 198 429 l 198 164 q 270 51 198 55 l 270 -3 l 0 -3 l 0 50 q 73 164 73 58 l 73 493 q 1 574 73 559 l 1 627 l 198 627 m 227 812 q 242 829 231 821 q 408 898 304 871 l 407 869 q 267 709 304 798 q 256 684 264 695 q 229 669 245 669 q 200 684 212 669 q 192 703 195 692 q 50 865 153 794 l 50 895 q 213 826 153 868 q 227 812 219 819 z "},"Ś":{"ha":779,"x_min":0,"x_max":699,"o":"m 578 739 q 324 958 495 958 q 191 911 242 958 q 139 799 139 867 q 349 614 139 675 q 501 565 446 589 q 699 294 699 480 q 606 79 699 168 q 382 -14 511 -14 q 225 7 296 -14 q 117 33 135 33 q 55 -3 68 33 l 0 -3 l 0 313 l 58 313 q 181 130 90 205 q 394 50 280 50 q 529 104 473 50 q 586 241 586 161 q 425 435 586 370 q 333 463 392 450 q 244 488 271 479 q 29 758 29 566 q 119 946 29 873 q 337 1019 204 1019 q 522 966 431 1019 q 565 952 550 952 q 601 973 578 952 l 643 973 l 643 739 l 578 739 m 530 1248 l 532 1241 q 531 1222 532 1232 l 530 1217 l 525 1202 q 511 1174 520 1187 q 490 1150 501 1161 q 448 1119 479 1139 q 270 1067 373 1075 l 270 1114 q 369 1173 346 1152 q 397 1211 391 1194 q 406 1249 404 1227 q 428 1289 410 1274 q 470 1304 446 1304 q 503 1292 490 1301 q 511 1284 507 1289 q 517 1278 514 1282 q 530 1248 528 1265 z "},"ś":{"ha":551,"x_min":0,"x_max":473,"o":"m 229 642 q 382 603 325 642 q 431 517 431 568 q 380 465 431 465 q 311 536 324 465 q 233 585 311 585 q 115 492 115 585 q 152 419 115 445 q 249 382 174 401 q 390 329 347 355 q 473 184 473 277 q 402 42 473 96 q 228 -14 332 -14 q 54 36 119 -14 q 0 134 0 80 q 68 205 0 205 q 134 149 134 205 q 130 125 134 141 q 127 103 127 111 q 146 65 127 81 q 227 42 174 42 q 325 76 288 42 q 354 146 354 104 q 254 245 354 210 q 94 310 123 289 q 21 449 21 361 q 81 591 21 536 q 229 642 138 642 m 390 860 l 391 853 q 391 834 391 844 l 389 829 l 385 814 q 370 786 380 800 q 350 762 361 773 q 307 731 338 751 q 130 679 233 687 l 130 726 q 228 785 205 764 q 257 823 251 806 q 266 861 263 840 q 287 901 269 886 q 330 916 305 916 q 362 904 350 913 q 370 897 366 901 q 376 890 374 894 q 390 860 388 878 z "},"Ŝ":{"ha":798,"x_min":0,"x_max":720,"o":"m 595 739 q 333 958 509 958 q 194 911 247 958 q 142 799 142 867 q 359 614 142 675 q 515 565 458 589 q 720 294 720 480 q 623 79 720 168 q 393 -14 526 -14 q 231 7 305 -14 q 121 33 138 33 q 58 -3 69 33 l 0 -3 l 0 313 l 59 313 q 188 130 92 205 q 405 50 288 50 q 545 104 486 50 q 603 241 603 161 q 437 435 603 370 q 342 463 403 450 q 252 488 279 479 q 31 758 31 566 q 121 946 31 873 q 346 1019 210 1019 q 538 966 443 1019 q 583 952 566 952 q 618 973 596 952 l 661 973 l 661 739 l 595 739 m 359 1162 q 346 1147 352 1154 q 182 1079 286 1105 l 183 1108 q 325 1271 286 1179 q 333 1289 328 1281 q 361 1305 345 1305 q 389 1289 378 1305 q 399 1265 397 1278 q 540 1105 437 1175 l 541 1076 q 375 1144 437 1102 q 359 1162 364 1153 z "},"ŝ":{"ha":551,"x_min":1,"x_max":473,"o":"m 229 642 q 382 603 327 642 q 432 517 432 568 q 380 465 432 465 q 312 536 325 465 q 233 585 312 585 q 116 492 116 585 q 153 419 116 445 q 250 382 174 401 q 391 329 348 355 q 473 184 473 277 q 403 42 473 96 q 229 -14 334 -14 q 56 36 119 -14 q 1 134 1 80 q 68 205 1 205 q 134 149 134 205 q 130 125 134 141 q 127 103 127 111 q 147 65 127 81 q 227 42 176 42 q 326 76 290 42 q 355 146 355 104 q 255 245 355 210 q 95 310 124 289 q 22 449 22 361 q 81 591 22 536 q 229 642 139 642 m 271 768 q 257 753 263 760 q 94 685 197 711 l 94 714 q 236 877 197 785 q 244 895 239 887 q 273 911 256 911 q 300 895 289 911 q 311 871 309 884 q 451 711 349 781 l 452 682 q 286 750 349 708 q 271 768 275 759 z "},"Ş":{"ha":798,"x_min":0,"x_max":720,"o":"m 267 19 q 189 38 232 27 q 121 52 144 52 q 58 18 69 52 l 0 18 l 0 330 l 59 330 q 202 136 95 214 q 405 67 295 67 q 545 123 486 67 q 603 257 603 178 q 338 479 603 412 q 31 770 31 557 q 121 957 31 884 q 346 1028 210 1028 q 496 996 420 1028 q 583 960 579 960 q 618 981 596 960 l 661 981 l 661 751 l 595 751 q 501 899 553 849 q 333 968 431 968 q 194 922 247 968 q 142 810 142 878 q 359 630 142 688 q 589 539 519 585 q 720 313 720 458 q 623 94 720 184 q 393 5 526 5 q 358 6 370 5 l 308 11 l 294 -43 l 294 -48 q 378 -32 332 -32 q 471 -44 430 -32 q 505 -98 505 -67 q 450 -186 505 -150 q 303 -235 375 -235 q 240 -212 240 -235 q 279 -190 240 -190 q 320 -204 314 -190 q 330 -208 322 -208 q 377 -180 350 -208 q 406 -119 406 -149 q 329 -71 406 -71 q 281 -81 299 -71 l 243 -79 l 267 19 z "},"ş":{"ha":551,"x_min":0,"x_max":473,"o":"m 155 -16 q 41 39 85 -2 q 0 125 0 78 q 68 197 0 197 q 134 142 134 197 q 130 119 134 133 q 127 94 127 103 q 146 57 127 74 q 227 35 174 35 q 325 68 289 35 q 354 139 354 96 q 317 212 354 194 q 176 263 317 212 q 21 441 21 314 q 85 583 21 531 q 239 634 144 634 q 386 593 330 634 q 431 510 431 557 q 380 458 431 458 q 311 529 324 458 q 233 577 311 577 q 115 484 115 577 q 166 400 115 427 q 292 364 184 393 q 473 178 473 313 q 393 28 473 83 q 235 -22 325 -24 l 197 -20 l 182 -77 l 182 -82 q 266 -66 220 -66 q 359 -78 318 -66 q 393 -132 393 -101 q 338 -220 393 -184 q 191 -269 263 -269 q 128 -245 128 -269 q 167 -224 128 -224 q 208 -238 202 -224 q 218 -242 210 -242 q 265 -214 238 -242 q 294 -153 294 -183 q 217 -105 294 -105 q 169 -115 187 -105 l 131 -113 l 155 -16 z "},"Š":{"ha":772,"x_min":0,"x_max":693,"o":"m 574 744 q 320 963 491 963 q 188 920 237 963 q 138 804 138 873 q 347 620 138 679 q 496 570 441 592 q 693 296 693 483 q 600 79 693 170 q 380 -14 507 -14 q 224 7 293 -14 q 115 33 134 33 q 55 -3 66 33 l 0 -3 l 0 315 l 58 315 q 180 130 90 208 q 390 50 276 50 q 525 106 468 50 q 582 241 582 163 q 421 437 582 372 q 330 467 388 452 q 243 491 268 481 q 29 762 29 568 q 117 951 29 878 q 334 1027 203 1027 q 517 975 428 1027 q 560 959 545 959 q 595 979 575 959 l 636 979 l 636 744 l 574 744 m 347 1225 q 362 1243 351 1234 q 528 1312 425 1285 l 527 1282 q 387 1122 425 1212 q 376 1098 385 1109 q 349 1082 365 1082 q 320 1098 332 1082 q 312 1116 315 1106 q 170 1279 273 1208 l 170 1308 q 333 1240 273 1282 q 347 1225 339 1233 z "},"š":{"ha":551,"x_min":1,"x_max":473,"o":"m 229 642 q 382 603 327 642 q 432 517 432 568 q 380 465 432 465 q 312 536 325 465 q 233 585 312 585 q 116 492 116 585 q 153 419 116 445 q 250 382 174 401 q 391 329 348 355 q 473 184 473 277 q 403 42 473 96 q 229 -14 334 -14 q 56 36 119 -14 q 1 134 1 80 q 68 205 1 205 q 134 149 134 205 q 130 125 134 141 q 127 103 127 111 q 147 65 127 81 q 227 42 176 42 q 326 76 290 42 q 355 146 355 104 q 255 245 355 210 q 95 310 124 289 q 22 449 22 361 q 81 591 22 536 q 229 642 139 642 m 233 812 q 248 830 237 821 q 414 899 311 872 l 413 869 q 273 709 311 799 q 262 685 271 696 q 235 669 251 669 q 206 685 218 669 q 198 703 201 693 q 56 866 159 795 l 56 895 q 219 827 159 869 q 233 812 225 820 z "},"Ţ":{"ha":1092,"x_min":0,"x_max":1014,"o":"m 435 0 l 345 0 l 345 52 q 437 163 437 64 l 437 923 l 222 923 q 59 800 87 923 l 0 800 l 0 995 l 1014 995 l 1014 800 l 954 800 q 922 878 953 845 q 790 923 878 923 l 577 923 l 577 163 q 667 52 577 62 l 667 0 l 478 0 l 464 -58 l 464 -62 q 547 -46 502 -46 q 640 -58 600 -46 q 674 -113 674 -81 q 619 -201 674 -164 q 473 -249 545 -249 q 410 -226 410 -249 q 448 -204 410 -204 q 490 -218 484 -204 q 500 -222 492 -222 q 547 -194 519 -222 q 575 -133 575 -163 q 498 -85 575 -85 q 450 -96 469 -85 l 412 -93 l 435 0 z "},"ţ":{"ha":471,"x_min":0,"x_max":390,"o":"m 138 3 q 71 157 71 36 l 71 574 l 0 574 l 0 631 l 71 631 l 71 772 l 195 840 l 195 631 l 330 631 l 330 574 l 195 574 l 195 161 q 270 74 195 74 q 359 109 315 74 l 390 72 q 245 -10 326 -1 l 178 -9 l 165 -60 l 165 -65 q 249 -49 203 -49 q 342 -61 301 -49 q 376 -115 376 -84 q 321 -203 376 -167 q 174 -252 246 -252 q 111 -229 111 -252 q 150 -207 111 -207 q 191 -221 185 -207 q 201 -225 193 -225 q 248 -197 221 -225 q 277 -136 277 -166 q 200 -88 277 -88 q 152 -98 170 -88 l 114 -96 l 138 3 z "},"Ť":{"ha":1010,"x_min":0,"x_max":1021,"o":"m 0 995 l 1021 995 l 1021 796 l 954 796 q 923 876 953 844 q 793 918 880 918 l 584 918 l 584 162 q 673 54 584 62 l 673 -5 l 345 -5 l 345 53 q 437 162 437 64 l 437 918 l 226 918 q 65 796 93 918 l 0 796 l 0 995 m 518 1219 q 534 1236 523 1227 q 699 1305 596 1278 l 699 1276 q 558 1116 596 1205 q 548 1091 556 1102 q 520 1076 536 1076 q 492 1091 503 1076 q 484 1109 486 1099 q 342 1272 445 1201 l 341 1301 q 505 1233 444 1275 q 518 1219 511 1226 z "},"ť":{"ha":451,"x_min":0,"x_max":450,"o":"m 71 629 l 71 768 l 195 838 l 195 629 l 330 629 l 330 572 l 195 572 l 195 158 q 270 71 195 71 q 359 108 315 71 l 390 69 q 217 -14 316 -14 q 71 154 71 -14 l 71 572 l 0 572 l 0 629 l 71 629 m 275 662 q 370 777 359 726 l 368 779 l 347 779 q 277 844 277 786 l 277 849 q 358 916 281 916 q 450 827 450 916 q 307 633 450 711 l 275 662 z "},"Ŧ":{"ha":1045,"x_min":0,"x_max":1021,"o":"m 584 529 l 802 529 l 802 454 l 584 454 l 584 162 q 673 54 584 62 l 673 -5 l 345 -5 l 345 53 q 437 162 437 64 l 437 454 l 218 454 l 218 529 l 437 529 l 437 918 l 226 918 q 65 796 93 918 l 0 796 l 0 995 l 1021 995 l 1021 796 l 954 796 q 923 876 953 844 q 793 918 880 918 l 584 918 l 584 529 z "},"ŧ":{"ha":465,"x_min":0,"x_max":390,"o":"m 71 410 l 1 410 l 1 465 l 71 465 l 71 572 l 0 572 l 0 629 l 71 629 l 71 768 l 195 838 l 195 629 l 330 629 l 330 572 l 195 572 l 195 465 l 332 465 l 332 410 l 195 410 l 195 158 q 270 71 195 71 q 359 108 315 71 l 390 69 q 217 -14 316 -14 q 71 154 71 -14 l 71 410 z "},"Ũ":{"ha":1124,"x_min":0,"x_max":1033,"o":"m 776 1266 q 627 1087 734 1087 q 530 1109 592 1087 l 519 1117 q 450 1134 469 1134 q 377 1087 409 1134 l 335 1087 q 482 1255 387 1255 q 578 1230 512 1255 q 663 1206 645 1206 q 732 1266 716 1206 l 776 1266 m 305 994 l 305 940 q 220 827 220 930 l 220 439 q 387 102 220 182 q 551 71 452 71 q 739 121 653 71 q 865 283 832 176 q 884 472 884 344 l 884 839 q 797 939 884 932 l 797 994 l 1033 994 l 1033 939 q 947 839 947 932 l 947 406 q 527 -14 947 -14 q 184 107 288 -14 q 85 445 85 217 l 85 827 q 0 939 85 931 l 0 994 l 305 994 z "},"ũ":{"ha":729,"x_min":0,"x_max":650,"o":"m 578 167 q 589 91 578 112 q 650 52 601 61 l 650 -2 l 452 -2 l 452 79 l 452 79 q 250 -14 363 -14 q 71 168 71 -14 l 71 493 q 0 576 71 576 l 0 629 l 195 629 l 195 187 q 288 60 195 60 q 452 166 383 60 l 452 494 q 381 576 452 568 l 381 629 l 578 629 l 578 167 m 513 916 q 378 761 475 761 q 289 783 345 761 l 279 787 q 217 802 235 802 q 151 761 180 802 l 114 761 q 246 906 160 906 q 334 886 274 906 q 411 864 395 864 q 473 916 459 864 l 513 916 z "},"Ū":{"ha":1099,"x_min":0,"x_max":1033,"o":"m 322 1164 l 728 1164 l 728 1091 l 322 1091 l 322 1164 m 305 994 l 305 940 q 220 827 220 930 l 220 439 q 387 102 220 182 q 551 71 452 71 q 739 121 653 71 q 865 283 832 176 q 884 472 884 344 l 884 839 q 797 939 884 932 l 797 994 l 1033 994 l 1033 939 q 947 839 947 932 l 947 406 q 527 -14 947 -14 q 184 107 288 -14 q 85 445 85 217 l 85 827 q 0 939 85 931 l 0 994 l 305 994 z "},"ū":{"ha":729,"x_min":0,"x_max":650,"o":"m 578 167 q 589 91 578 112 q 650 52 601 61 l 650 -2 l 452 -2 l 452 79 l 452 79 q 250 -14 363 -14 q 71 168 71 -14 l 71 493 q 0 576 71 576 l 0 629 l 195 629 l 195 187 q 288 60 195 60 q 452 166 383 60 l 452 494 q 381 576 452 568 l 381 629 l 578 629 l 578 167 m 553 906 l 553 813 l 98 813 l 98 906 l 553 906 z "},"Ŭ":{"ha":1099,"x_min":0,"x_max":1033,"o":"m 305 994 l 305 940 q 220 827 220 930 l 220 439 q 387 102 220 182 q 551 71 452 71 q 739 121 653 71 q 865 283 832 176 q 884 472 884 344 l 884 839 q 797 939 884 932 l 797 994 l 1033 994 l 1033 939 q 947 839 947 932 l 947 406 q 527 -14 947 -14 q 184 107 288 -14 q 85 445 85 217 l 85 827 q 0 939 85 931 l 0 994 l 305 994 m 727 1280 q 659 1131 723 1184 q 535 1090 608 1090 q 410 1131 463 1090 q 342 1280 347 1184 l 397 1280 q 440 1204 405 1234 q 535 1171 479 1171 q 631 1204 592 1171 q 675 1280 666 1234 l 727 1280 z "},"ŭ":{"ha":729,"x_min":0,"x_max":650,"o":"m 578 167 q 589 91 578 112 q 650 52 601 61 l 650 -2 l 452 -2 l 452 79 l 452 79 q 250 -14 363 -14 q 71 168 71 -14 l 71 493 q 0 576 71 576 l 0 629 l 195 629 l 195 187 q 288 60 195 60 q 452 166 383 60 l 452 494 q 381 576 452 568 l 381 629 l 578 629 l 578 167 m 505 879 q 437 730 500 783 q 313 689 386 689 q 187 730 240 689 q 120 879 124 783 l 175 879 q 218 804 182 833 q 313 770 256 770 q 408 804 370 770 q 452 879 444 833 l 505 879 z "},"Ů":{"ha":1090,"x_min":0,"x_max":1033,"o":"m 305 994 l 305 940 q 220 827 220 930 l 220 439 q 387 102 220 182 q 551 71 452 71 q 739 121 653 71 q 865 283 832 176 q 884 472 884 344 l 884 839 q 797 939 884 932 l 797 994 l 1033 994 l 1033 939 q 947 839 947 932 l 947 406 q 527 -14 947 -14 q 184 107 288 -14 q 85 445 85 217 l 85 827 q 0 939 85 931 l 0 994 l 305 994 m 465 1203 q 503 1293 465 1259 q 578 1322 536 1322 q 652 1293 617 1322 q 688 1203 688 1259 q 656 1118 688 1152 q 578 1084 625 1084 q 498 1118 530 1084 q 465 1203 465 1152 m 510 1203 q 531 1151 510 1173 q 578 1131 551 1131 q 625 1152 604 1131 q 645 1203 645 1174 q 625 1253 645 1230 q 578 1275 606 1275 q 530 1254 551 1275 q 510 1203 510 1233 z "},"ů":{"ha":729,"x_min":0,"x_max":650,"o":"m 578 167 q 589 91 578 112 q 650 52 601 61 l 650 -2 l 452 -2 l 452 79 l 452 79 q 250 -14 363 -14 q 71 168 71 -14 l 71 493 q 0 576 71 576 l 0 629 l 195 629 l 195 187 q 288 60 195 60 q 452 166 383 60 l 452 494 q 381 576 452 568 l 381 629 l 578 629 l 578 167 m 184 790 q 222 880 184 846 q 297 909 255 909 q 371 880 336 909 q 407 790 407 846 q 376 705 407 739 q 297 671 345 671 q 218 705 249 671 q 184 790 184 739 m 229 790 q 250 738 229 760 q 297 718 271 718 q 344 739 323 718 q 364 790 364 761 q 345 840 364 817 q 297 862 325 862 q 249 841 270 862 q 229 790 229 820 z "},"Ű":{"ha":1118,"x_min":0,"x_max":1033,"o":"m 305 994 l 305 940 q 220 827 220 930 l 220 439 q 387 102 220 182 q 551 71 452 71 q 739 121 653 71 q 865 283 832 176 q 884 472 884 344 l 884 839 q 797 939 884 932 l 797 994 l 1033 994 l 1033 939 q 947 839 947 932 l 947 406 q 527 -14 947 -14 q 184 107 288 -14 q 85 445 85 217 l 85 827 q 0 939 85 931 l 0 994 l 305 994 m 606 1254 l 608 1247 q 607 1228 608 1238 l 606 1223 l 601 1208 q 587 1180 596 1194 q 566 1156 577 1167 q 524 1125 555 1145 q 346 1073 449 1081 l 346 1120 q 445 1179 422 1158 q 473 1217 467 1200 q 482 1255 479 1234 q 504 1295 486 1280 q 546 1310 522 1310 q 578 1298 566 1307 q 587 1291 583 1295 q 593 1284 590 1288 q 606 1254 604 1272 m 842 1248 l 844 1241 q 843 1222 844 1232 l 842 1217 l 837 1202 q 823 1174 832 1187 q 802 1150 813 1161 q 760 1119 791 1139 q 582 1067 685 1075 l 582 1114 q 681 1173 658 1152 q 709 1211 703 1194 q 718 1249 715 1227 q 740 1289 722 1274 q 782 1304 758 1304 q 814 1292 802 1301 q 823 1284 819 1289 q 829 1278 826 1282 q 842 1248 840 1265 z "},"ű":{"ha":744,"x_min":0,"x_max":650,"o":"m 578 167 q 589 91 578 112 q 650 52 602 61 l 650 -2 l 452 -2 l 452 79 l 453 79 q 250 -14 363 -14 q 71 168 71 -14 l 71 493 q 0 576 71 576 l 0 629 l 197 629 l 197 187 q 288 60 197 60 q 452 166 383 60 l 452 494 q 381 576 452 568 l 381 629 l 578 629 l 578 167 m 377 873 l 378 866 q 378 847 378 857 l 376 842 l 372 827 q 357 799 367 812 q 337 775 348 786 q 294 744 326 764 q 117 692 220 700 l 117 739 q 215 798 193 777 q 244 836 238 819 q 253 873 250 852 q 274 914 256 899 q 317 929 292 929 q 349 917 337 926 q 357 909 353 914 q 363 903 361 907 q 377 873 375 890 m 588 861 l 589 854 q 589 835 589 844 l 587 829 l 583 814 q 568 787 578 800 q 548 763 559 774 q 505 732 536 752 q 328 680 431 688 l 328 726 q 426 785 404 764 q 455 823 449 806 q 464 861 461 840 q 485 902 467 887 q 528 917 503 917 q 560 905 548 913 q 568 897 564 902 q 574 890 572 895 q 588 861 586 878 z "},"Ų":{"ha":1112,"x_min":0,"x_max":1033,"o":"m 305 993 l 305 940 q 220 829 220 930 l 220 442 q 387 104 220 183 q 551 75 451 75 q 739 121 653 75 q 865 283 832 177 q 884 474 884 347 l 884 840 q 797 939 884 932 l 797 993 l 1033 993 l 1033 939 q 947 840 947 932 l 947 407 q 789 56 947 156 q 648 -1 739 23 q 542 -41 583 -21 q 463 -142 463 -86 q 536 -200 463 -200 q 644 -155 595 -200 l 671 -184 q 492 -271 576 -271 q 402 -242 437 -271 q 367 -171 367 -213 q 398 -86 367 -125 q 525 -7 433 -45 l 525 -7 q 140 164 241 -12 q 85 446 85 263 l 85 829 q 0 939 85 932 l 0 993 l 305 993 z "},"ų":{"ha":801,"x_min":0,"x_max":722,"o":"m 578 165 q 589 90 578 109 q 650 50 601 60 l 650 -2 q 532 -127 528 -68 q 597 -181 534 -181 q 707 -140 652 -181 l 722 -165 q 556 -246 652 -246 q 473 -214 503 -246 q 445 -144 445 -186 q 570 -3 445 -63 l 452 -3 l 452 76 l 452 76 q 241 -16 365 -16 q 92 60 130 -16 q 71 192 71 104 l 71 490 q 0 573 71 573 l 0 627 l 195 627 l 195 186 q 288 59 195 59 q 452 165 383 59 l 452 493 q 381 574 452 566 l 381 627 l 578 627 l 578 165 z "},"Ŵ":{"ha":1381,"x_min":12,"x_max":1459,"o":"m 1459 938 q 1345 816 1396 934 l 976 -16 l 926 -16 l 745 434 l 549 -16 l 496 -16 l 136 842 q 12 938 98 937 l 12 996 l 346 996 l 346 938 q 276 887 276 938 q 296 820 276 869 l 561 186 l 704 522 l 560 857 q 458 938 528 932 l 458 996 l 1029 996 l 1029 939 q 910 817 956 928 l 818 603 l 993 185 l 1257 802 q 1280 880 1280 855 q 1257 927 1280 911 q 1205 937 1230 935 l 1205 996 l 1459 996 l 1459 938 m 849 857 q 861 904 861 884 q 811 938 861 938 l 779 938 q 717 932 734 938 q 698 899 698 924 q 716 844 698 890 l 779 694 l 849 857 m 754 1164 q 743 1152 749 1159 q 577 1069 680 1096 l 578 1099 q 720 1261 681 1170 q 728 1280 722 1272 q 756 1295 739 1295 q 784 1280 772 1295 q 794 1255 792 1269 q 935 1095 832 1166 l 935 1066 q 770 1149 832 1093 q 754 1164 761 1158 z "},"ŵ":{"ha":1019,"x_min":0,"x_max":940,"o":"m 940 574 q 861 502 890 572 l 633 -14 l 583 -14 l 472 251 l 469 251 l 346 -14 l 298 -14 l 77 522 q 0 574 54 578 l 0 627 l 231 627 l 231 574 q 195 555 195 578 q 202 528 195 541 l 357 148 l 359 148 l 441 319 l 354 519 q 293 574 331 574 l 293 627 l 665 627 l 665 574 q 586 495 618 570 l 530 379 l 631 141 l 632 141 l 788 502 q 804 546 804 530 q 752 574 804 578 l 752 627 l 940 627 l 940 574 m 545 545 q 557 578 557 573 q 546 585 557 585 l 475 585 q 450 574 450 585 l 461 544 l 502 449 l 500 449 l 545 545 m 481 781 q 467 766 473 773 q 304 698 407 724 l 304 727 q 446 890 408 798 q 454 908 449 900 q 483 924 466 924 q 511 908 499 924 q 521 884 519 897 q 661 724 559 794 l 662 694 q 496 763 559 721 q 481 781 486 772 z "},"Ŷ":{"ha":825,"x_min":-6,"x_max":967,"o":"m 334 996 l 334 941 q 283 901 283 931 q 300 859 283 880 l 534 538 l 537 538 l 735 846 q 764 907 764 890 q 711 940 764 940 l 711 996 l 967 996 l 967 940 q 797 819 873 941 l 563 453 l 563 163 q 646 52 563 61 l 646 -5 l 344 -5 l 344 52 q 428 163 428 62 l 428 460 l 161 823 q -6 941 81 930 l -6 996 l 334 996 m 487 1166 q 475 1154 481 1160 q 310 1071 413 1097 l 311 1100 q 452 1263 414 1171 q 460 1281 455 1273 q 489 1297 472 1297 q 517 1281 505 1297 q 527 1257 525 1270 q 667 1097 565 1167 l 668 1067 q 503 1150 565 1094 q 487 1166 494 1159 z "},"ŷ":{"ha":770,"x_min":0,"x_max":692,"o":"m 378 762 q 365 747 371 754 q 201 679 304 705 l 202 708 q 344 871 305 779 q 352 889 347 881 q 380 905 363 905 q 408 889 397 905 q 418 865 416 878 q 559 705 456 775 l 559 675 q 394 744 456 702 q 378 762 383 753 m 692 574 q 595 479 633 561 l 340 -79 q 252 -233 290 -189 q 121 -292 197 -292 q 5 -203 5 -292 q 68 -132 5 -132 q 121 -150 95 -132 q 171 -172 146 -172 q 257 -95 224 -172 l 304 7 l 116 479 q 0 573 75 563 l 0 627 l 304 627 l 304 573 l 284 573 q 240 536 240 573 q 256 487 240 520 l 379 178 l 381 178 l 509 460 q 529 528 529 517 q 466 573 507 572 l 466 627 l 692 627 l 692 574 z "},"Ÿ":{"ha":1037,"x_min":-3,"x_max":970,"o":"m 313 1221 q 335 1276 313 1251 q 395 1305 357 1305 q 452 1280 429 1305 q 477 1221 477 1255 q 449 1157 477 1181 q 395 1135 422 1135 q 338 1160 363 1135 q 313 1221 313 1187 m 576 1221 q 600 1276 576 1251 q 659 1305 621 1305 q 716 1280 694 1305 q 741 1221 741 1255 q 713 1157 741 1181 q 659 1135 686 1135 q 602 1160 627 1135 q 576 1221 576 1187 m 336 996 l 336 941 q 286 901 286 931 q 302 859 286 880 l 537 538 l 540 538 l 738 846 q 767 907 767 890 q 714 940 767 940 l 714 996 l 970 996 l 970 940 q 800 819 876 941 l 566 453 l 566 163 q 648 52 566 61 l 648 -5 l 347 -5 l 347 52 q 431 163 431 62 l 431 460 l 163 823 q -3 941 84 930 l -3 996 l 336 996 z "},"Ź":{"ha":976,"x_min":-3,"x_max":949,"o":"m 51 996 l 905 996 l 905 943 l 186 61 l 718 61 q 887 184 865 61 l 949 184 l 949 -5 l -3 -5 l -3 55 l 713 930 l 300 930 q 113 804 137 930 l 51 804 l 51 996 m 677 1254 l 678 1247 q 677 1228 678 1238 l 676 1223 l 671 1208 q 657 1180 667 1194 q 636 1156 648 1167 q 594 1125 625 1145 q 416 1073 519 1081 l 416 1120 q 515 1179 492 1158 q 544 1217 538 1200 q 553 1255 550 1234 q 574 1295 556 1280 q 616 1310 592 1310 q 649 1298 637 1307 q 657 1291 653 1295 q 663 1284 661 1288 q 677 1254 675 1272 z "},"ź":{"ha":644,"x_min":0,"x_max":565,"o":"m 31 627 l 533 627 l 533 592 l 174 64 l 176 58 l 374 58 q 513 146 490 54 l 565 146 l 565 -3 l 0 -3 l 0 45 l 364 570 l 224 570 q 83 487 95 570 l 31 487 l 31 627 m 429 860 l 430 853 q 429 834 430 844 l 428 829 l 423 814 q 409 786 418 800 q 388 762 399 773 q 346 731 377 751 q 168 679 271 687 l 168 726 q 267 785 244 764 q 296 823 290 806 q 304 861 302 840 q 326 901 308 886 q 368 916 344 916 q 401 904 389 913 q 409 897 405 901 q 415 890 412 894 q 429 860 427 878 z "},"Ż":{"ha":951,"x_min":-3,"x_max":949,"o":"m 355 1174 q 384 1241 355 1214 q 448 1270 411 1270 q 515 1241 487 1270 q 541 1174 541 1214 q 515 1103 541 1132 q 448 1073 487 1073 q 384 1103 411 1073 q 355 1174 355 1132 m 51 996 l 905 996 l 905 943 l 186 61 l 718 61 q 887 184 865 61 l 949 184 l 949 -5 l -3 -5 l -3 55 l 713 930 l 300 930 q 113 804 137 930 l 51 804 l 51 996 z "},"ż":{"ha":644,"x_min":0,"x_max":565,"o":"m 226 829 q 248 886 226 863 q 306 911 272 911 q 363 886 340 911 q 387 829 387 863 q 363 771 387 795 q 306 748 340 748 q 248 772 272 748 q 226 829 226 795 m 31 627 l 533 627 l 533 592 l 174 64 l 176 58 l 374 58 q 513 146 490 54 l 565 146 l 565 -3 l 0 -3 l 0 45 l 364 570 l 224 570 q 83 487 95 570 l 31 487 l 31 627 z "},"Ž":{"ha":956,"x_min":-3,"x_max":949,"o":"m 51 996 l 905 996 l 905 943 l 186 61 l 718 61 q 887 184 865 61 l 949 184 l 949 -5 l -3 -5 l -3 55 l 713 930 l 300 930 q 113 804 137 930 l 51 804 l 51 996 m 499 1219 q 515 1237 504 1228 q 680 1305 577 1279 l 680 1276 q 539 1116 577 1206 q 529 1092 537 1103 q 501 1076 517 1076 q 473 1092 484 1076 q 465 1110 467 1100 q 323 1273 426 1202 l 322 1302 q 486 1234 425 1276 q 499 1219 492 1227 z "},"ž":{"ha":644,"x_min":0,"x_max":565,"o":"m 31 627 l 533 627 l 533 592 l 174 64 l 176 58 l 374 58 q 513 146 490 54 l 565 146 l 565 -3 l 0 -3 l 0 45 l 364 570 l 224 570 q 83 487 95 570 l 31 487 l 31 627 m 309 825 q 324 842 313 833 q 490 911 387 884 l 489 882 q 349 722 387 811 q 338 697 347 708 q 311 682 327 682 q 282 697 294 682 q 274 715 277 705 q 132 878 235 807 l 132 907 q 295 839 235 881 q 309 825 301 832 z "},"ſ":{"ha":483,"x_min":0,"x_max":401,"o":"m 79 656 q 147 833 86 764 q 309 919 224 919 q 376 897 351 919 q 401 847 401 877 q 347 788 401 788 q 292 817 316 788 q 256 833 276 833 q 201 730 201 833 l 203 165 q 286 52 203 43 l 286 -3 l 0 -3 l 0 50 q 66 88 53 58 q 79 165 79 109 l 79 656 z "},"ƒ":{"ha":702,"x_min":0,"x_max":623,"o":"m 507 522 l 389 522 l 329 264 q 227 -45 275 37 q 83 -134 172 -134 q 0 -65 0 -134 q 58 -3 0 -3 q 111 -56 111 -3 q 110 -66 111 -63 l 109 -71 q 121 -79 109 -79 q 170 -5 155 -79 q 180 61 175 20 l 186 120 q 240 370 191 152 l 273 522 l 137 522 l 149 572 q 278 602 243 576 q 340 709 313 629 l 364 795 q 397 891 380 853 q 538 995 446 995 q 600 979 576 995 q 623 937 623 960 q 565 866 623 866 q 511 913 511 866 l 512 932 q 502 940 512 940 q 452 845 469 940 q 404 572 426 677 l 520 572 l 507 522 z "},"Ǻ":{"ha":930,"x_min":0,"x_max":1080,"o":"m 664 1400 l 665 1394 q 665 1375 665 1384 l 663 1369 l 659 1354 q 644 1327 654 1340 q 624 1303 635 1314 q 581 1272 612 1292 q 404 1219 507 1227 l 404 1266 q 502 1325 479 1304 q 531 1363 525 1346 q 540 1401 537 1380 q 561 1442 543 1427 q 604 1457 579 1457 q 636 1444 624 1453 q 644 1437 640 1442 q 650 1430 648 1434 q 664 1400 662 1418 m 968 155 q 1080 52 1014 54 l 1080 -3 l 784 -3 l 784 52 q 829 68 819 58 q 835 103 835 77 q 823 143 835 113 l 766 269 l 254 269 l 195 149 q 180 102 180 113 q 237 52 180 62 l 237 -3 l 0 -3 l 0 52 q 117 151 74 55 l 451 840 q 463 872 463 865 q 428 890 463 890 l 428 945 q 532 1006 492 957 l 567 1006 l 968 155 m 523 797 l 511 797 l 286 331 l 741 331 l 523 797 m 420 1120 q 458 1211 420 1177 q 532 1239 490 1239 q 606 1211 572 1239 q 642 1120 642 1177 q 611 1035 642 1069 q 532 1001 580 1001 q 453 1035 484 1001 q 420 1120 420 1069 m 465 1120 q 486 1068 465 1090 q 532 1048 506 1048 q 579 1069 559 1048 q 600 1120 600 1091 q 580 1171 600 1147 q 532 1192 560 1192 q 484 1171 505 1192 q 465 1120 465 1150 z "},"ǻ":{"ha":668,"x_min":0,"x_max":599,"o":"m 416 1120 l 417 1114 q 416 1095 417 1104 l 415 1089 l 410 1074 q 396 1047 406 1060 q 375 1023 387 1034 q 333 991 364 1012 q 155 939 258 947 l 155 986 q 254 1045 231 1024 q 283 1083 277 1066 q 292 1121 289 1100 q 313 1162 295 1147 q 355 1177 331 1177 q 388 1164 376 1173 q 396 1157 392 1162 q 402 1150 399 1154 q 416 1120 414 1138 m 367 332 q 134 168 134 319 q 165 94 134 123 q 242 68 195 68 q 349 136 319 68 q 367 279 367 181 l 367 332 m 384 81 q 192 -3 300 -3 q 50 46 101 -3 q 0 165 0 91 q 367 389 0 368 q 346 522 367 481 q 252 574 322 574 q 174 526 193 574 q 157 479 159 481 q 111 458 143 458 q 56 507 56 458 q 110 587 56 552 q 265 630 170 630 q 461 535 411 630 q 491 358 491 477 l 491 163 q 555 68 491 68 q 585 79 565 68 l 599 56 q 492 -3 557 -3 q 384 81 409 -3 m 146 796 q 184 886 146 852 q 259 915 217 915 q 333 886 298 915 q 369 796 369 852 q 338 711 369 745 q 259 677 307 677 q 180 711 211 677 q 146 796 146 745 m 191 796 q 212 744 191 766 q 259 724 233 724 q 306 745 286 724 q 326 796 326 767 q 307 846 326 823 q 259 868 287 868 q 211 847 232 868 q 191 796 191 826 z "},"Ǽ":{"ha":1615,"x_min":0,"x_max":1515,"o":"m 375 293 l 257 146 q 210 78 210 87 q 269 51 210 56 l 269 -3 l 0 -3 l 0 52 q 216 208 93 51 l 688 798 q 741 892 741 863 q 690 928 741 928 l 677 928 l 677 994 l 1391 994 l 1391 800 l 1337 800 q 1257 901 1316 874 q 1116 921 1211 921 l 887 921 l 887 526 l 1036 526 q 1103 536 1081 526 q 1149 606 1137 551 l 1202 606 l 1202 386 l 1149 386 q 1109 456 1137 442 q 1036 465 1090 465 l 887 465 l 887 59 l 1190 59 q 1386 94 1326 59 q 1461 213 1438 127 l 1515 213 l 1500 -3 l 673 -3 l 673 51 q 759 161 759 59 l 759 293 l 375 293 m 759 353 l 759 774 l 755 774 l 425 357 l 425 353 l 759 353 m 1160 1261 l 1161 1254 q 1160 1235 1161 1244 l 1159 1230 l 1154 1215 q 1140 1187 1149 1200 q 1119 1163 1131 1174 q 1077 1132 1108 1152 q 899 1080 1002 1088 l 899 1126 q 998 1185 975 1164 q 1027 1223 1021 1206 q 1036 1261 1033 1240 q 1057 1302 1039 1287 q 1099 1317 1075 1317 q 1132 1305 1120 1314 q 1140 1297 1136 1302 q 1146 1291 1143 1295 q 1160 1261 1158 1278 z "},"ǽ":{"ha":1109,"x_min":66,"x_max":958,"o":"m 556 359 l 556 272 q 724 59 564 59 q 922 158 825 59 l 958 126 q 701 -14 832 -14 q 481 75 556 -14 l 477 75 q 252 -14 387 -14 q 110 43 160 -14 q 66 161 66 90 q 430 392 66 369 l 430 431 q 317 585 430 585 q 240 534 258 585 q 178 463 229 463 q 123 522 123 463 q 185 607 123 573 q 332 642 243 642 q 509 573 447 642 l 510 573 q 694 642 577 642 q 879 555 810 642 q 941 359 943 476 l 556 359 m 430 333 q 201 164 201 319 q 292 59 201 69 q 394 99 358 50 q 430 243 430 146 l 430 333 m 805 417 q 789 513 807 469 q 688 585 762 585 q 556 417 566 585 l 805 417 m 689 879 l 690 872 q 690 853 690 863 l 688 848 l 684 833 q 669 805 679 819 q 649 781 660 792 q 606 750 637 770 q 429 698 532 706 l 429 745 q 527 804 505 783 q 556 842 550 825 q 565 880 562 859 q 586 920 568 905 q 629 935 604 935 q 661 923 649 932 q 669 916 665 920 q 675 909 673 913 q 689 879 687 897 z "},"Ǿ":{"ha":979,"x_min":74,"x_max":1102,"o":"m 589 1019 q 936 866 808 1019 l 1052 976 l 1102 917 l 985 806 q 1073 509 1073 667 q 951 165 1073 311 q 589 -3 813 -3 q 258 133 395 -3 l 122 5 l 74 61 l 210 187 q 109 509 109 328 q 233 852 109 701 q 589 1019 369 1019 m 591 956 q 313 785 408 956 q 250 505 250 675 q 292 267 250 380 l 858 798 q 591 956 762 956 m 329 199 q 589 59 427 59 q 867 229 770 59 q 930 505 930 338 q 895 722 930 634 l 329 199 m 779 1267 l 780 1260 q 779 1241 780 1251 l 778 1236 l 773 1221 q 759 1193 768 1206 q 738 1169 749 1180 q 696 1138 727 1158 q 518 1086 621 1094 l 518 1133 q 617 1192 594 1171 q 646 1230 640 1213 q 654 1267 652 1246 q 676 1308 658 1293 q 718 1323 694 1323 q 751 1311 739 1320 q 759 1303 755 1308 q 765 1297 762 1301 q 779 1267 777 1284 z "},"ǿ":{"ha":762,"x_min":73,"x_max":759,"o":"m 103 43 l 73 87 l 149 143 q 108 314 108 212 q 183 536 108 446 q 418 642 270 642 q 671 512 590 642 l 728 552 l 759 511 l 697 464 q 729 314 729 399 q 650 84 729 175 q 418 -14 563 -14 q 178 98 259 -14 l 103 43 m 576 444 q 418 585 547 585 q 250 313 250 585 q 254 217 250 250 l 576 444 m 267 160 q 418 42 304 42 q 522 74 489 42 q 586 313 586 135 q 583 383 586 339 l 267 160 m 556 861 l 557 854 q 557 835 557 844 l 555 829 l 551 814 q 536 787 546 800 q 516 763 527 774 q 473 732 505 752 q 296 680 399 688 l 296 726 q 394 785 372 764 q 423 823 417 806 q 432 861 429 840 q 453 902 435 887 q 496 917 471 917 q 528 905 516 913 q 536 897 532 902 q 543 890 540 895 q 556 861 554 878 z "},"Ș":{"ha":758,"x_min":0,"x_max":680,"o":"m 562 739 q 315 951 480 951 q 183 910 233 951 q 135 796 135 865 q 338 617 135 676 q 485 568 432 591 q 680 301 680 484 q 587 88 680 179 q 371 -3 497 -3 q 219 19 288 -3 q 114 45 131 45 q 54 9 66 45 l 0 9 l 0 320 l 55 320 q 176 140 89 214 q 382 60 272 60 q 513 115 459 60 q 570 250 570 171 q 412 440 570 374 q 324 467 380 454 q 238 492 262 483 q 29 757 29 570 q 115 941 29 870 q 327 1013 198 1013 q 507 962 419 1013 q 550 947 534 947 q 585 966 563 947 l 624 966 l 624 739 l 562 739 m 262 -304 q 360 -179 349 -234 l 359 -176 q 335 -176 351 -177 q 264 -102 264 -169 l 264 -97 q 349 -20 271 -20 q 444 -122 444 -20 q 296 -340 444 -251 l 262 -304 z "},"ș":{"ha":551,"x_min":0,"x_max":473,"o":"m 229 623 q 382 585 326 623 q 431 503 431 551 q 380 454 431 454 q 311 521 324 454 q 233 569 311 569 q 115 479 115 569 q 152 411 115 435 q 249 376 174 393 q 390 325 347 349 q 473 186 473 274 q 402 50 473 102 q 228 -3 332 -3 q 54 45 119 -3 q 0 138 0 85 q 68 206 0 206 q 134 153 134 206 q 130 130 134 145 q 127 109 127 115 q 146 72 127 88 q 227 51 174 51 q 325 83 289 51 q 354 150 354 111 q 254 244 354 210 q 94 306 123 286 q 21 437 21 353 q 81 575 21 523 q 229 623 138 623 m 174 -318 q 268 -191 256 -248 l 267 -189 q 243 -189 256 -190 q 176 -115 176 -182 l 176 -109 q 255 -33 180 -33 q 344 -135 344 -33 q 205 -353 344 -264 l 174 -318 z "},"ˆ":{"ha":517,"x_min":49,"x_max":407,"o":"m 226 774 q 214 762 220 768 q 49 679 152 705 l 50 708 q 191 871 153 779 q 199 889 194 881 q 228 905 211 905 q 256 889 244 905 q 266 865 264 878 q 406 705 304 775 l 407 675 q 241 758 304 702 q 226 774 233 767 z "},"ˇ":{"ha":517,"x_min":49,"x_max":407,"o":"m 226 806 q 241 823 233 814 q 407 905 304 879 l 406 876 q 266 716 304 806 q 256 692 264 702 q 228 675 244 675 q 199 692 211 675 q 191 709 194 700 q 50 872 153 801 l 49 901 q 214 819 152 875 q 226 806 220 812 z "},"ˉ":{"ha":660,"x_min":138,"x_max":528,"o":"m 528 838 l 138 838 l 138 927 l 528 927 l 528 838 z "},"˘":{"ha":498,"x_min":87,"x_max":437,"o":"m 135 868 q 175 795 137 826 q 262 765 214 765 q 345 792 310 765 q 390 868 385 821 l 437 868 q 399 754 433 801 q 266 694 351 694 q 128 756 174 694 q 87 868 92 802 l 135 868 z "},"˙":{"ha":245,"x_min":-9,"x_max":143,"o":"m 27 718 q -3 765 2 735 q 7 817 -9 792 q 52 846 23 840 q 107 836 81 852 q 137 787 131 817 q 127 736 143 762 q 81 706 111 713 q 27 718 51 701 z "},"˚":{"ha":355,"x_min":0,"x_max":277,"o":"m 0 842 q 46 951 0 908 q 139 987 87 987 q 231 951 191 987 q 277 842 277 908 q 237 737 277 778 q 139 695 199 695 q 39 738 79 695 q 0 842 0 778 m 54 842 q 81 778 54 804 q 139 752 106 752 q 197 778 172 752 q 223 842 223 806 q 199 902 223 875 q 139 930 175 930 q 80 904 105 930 q 54 842 54 876 z "},"˛":{"ha":344,"x_min":0,"x_max":266,"o":"m 205 42 q 117 -22 157 16 q 83 -93 82 -56 q 146 -146 87 -146 q 248 -105 198 -146 l 266 -131 q 106 -212 197 -212 q 28 -180 56 -212 q 0 -110 0 -151 q 142 42 0 -34 l 205 42 z "},"˜":{"ha":578,"x_min":31,"x_max":431,"o":"m 431 883 q 296 728 392 728 q 206 750 262 728 l 196 754 q 134 770 153 770 q 68 728 98 770 l 31 728 q 163 873 77 873 q 252 853 191 873 q 328 831 312 831 q 391 883 376 831 l 431 883 z "},"˝":{"ha":570,"x_min":66,"x_max":596,"o":"m 332 810 q 327 804 332 810 q 289 774 321 798 q 66 694 205 720 l 66 722 q 258 882 206 792 q 269 899 262 891 q 307 915 285 915 q 345 899 330 915 q 361 861 361 884 q 350 832 357 844 q 332 810 342 821 m 567 816 q 562 810 567 816 q 524 781 557 804 q 301 700 440 726 l 302 728 q 493 888 441 798 q 505 905 497 897 q 543 921 520 921 q 581 905 565 921 q 596 867 596 890 q 585 839 592 850 q 567 816 578 827 z "},"΄":{"ha":401,"x_min":79,"x_max":341,"o":"m 340 873 l 341 866 q 340 847 341 857 l 339 842 l 334 827 q 320 799 330 812 q 299 775 311 786 q 257 744 288 764 q 79 692 182 700 l 79 739 q 178 798 155 777 q 207 836 201 819 q 216 873 213 852 q 237 914 219 899 q 279 929 255 929 q 312 917 300 926 q 320 909 316 914 q 326 903 323 907 q 340 873 338 890 z "},"΅":{"ha":762,"x_min":178,"x_max":590,"o":"m 178 946 q 197 1002 178 985 q 243 1019 216 1019 q 268 1014 256 1019 q 289 1001 280 1010 q 303 979 298 992 q 309 946 309 965 q 289 890 309 908 q 243 873 269 873 q 197 891 216 873 q 178 946 178 909 m 459 946 q 478 1002 459 985 q 524 1019 498 1019 q 549 1014 537 1019 q 570 1001 561 1010 q 585 979 579 992 q 590 946 590 965 q 570 890 590 908 q 524 873 550 873 q 478 891 497 873 q 459 946 459 909 m 334 960 q 349 1005 341 979 q 365 1059 357 1031 q 379 1115 373 1087 q 388 1167 385 1142 l 513 1167 l 513 1150 q 495 1105 509 1133 q 461 1047 481 1077 q 421 988 442 1017 q 382 939 401 960 l 334 939 l 334 960 z "},"Ά":{"ha":1064,"x_min":0,"x_max":975,"o":"m 181 705 l 127 705 l 90 1004 l 218 1004 l 181 705 m 876 155 q 975 52 916 55 l 975 -3 l 706 -3 l 706 52 q 746 70 738 57 q 754 104 754 79 q 743 145 754 116 l 691 273 l 230 273 l 178 151 q 161 103 161 116 q 214 52 161 64 l 214 -3 l 0 -3 l 0 52 q 106 152 66 58 l 406 850 q 419 885 419 878 q 387 902 419 902 l 387 957 q 484 1020 444 974 l 513 1020 l 876 155 m 469 801 l 456 801 l 256 337 l 663 337 l 469 801 z "},"·":{"ha":252,"x_min":0,"x_max":173,"o":"m 87 572 q 148 546 122 572 q 173 481 173 519 q 148 416 173 441 q 87 390 123 390 q 25 416 51 390 q 0 481 0 441 q 27 546 0 519 q 87 572 54 572 z "},"Έ":{"ha":1071,"x_min":0,"x_max":1067,"o":"m 98 711 l 39 711 l 0 1009 l 138 1009 l 98 711 m 971 1001 l 977 810 l 913 810 q 827 910 891 883 q 679 929 778 929 l 404 929 l 404 537 l 589 537 q 711 615 694 537 l 773 615 l 773 395 l 711 395 q 665 465 692 451 q 589 471 650 471 l 404 471 l 404 67 l 712 67 q 1000 221 987 67 l 1067 221 l 1050 1 l 165 1 l 165 58 q 258 168 258 68 l 258 827 q 165 935 258 933 l 167 1001 l 971 1001 z "},"Ή":{"ha":1198,"x_min":0,"x_max":1119,"o":"m 448 971 q 367 856 367 962 l 367 556 l 913 556 l 913 856 q 831 971 913 960 l 831 1025 l 1119 1025 l 1119 971 q 1039 856 1039 962 l 1039 174 q 1119 58 1039 68 l 1119 3 l 831 3 l 831 58 q 913 174 913 69 l 913 492 l 367 492 l 367 174 q 448 58 367 68 l 448 3 l 160 3 l 160 58 q 241 174 241 68 l 241 856 q 160 971 241 962 l 160 1025 l 448 1025 l 448 971 m 92 723 l 38 723 l 0 1024 l 130 1024 l 92 723 z "},"Ί":{"ha":578,"x_min":0,"x_max":499,"o":"m 499 959 q 408 844 408 952 l 408 167 q 499 52 408 62 l 499 -3 l 178 -3 l 178 52 q 269 167 269 62 l 269 844 q 178 959 269 951 l 178 1016 l 499 1016 l 499 959 m 104 719 l 44 719 l 0 1020 l 146 1020 l 104 719 z "},"Ό":{"ha":1252,"x_min":0,"x_max":1105,"o":"m 98 699 l 39 699 l 0 999 l 138 999 l 98 699 m 618 1019 q 981 852 842 1019 q 1105 509 1105 703 q 981 162 1105 310 q 618 -3 842 -3 q 257 162 395 -3 q 132 509 132 310 q 257 852 132 703 q 618 1019 395 1019 m 616 958 q 374 840 470 958 q 271 510 271 717 q 374 176 271 297 q 616 58 470 58 q 858 176 762 58 q 960 510 960 297 q 858 840 960 717 q 616 958 762 958 z "},"Ύ":{"ha":1232,"x_min":0,"x_max":1154,"o":"m 508 1013 l 508 957 q 456 918 456 950 q 473 874 456 897 l 718 548 l 721 548 l 926 862 q 954 922 954 907 q 900 956 954 956 l 900 1013 l 1154 1013 l 1154 956 q 980 836 1060 958 l 743 465 l 743 172 q 827 58 743 68 l 827 3 l 526 3 l 526 58 q 611 172 611 69 l 611 471 l 340 840 q 169 956 258 948 l 169 1013 l 508 1013 m 98 713 l 39 713 l 0 1013 l 138 1013 l 98 713 z "},"Ώ":{"ha":1145,"x_min":0,"x_max":1067,"o":"m 103 234 l 136 234 q 164 160 139 181 q 242 140 189 140 l 427 140 l 425 182 q 227 314 317 207 q 137 585 137 421 q 263 892 137 765 q 589 1020 389 1020 q 909 900 785 1020 q 1033 590 1033 779 q 957 331 1033 438 q 749 182 881 224 l 745 140 l 930 140 q 1013 165 991 140 q 1034 234 1034 191 l 1067 234 l 1067 -3 l 677 -3 l 694 224 q 871 571 871 283 q 785 860 871 760 q 585 960 699 960 q 385 853 466 960 q 304 582 304 747 q 340 362 304 460 q 477 224 376 264 l 492 -3 l 103 -3 l 103 234 m 91 708 l 38 708 l 0 1010 l 130 1010 l 91 708 z "},"ΐ":{"ha":629,"x_min":0,"x_max":551,"o":"m 512 5 q 444 -9 476 -2 q 361 -17 412 -17 q 259 19 295 -17 q 223 122 223 56 l 224 492 q 215 527 224 511 q 189 554 205 543 q 151 565 176 560 q 102 570 125 570 l 102 618 l 351 633 l 364 623 l 364 132 q 389 72 364 94 q 463 51 414 51 q 485 52 473 51 q 512 54 496 54 l 512 5 m 371 1015 q 338 913 355 972 q 299 760 321 855 l 252 760 q 211 915 229 849 q 178 1015 193 980 l 178 1031 l 371 1031 l 371 1015 m 551 854 q 526 797 551 821 q 464 773 501 773 q 403 797 427 773 q 379 854 379 821 q 403 912 379 889 q 464 935 427 935 q 526 912 501 935 q 551 854 551 890 m 172 854 q 148 797 172 821 q 87 773 123 773 q 25 797 51 773 q 0 854 0 820 q 26 912 0 890 q 87 935 52 935 q 148 912 123 935 q 172 854 172 889 z "},"Α":{"ha":1064,"x_min":0,"x_max":982,"o":"m 882 155 q 982 54 922 57 l 982 -5 l 706 -5 l 706 53 q 746 71 739 58 q 754 104 754 80 q 743 145 754 116 l 692 271 l 236 271 l 185 150 q 168 103 168 116 q 221 53 168 65 l 221 -5 l 0 -5 l 0 54 q 106 153 66 60 l 406 851 q 419 885 419 878 q 387 900 419 900 l 387 958 q 486 1022 444 975 l 519 1022 l 882 155 m 469 799 l 463 799 l 264 339 l 663 339 l 469 799 z "},"Β":{"ha":934,"x_min":0,"x_max":862,"o":"m 426 995 q 795 817 728 995 q 810 741 810 779 q 799 671 810 709 q 631 520 752 547 l 616 516 l 637 508 q 828 383 766 489 q 862 262 862 326 q 723 45 862 115 q 504 -5 627 -5 l 0 -5 l 0 54 q 92 163 92 57 l 92 826 q 0 935 92 933 l 0 995 l 426 995 m 407 536 q 635 663 593 536 q 644 739 644 692 q 631 802 644 768 q 387 928 585 928 l 239 928 l 239 536 l 407 536 m 439 61 q 596 93 529 61 q 694 262 694 142 q 621 417 694 363 q 426 469 551 469 l 239 469 l 239 61 l 439 61 z "},"Γ":{"ha":834,"x_min":0,"x_max":784,"o":"m 307 -5 l 0 -5 l 0 51 q 84 163 84 60 l 84 825 q 0 937 84 928 l 0 995 l 784 995 l 784 750 l 723 750 q 661 874 709 825 q 522 928 604 928 l 221 928 l 221 163 q 307 51 221 60 l 307 -5 z "},"Δ":{"ha":917,"x_min":0,"x_max":850,"o":"m 0 -5 l 389 1021 l 418 1021 l 850 -5 l 0 -5 m 660 69 l 391 764 l 130 69 l 660 69 z "},"Ε":{"ha":917,"x_min":0,"x_max":901,"o":"m 806 995 l 812 804 l 748 804 q 662 904 726 877 q 513 923 612 923 l 238 923 l 238 531 l 424 531 q 545 609 529 531 l 608 609 l 608 389 l 545 389 q 499 459 526 445 q 424 465 484 465 l 238 465 l 238 61 l 547 61 q 835 215 822 61 l 901 215 l 884 -5 l 0 -5 l 0 52 q 92 161 92 62 l 92 821 q 0 928 92 927 l 1 995 l 806 995 z "},"Ζ":{"ha":1010,"x_min":0,"x_max":953,"o":"m 54 996 l 909 996 l 909 943 l 190 61 l 721 61 q 890 184 869 61 l 953 184 l 953 -5 l 0 -5 l 0 55 l 717 930 l 304 930 q 117 804 140 930 l 54 804 l 54 996 z "},"Η":{"ha":1035,"x_min":0,"x_max":994,"o":"m 301 938 q 218 827 218 930 l 218 539 l 773 539 l 773 827 q 691 939 773 928 l 691 996 l 994 996 l 994 938 q 909 827 909 930 l 909 162 q 994 52 909 61 l 994 -5 l 691 -5 l 691 52 q 773 162 773 62 l 773 471 l 218 471 l 218 162 q 301 53 218 61 l 301 -5 l 0 -5 l 0 53 q 84 162 84 61 l 84 827 q 0 938 84 930 l 0 996 l 301 996 l 301 938 z "},"Θ":{"ha":1055,"x_min":0,"x_max":988,"o":"m 495 1018 q 863 851 722 1018 q 988 503 988 699 q 863 151 988 302 q 495 -16 722 -16 q 127 151 267 -16 q 0 503 0 302 q 127 851 0 699 q 495 1018 267 1018 m 495 953 q 253 836 349 953 q 149 503 149 711 q 253 165 149 292 q 495 52 349 52 q 736 165 640 52 q 840 503 840 292 q 736 836 840 711 q 495 953 640 953 m 714 360 l 654 360 q 641 399 647 382 q 624 429 635 415 q 585 443 616 439 q 491 446 553 446 q 395 443 425 446 q 357 429 366 439 q 341 398 347 412 q 328 360 334 384 l 268 360 l 268 626 l 328 626 q 341 585 334 598 q 357 558 347 572 q 395 545 364 549 q 491 542 426 542 q 584 545 551 542 q 624 558 618 549 q 638 583 632 570 q 654 626 645 597 l 714 626 l 714 360 z "},"Ι":{"ha":399,"x_min":0,"x_max":328,"o":"m 328 937 q 237 828 237 931 l 237 165 q 328 55 237 65 l 328 -3 l 0 -3 l 0 55 q 91 165 91 65 l 91 828 q 0 937 91 930 l 0 997 l 328 997 l 328 937 z "},"Κ":{"ha":1045,"x_min":0,"x_max":973,"o":"m 298 1017 l 298 957 q 216 844 216 949 l 216 540 l 216 540 l 590 859 q 635 925 635 899 q 598 957 635 957 l 582 957 l 582 1017 l 888 1017 l 888 958 q 688 846 787 932 l 403 606 l 807 157 q 973 53 892 66 l 973 -5 l 602 -5 l 602 54 l 619 54 q 663 93 663 54 q 633 151 663 116 l 300 519 l 216 448 l 216 165 q 298 53 216 62 l 298 -5 l 0 -5 l 0 53 q 83 165 83 64 l 83 844 q 0 957 83 949 l 0 1017 l 298 1017 z "},"Λ":{"ha":1104,"x_min":0,"x_max":1032,"o":"m 926 155 q 1032 54 970 56 l 1032 -5 l 743 -5 l 743 53 q 787 69 779 60 q 794 103 794 78 q 500 779 794 113 l 498 780 q 199 104 205 138 q 233 53 179 64 l 233 -5 l 0 -5 l 0 54 q 111 151 73 57 l 428 840 q 441 872 441 865 q 406 888 441 888 l 406 946 q 509 1008 468 958 l 546 1008 l 926 155 z "},"Μ":{"ha":1298,"x_min":0,"x_max":1226,"o":"m 610 192 l 605 192 l 951 996 l 1226 996 l 1226 938 q 1139 829 1139 930 l 1139 161 q 1226 54 1139 60 l 1226 -5 l 911 -5 l 911 54 q 999 161 999 60 l 999 937 l 1008 937 l 597 -16 l 539 -16 l 149 937 l 159 937 l 159 161 q 245 54 159 60 l 245 -5 l 0 -5 l 0 54 q 88 161 88 62 l 88 857 q 0 938 88 935 l 0 996 l 279 996 l 610 192 z "},"Ν":{"ha":1050,"x_min":0,"x_max":958,"o":"m 0 52 q 66 82 41 60 q 84 151 84 111 l 84 823 q 0 938 84 935 l 0 996 l 212 996 l 793 258 l 806 242 l 806 830 q 723 939 806 928 l 723 996 l 958 996 l 958 939 q 889 901 907 927 q 875 830 875 880 l 875 -5 l 823 -5 l 150 849 l 153 849 l 153 151 q 237 53 153 53 l 237 -5 l 0 -5 l 0 52 z "},"Ξ":{"ha":902,"x_min":0,"x_max":833,"o":"m 810 753 l 753 753 q 731 802 741 772 q 711 853 721 832 q 676 887 694 873 q 623 901 658 901 q 507 903 555 903 q 413 904 458 904 q 300 903 349 904 q 208 901 251 901 q 163 890 184 901 q 124 853 142 880 q 101 803 111 831 q 83 753 90 774 l 21 753 l 39 1017 l 792 1017 l 810 753 m 640 368 l 581 368 q 567 409 574 391 q 551 437 560 427 q 511 451 543 448 q 416 454 479 454 q 320 451 351 454 q 281 437 290 448 q 264 408 271 422 q 252 368 258 393 l 191 368 l 191 637 l 252 637 q 264 596 258 609 q 281 568 271 583 q 320 555 288 558 q 416 551 353 551 q 511 555 477 551 q 551 568 545 558 q 566 594 559 579 q 581 637 574 609 l 640 637 l 640 368 m 833 277 l 799 -9 l 35 -9 l 0 277 l 61 277 q 82 223 72 246 q 111 171 93 200 q 150 131 127 147 q 201 115 173 115 q 306 114 254 115 q 413 113 358 113 q 515 113 466 113 q 630 115 565 114 q 683 130 661 115 q 724 171 705 144 q 753 227 743 200 q 771 277 764 254 l 833 277 z "},"Ο":{"ha":1104,"x_min":0,"x_max":1032,"o":"m 516 1009 q 901 843 753 1009 q 1032 502 1032 696 q 901 159 1032 306 q 516 -5 753 -5 q 133 159 279 -5 q 0 502 0 306 q 133 843 0 696 q 516 1009 279 1009 m 516 939 q 264 824 364 939 q 156 498 156 702 q 264 169 156 289 q 516 54 364 54 q 768 169 668 54 q 876 498 876 289 q 768 824 876 702 q 516 939 668 939 z "},"Π":{"ha":1050,"x_min":0,"x_max":979,"o":"m 979 995 l 979 940 q 897 827 897 930 l 897 162 q 979 52 897 61 l 979 -5 l 680 -5 l 680 52 q 764 162 764 61 l 764 911 l 217 911 l 217 161 q 297 52 215 61 l 297 -5 l 0 -5 l 0 52 q 82 162 82 61 l 82 827 q 0 940 82 930 l 0 995 l 979 995 z "},"Ρ":{"ha":924,"x_min":0,"x_max":853,"o":"m 0 54 q 90 172 90 59 l 90 696 q 248 960 90 879 q 477 1007 347 1007 q 712 935 605 1007 q 853 653 853 839 q 754 415 853 515 q 450 301 642 301 q 229 380 316 301 l 230 372 l 230 176 q 248 83 230 111 q 325 54 267 54 l 325 -5 l 0 -5 l 0 54 m 230 472 q 449 366 307 366 q 653 463 597 366 q 690 653 690 526 q 656 836 690 775 q 450 943 601 943 q 291 888 353 943 q 230 757 230 835 l 230 472 z "},"Σ":{"ha":914,"x_min":0,"x_max":842,"o":"m 842 322 l 808 -5 l 0 -5 l 0 28 l 401 481 l 10 991 l 10 1022 l 779 1022 l 779 742 l 715 742 q 654 878 696 815 q 568 947 612 940 q 510 954 548 950 q 448 957 471 957 l 204 957 l 530 511 l 170 98 l 652 98 q 700 148 689 127 q 728 197 710 168 q 755 257 743 225 q 780 322 768 288 l 842 322 z "},"Τ":{"ha":1115,"x_min":0,"x_max":1021,"o":"m 0 995 l 1021 995 l 1021 796 l 954 796 q 923 876 953 844 q 793 918 880 918 l 584 918 l 584 162 q 673 54 584 62 l 673 -5 l 345 -5 l 345 53 q 437 162 437 64 l 437 918 l 226 918 q 65 796 93 918 l 0 796 l 0 995 z "},"Υ":{"ha":1025,"x_min":0,"x_max":953,"o":"m 332 1023 l 332 966 q 283 926 283 957 q 299 882 283 903 l 530 551 l 531 551 l 725 869 q 754 930 754 913 q 703 964 754 964 l 703 1023 l 953 1023 l 953 964 q 788 839 860 964 l 557 463 l 557 164 q 639 50 557 61 l 639 -8 l 342 -8 l 342 50 q 425 164 425 61 l 425 471 l 161 844 q 0 966 86 954 l 0 1023 l 332 1023 z "},"Φ":{"ha":1318,"x_min":0,"x_max":1246,"o":"m 783 995 l 783 937 q 694 826 694 928 l 694 762 l 686 762 q 925 894 768 894 q 1158 769 1065 894 q 1246 479 1246 649 q 1141 194 1246 300 q 918 96 1048 96 q 684 237 777 96 l 694 237 l 694 162 q 783 53 694 61 l 783 -5 l 463 -5 l 463 53 q 553 162 553 61 l 553 237 l 562 237 q 329 96 471 96 q 104 194 199 96 q 0 479 0 300 q 89 769 0 649 q 321 894 180 894 q 553 776 480 894 l 553 764 l 553 826 q 463 937 553 928 l 463 995 l 783 995 m 694 475 q 776 214 694 290 q 892 172 823 172 q 1017 229 966 172 q 1088 485 1088 309 q 887 817 1088 817 q 760 762 814 817 q 694 556 694 693 l 694 475 m 553 556 q 489 761 553 691 q 359 817 435 817 q 160 485 160 817 q 231 229 160 308 q 355 172 281 172 q 489 233 435 172 q 553 475 553 313 l 553 556 z "},"Χ":{"ha":1055,"x_min":0,"x_max":979,"o":"m 950 938 q 804 845 870 930 l 554 539 l 807 174 q 979 52 882 68 l 979 -5 l 659 -5 l 659 53 l 677 53 q 701 79 701 53 q 677 136 701 102 l 466 436 l 224 130 q 202 81 202 103 q 235 53 202 53 l 252 53 l 252 -5 l 0 -5 l 0 53 q 136 135 79 61 l 427 494 l 214 799 q 61 938 119 938 l 37 938 l 37 996 l 347 996 l 347 938 q 313 920 313 938 q 326 869 313 884 l 515 594 l 720 856 q 743 905 743 886 q 703 938 743 938 l 703 996 l 950 996 l 950 938 z "},"Ψ":{"ha":1108,"x_min":0,"x_max":1036,"o":"m 590 488 q 724 519 677 488 q 788 599 770 551 q 810 758 805 647 q 864 949 813 887 q 1036 1012 915 1012 l 1036 972 q 980 943 994 970 q 966 820 966 917 q 938 601 966 678 q 823 474 909 523 q 590 420 736 426 l 590 194 q 598 85 590 109 q 637 47 607 62 q 734 33 667 33 l 734 -5 l 300 -5 l 300 33 q 396 48 367 34 q 435 84 425 62 q 445 194 445 107 l 445 420 q 214 474 298 426 q 100 599 129 522 q 71 821 71 677 q 58 941 71 914 q 0 972 45 968 l 0 1012 q 125 987 81 1010 q 196 907 169 964 q 227 758 224 850 q 247 599 230 647 q 312 519 263 551 q 445 488 361 488 l 445 800 q 436 911 445 887 q 397 948 427 935 q 300 963 368 962 l 300 1001 l 734 1001 l 734 963 q 636 948 665 962 q 598 911 607 935 q 590 800 590 887 l 590 488 z "},"Ω":{"ha":1126,"x_min":0,"x_max":1055,"o":"m 0 232 l 41 232 q 69 160 44 179 q 155 140 94 140 l 351 140 l 350 179 q 135 309 234 203 q 37 579 37 416 q 174 889 37 762 q 532 1017 311 1017 q 883 896 747 1017 q 1019 587 1019 775 q 935 328 1019 434 q 710 179 851 221 l 703 140 l 903 140 q 991 166 970 140 q 1013 232 1011 191 l 1055 232 l 1055 -5 l 625 -5 l 644 224 q 835 568 835 282 q 743 852 835 755 q 527 950 650 950 q 312 846 398 950 q 225 579 225 741 q 263 361 225 458 q 415 224 301 264 l 429 -5 l 0 -5 l 0 232 z "},"Ϊ":{"ha":509,"x_min":30,"x_max":458,"o":"m 30 1171 q 52 1227 30 1202 q 113 1255 74 1255 q 169 1232 147 1255 q 193 1171 193 1206 q 165 1107 193 1132 q 113 1086 140 1086 q 56 1111 81 1086 q 30 1171 30 1138 m 294 1171 q 316 1227 294 1202 q 376 1255 338 1255 q 433 1231 410 1255 q 458 1171 458 1206 q 430 1107 458 1132 q 376 1086 404 1086 q 319 1111 345 1086 q 294 1171 294 1138 m 394 932 q 303 821 303 924 l 303 156 q 394 45 303 56 l 394 -12 l 66 -12 l 66 45 q 157 156 157 56 l 157 821 q 66 932 157 924 l 66 990 l 394 990 l 394 932 z "},"Ϋ":{"ha":1150,"x_min":0,"x_max":1078,"o":"m 714 1029 l 1078 1029 l 1078 989 l 1053 989 q 1000 972 1036 989 q 934 924 964 956 q 861 819 903 893 l 615 433 l 615 176 q 635 62 615 84 q 721 33 661 33 l 759 33 l 759 -5 l 317 -5 l 317 33 l 359 33 q 444 71 420 33 q 460 176 460 94 l 460 417 l 184 846 q 118 940 134 921 q 47 984 101 958 q 0 989 35 989 l 0 1029 l 446 1029 l 446 989 l 416 989 q 356 974 383 989 q 329 929 329 960 q 374 833 329 903 l 580 511 l 770 819 q 816 922 816 888 q 806 958 816 943 q 778 981 796 972 q 714 989 760 989 l 714 1029 m 696 1263 q 758 1237 732 1263 q 784 1177 784 1210 q 758 1115 784 1141 q 696 1088 732 1088 q 633 1115 659 1088 q 608 1177 608 1141 q 633 1237 608 1210 q 696 1263 659 1263 m 432 1263 q 496 1237 471 1263 q 521 1177 521 1210 q 496 1115 521 1141 q 432 1088 471 1088 q 372 1115 397 1088 q 347 1177 347 1141 q 371 1237 347 1210 q 432 1263 396 1263 z "},"ά":{"ha":722,"x_min":0,"x_max":643,"o":"m 517 639 l 551 626 q 532 456 532 546 l 532 143 q 597 54 532 54 l 643 54 l 643 -3 l 438 -3 l 425 115 q 239 -13 359 -13 q 70 77 140 -13 q 0 315 0 168 q 76 550 0 461 q 252 638 152 638 q 437 514 374 638 q 517 639 475 574 m 265 577 q 128 334 128 577 q 167 115 128 174 q 265 55 206 55 q 380 126 336 55 q 425 323 425 198 q 381 506 425 435 q 265 577 337 577 m 411 1013 q 376 913 393 972 q 337 759 359 855 l 290 759 q 249 914 268 848 q 216 1013 231 980 l 216 1031 l 411 1031 l 411 1013 z "},"έ":{"ha":572,"x_min":0,"x_max":495,"o":"m 148 319 q 12 457 12 343 q 78 584 12 538 q 252 630 144 630 q 420 579 359 630 q 480 467 480 528 q 459 405 480 431 q 409 380 439 380 q 357 400 378 380 q 335 452 335 421 q 353 498 335 476 q 368 525 368 517 q 334 563 368 548 q 262 577 301 577 q 164 544 199 577 q 130 458 130 511 q 157 383 130 415 q 279 351 184 351 l 279 295 q 123 164 123 295 q 165 78 123 106 q 273 50 208 50 q 454 161 387 50 l 495 142 q 248 -6 424 -6 q 68 37 136 -6 q 0 161 0 80 q 148 319 0 282 m 358 1012 q 323 912 340 970 q 284 759 307 854 l 239 759 q 196 912 215 846 q 165 1012 178 979 l 165 1029 l 358 1029 l 358 1012 z "},"ή":{"ha":777,"x_min":0,"x_max":698,"o":"m 0 655 l 195 663 q 210 541 207 609 q 416 667 281 667 q 553 606 507 667 q 598 447 598 544 l 598 -106 q 613 -154 598 -142 q 654 -166 627 -166 l 698 -166 l 698 -222 l 392 -222 l 392 -166 l 422 -166 q 491 -113 491 -166 l 491 404 q 368 588 491 588 q 256 530 302 588 q 211 375 211 471 l 211 146 q 227 99 211 109 q 270 88 243 88 l 314 88 l 314 33 l 5 33 l 5 88 l 49 88 q 104 131 104 88 l 104 529 q 33 600 104 600 l 0 600 l 0 655 m 452 1055 q 418 955 435 1013 q 378 801 401 897 l 332 801 q 290 955 309 890 q 258 1055 272 1020 l 258 1072 l 452 1072 l 452 1055 z "},"ί":{"ha":509,"x_min":0,"x_max":430,"o":"m 0 570 l 0 627 l 235 635 l 235 179 q 300 59 235 59 q 381 239 376 59 l 430 239 q 410 103 429 159 q 361 17 392 47 q 270 -13 330 -13 q 178 10 210 -13 q 135 69 146 33 q 124 182 124 105 l 124 498 q 50 570 124 570 l 0 570 m 297 1013 q 264 913 281 972 q 225 759 247 855 l 177 759 q 137 914 156 848 q 104 1013 119 980 l 104 1031 l 297 1031 l 297 1013 z "},"ΰ":{"ha":695,"x_min":0,"x_max":616,"o":"m 0 565 l 0 620 l 212 629 l 212 252 q 257 82 212 116 q 361 48 302 48 q 471 92 436 48 q 507 260 507 136 l 507 507 q 484 550 507 537 q 400 565 461 564 l 400 620 l 616 629 l 616 244 q 550 50 616 106 q 365 -6 484 -6 q 165 53 227 -6 q 104 244 104 113 l 104 507 q 82 550 104 537 q 0 565 60 564 m 255 829 q 234 781 255 803 q 187 759 212 759 q 140 781 159 759 q 120 829 120 803 q 140 878 120 859 q 187 898 159 898 q 233 879 212 898 q 255 829 255 859 m 586 829 q 565 781 586 803 q 518 759 545 759 q 471 781 490 759 q 451 829 451 803 q 471 878 451 859 q 518 898 492 898 q 565 878 545 898 q 586 829 586 859 m 452 1010 q 419 911 436 969 q 380 759 402 854 l 333 759 q 293 912 311 846 q 260 1010 275 977 l 260 1028 l 452 1028 l 452 1010 z "},"α":{"ha":703,"x_min":0,"x_max":624,"o":"m 500 630 l 533 616 q 517 447 517 536 l 517 139 q 583 52 517 52 l 624 52 l 624 -3 l 427 -3 l 414 113 q 233 -13 350 -13 q 68 77 136 -13 q 0 311 0 166 q 74 541 0 453 q 243 629 149 629 q 425 505 363 629 q 500 630 462 566 m 259 568 q 124 329 124 568 q 163 112 124 170 q 259 54 201 54 q 371 124 327 54 q 414 319 414 195 q 372 497 414 427 q 259 568 330 568 z "},"β":{"ha":648,"x_min":0,"x_max":568,"o":"m 31 -12 l 0 -1 q 19 178 19 89 l 19 828 q 84 1052 19 966 q 270 1138 149 1138 q 459 1063 393 1138 q 524 892 524 989 q 487 756 524 817 q 395 669 450 694 q 518 560 468 646 q 568 355 568 474 q 487 81 568 182 q 298 -19 406 -19 q 106 113 162 -19 q 31 -12 89 51 m 135 599 q 194 659 161 640 q 298 686 227 677 q 385 738 363 692 q 408 857 408 784 q 273 1055 408 1055 q 135 838 135 1055 l 135 599 m 291 42 q 442 361 442 42 q 291 622 442 622 q 171 548 212 622 q 130 351 130 474 q 170 132 130 222 q 291 42 210 42 z "},"γ":{"ha":723,"x_min":0,"x_max":644,"o":"m 395 98 l 395 -160 q 409 -209 395 -197 q 449 -220 422 -220 l 494 -220 l 494 -281 l 189 -281 l 189 -220 l 222 -220 q 290 -165 290 -220 l 290 62 l 109 512 q 72 576 90 557 q 0 595 54 595 l 0 656 l 186 656 q 212 543 192 602 l 365 157 l 475 475 q 490 541 490 519 q 473 580 490 566 q 406 595 457 594 l 406 656 l 644 656 l 644 595 q 584 576 605 595 q 541 491 562 556 l 395 98 z "},"δ":{"ha":620,"x_min":0,"x_max":541,"o":"m 207 624 q 43 810 43 681 q 114 951 43 897 q 298 1006 185 1006 q 454 970 391 1006 q 516 867 516 934 q 453 785 516 785 q 405 805 421 785 q 388 850 388 824 q 401 894 388 873 q 408 908 408 902 q 376 944 408 931 q 302 958 345 958 q 185 915 225 958 q 145 810 145 872 q 179 723 145 752 q 322 649 212 693 q 448 581 403 618 q 517 476 494 544 q 541 321 541 409 q 459 82 541 168 q 267 -3 377 -3 q 77 87 154 -3 q 0 322 0 178 q 207 624 0 555 m 422 325 q 382 526 422 463 q 273 589 342 589 q 164 519 202 589 q 127 319 127 448 q 166 112 127 180 q 273 43 205 43 q 422 325 422 43 z "},"ε":{"ha":574,"x_min":0,"x_max":496,"o":"m 150 320 q 15 457 15 342 q 80 583 15 536 q 252 629 145 629 q 421 578 361 629 q 481 467 481 528 q 460 405 481 431 q 409 378 439 378 q 357 400 380 378 q 335 450 335 421 q 353 499 335 477 q 368 525 368 519 q 334 563 368 547 q 262 578 300 578 q 165 546 200 578 q 130 457 130 513 q 157 384 130 416 q 283 351 184 351 l 283 296 q 123 168 123 296 q 165 79 123 108 q 273 51 208 51 q 456 168 389 51 l 496 142 q 248 -3 424 -3 q 68 40 136 -3 q 0 164 0 84 q 150 320 0 283 z "},"ζ":{"ha":595,"x_min":0,"x_max":516,"o":"m 45 836 l 57 949 q 191 935 144 935 l 495 935 l 495 902 q 392 779 477 877 q 179 481 241 600 q 117 272 117 362 q 152 186 117 216 q 275 123 187 157 q 431 63 391 81 q 493 10 470 44 q 516 -74 516 -24 q 459 -215 516 -155 q 287 -274 401 -274 q 104 -232 163 -274 q 46 -125 46 -189 q 66 -62 46 -88 q 122 -35 86 -35 q 184 -92 184 -35 q 165 -136 184 -115 q 155 -157 155 -147 q 188 -203 155 -178 q 281 -227 220 -227 q 382 -187 351 -227 q 414 -96 414 -147 q 388 -36 414 -56 q 260 19 361 -16 q 45 135 91 77 q 0 256 0 194 q 40 415 0 337 q 179 610 80 494 q 400 845 277 726 l 200 845 q 45 836 117 845 z "},"η":{"ha":823,"x_min":0,"x_max":745,"o":"m 0 621 l 208 629 q 225 507 222 573 q 444 633 300 633 q 590 571 542 633 q 637 414 637 509 l 637 -138 q 653 -183 637 -172 q 699 -195 669 -195 l 745 -195 l 745 -251 l 418 -251 l 418 -195 l 453 -195 q 525 -142 525 -195 l 525 372 q 393 553 525 553 q 274 495 321 553 q 226 343 226 436 l 226 115 q 243 68 226 79 q 288 58 260 58 l 333 58 l 333 1 l 5 1 l 5 58 l 52 58 q 113 100 113 58 l 113 496 q 36 566 113 566 l 0 566 l 0 621 z "},"θ":{"ha":696,"x_min":0,"x_max":618,"o":"m 303 1019 q 472 954 398 1019 q 582 774 547 890 q 618 498 618 659 q 530 115 618 254 q 311 -23 443 -23 q 156 34 227 -23 q 43 210 85 91 q 0 497 0 328 q 45 791 0 670 q 156 966 90 913 q 303 1019 222 1019 m 134 556 l 487 556 q 436 867 482 774 q 308 960 391 960 q 184 881 231 960 q 134 556 138 801 m 487 483 l 134 483 q 182 126 135 217 q 306 35 229 35 q 443 138 398 35 q 487 483 487 241 z "},"ι":{"ha":547,"x_min":0,"x_max":469,"o":"m 0 565 l 0 620 l 258 629 l 258 186 q 327 68 258 68 q 417 243 409 68 l 469 243 q 447 111 467 166 q 392 26 426 55 q 294 -3 358 -3 q 195 19 230 -3 q 149 76 160 41 q 137 187 137 111 l 137 497 q 56 565 137 565 l 0 565 z "},"κ":{"ha":795,"x_min":0,"x_max":717,"o":"m 0 623 l 231 630 l 231 321 l 418 490 q 445 533 445 515 q 350 568 445 565 l 350 623 l 671 623 l 671 568 q 527 519 575 564 l 394 396 l 613 80 q 680 54 631 54 l 717 54 l 717 -3 l 387 -3 l 387 54 l 420 54 q 479 74 479 54 q 473 88 479 80 l 315 320 l 231 245 l 231 90 q 288 54 231 54 l 332 54 l 332 -3 l 7 -3 l 7 54 l 64 54 q 123 100 123 54 l 123 490 q 47 568 123 568 l 0 568 l 0 623 z "},"λ":{"ha":806,"x_min":0,"x_max":727,"o":"m 307 566 l 222 789 q 170 894 187 874 q 108 913 152 913 l 60 913 l 60 967 l 273 980 l 635 98 q 727 52 654 54 l 727 -3 l 408 -3 l 408 52 q 484 61 465 54 q 503 86 503 68 q 496 112 503 94 l 344 490 l 199 162 q 177 98 177 117 q 275 52 177 62 l 275 -3 l 0 -3 l 0 52 q 73 73 47 55 q 123 151 98 91 l 307 566 z "},"μ":{"ha":852,"x_min":0,"x_max":774,"o":"m 0 549 l 0 608 l 230 618 l 230 200 q 270 83 230 121 q 363 45 309 45 q 491 106 440 45 q 543 254 543 168 l 543 488 q 429 549 543 549 l 429 608 l 656 618 l 656 122 q 672 52 656 73 q 732 31 687 31 l 774 31 l 774 -26 l 554 -26 l 543 93 q 429 -2 492 29 q 319 -34 366 -34 q 229 -4 268 -34 l 229 -164 q 245 -213 229 -201 q 291 -224 261 -224 l 339 -224 l 339 -281 l 1 -281 l 1 -224 l 36 -224 q 111 -172 111 -224 l 111 471 q 90 533 111 517 q 0 549 68 548 z "},"ν":{"ha":740,"x_min":0,"x_max":661,"o":"m 0 627 l 181 627 q 210 515 186 574 l 361 165 l 498 502 q 503 518 503 512 q 413 572 503 562 l 413 627 l 661 627 l 661 572 q 568 513 590 566 l 354 -3 l 317 -3 l 85 526 q 57 562 75 552 q 0 572 39 572 l 0 627 z "},"ξ":{"ha":637,"x_min":0,"x_max":558,"o":"m 424 616 l 424 553 q 348 560 375 560 q 187 494 252 560 q 123 340 123 428 q 146 254 123 291 q 219 193 170 218 q 393 120 268 168 q 523 45 488 83 q 558 -56 558 7 q 491 -212 558 -151 q 296 -274 423 -274 q 101 -230 167 -274 q 35 -113 35 -186 q 56 -45 35 -73 q 119 -18 77 -18 q 184 -78 184 -18 q 160 -133 184 -106 q 149 -149 149 -144 q 190 -198 149 -174 q 294 -222 231 -222 q 413 -179 381 -222 q 446 -86 446 -136 q 424 -28 446 -50 q 335 18 402 -7 q 68 145 136 85 q 0 302 0 205 q 69 486 0 404 q 275 602 138 568 q 110 764 110 653 q 152 860 110 814 q 307 935 193 905 l 155 935 q 27 928 92 935 l 46 1047 q 191 1036 133 1036 l 496 1036 l 496 939 q 229 768 229 912 q 278 665 229 706 q 424 616 327 624 z "},"ο":{"ha":699,"x_min":0,"x_max":620,"o":"m 311 627 q 610 397 550 627 q 620 304 620 356 q 610 229 620 272 q 456 35 574 92 q 311 1 387 1 q 167 35 233 1 q 10 229 46 92 q 0 304 0 272 q 10 397 0 356 q 311 627 72 627 m 311 573 q 193 524 233 573 q 142 313 142 465 q 164 156 142 209 q 311 55 200 55 q 479 313 479 55 q 428 524 479 465 q 311 573 390 573 z "},"π":{"ha":754,"x_min":0,"x_max":675,"o":"m 675 574 q 615 536 627 564 q 602 458 602 515 l 602 164 q 675 50 602 60 l 675 -3 l 406 -3 l 406 51 q 479 164 479 55 l 479 570 l 195 570 l 195 164 q 269 51 195 55 l 269 -3 l 0 -3 l 0 50 q 71 164 71 58 l 71 458 q 62 536 71 515 q 0 574 47 564 l 0 627 l 675 627 l 675 574 z "},"ρ":{"ha":790,"x_min":0,"x_max":711,"o":"m 0 -205 l 0 -151 l 50 -151 q 111 -109 111 -151 l 111 294 q 139 497 111 425 q 243 620 168 569 q 410 670 317 670 q 621 584 531 670 q 711 346 711 497 q 627 113 711 200 q 420 26 542 26 q 231 111 292 26 l 231 -97 q 293 -151 231 -151 l 340 -151 l 340 -205 l 0 -205 m 405 619 q 281 547 326 619 q 237 353 237 475 q 280 146 237 219 q 405 74 323 74 q 579 354 579 74 q 405 619 579 619 z "},"ς":{"ha":637,"x_min":0,"x_max":558,"o":"m 558 -118 q 495 -266 558 -207 q 306 -324 433 -324 q 119 -280 187 -324 q 52 -163 52 -235 q 74 -91 52 -118 q 133 -64 96 -64 q 198 -125 198 -64 q 172 -185 198 -154 q 164 -203 164 -195 q 203 -250 164 -229 q 300 -272 243 -272 q 413 -231 374 -272 q 452 -136 452 -191 q 432 -87 452 -107 q 342 -38 412 -68 q 141 55 208 16 q 38 155 75 94 q 0 294 0 216 q 87 535 0 437 q 311 633 175 633 q 469 575 412 633 q 526 458 526 518 q 504 393 526 420 q 448 365 482 365 q 394 387 416 365 q 372 440 372 408 q 395 500 372 471 q 406 522 406 515 q 380 557 406 540 q 312 574 355 574 q 175 493 227 574 q 123 313 123 412 q 176 180 123 232 q 389 66 229 129 q 530 -22 503 20 q 558 -118 558 -64 z "},"σ":{"ha":741,"x_min":0,"x_max":663,"o":"m 398 613 l 663 613 l 663 545 l 497 545 q 601 302 601 458 q 508 61 601 145 q 298 -23 414 -23 q 86 66 172 -23 q 0 302 0 155 q 85 538 0 446 q 293 630 171 630 q 398 613 346 630 m 298 578 q 178 513 225 578 q 131 310 131 448 q 178 97 131 163 q 299 31 225 31 q 472 314 472 31 q 298 578 472 578 z "},"τ":{"ha":670,"x_min":0,"x_max":591,"o":"m 0 419 l 15 629 l 570 629 l 570 560 l 342 560 l 342 163 q 368 84 342 109 q 428 59 395 59 q 506 102 474 59 q 540 239 537 145 l 591 239 q 533 49 589 111 q 393 -13 477 -13 q 273 26 321 -13 q 224 144 224 66 l 224 560 q 99 535 130 559 q 58 419 68 511 l 0 419 z "},"υ":{"ha":718,"x_min":0,"x_max":639,"o":"m 0 565 l 0 617 l 223 626 l 223 253 q 269 81 223 116 q 372 46 315 46 q 489 91 453 46 q 525 260 525 135 l 525 504 q 501 550 525 537 q 416 565 477 562 l 416 617 l 639 626 l 639 243 q 571 50 639 105 q 381 -6 504 -6 q 173 53 237 -6 q 109 243 109 112 l 109 504 q 85 550 109 537 q 0 565 62 562 z "},"φ":{"ha":850,"x_min":0,"x_max":772,"o":"m 317 62 l 317 349 q 380 603 317 541 q 530 665 443 665 q 707 585 642 665 q 772 358 772 505 q 728 155 772 234 q 615 41 683 75 q 439 6 547 7 l 439 -227 l 317 -227 l 317 6 q 77 105 154 14 q 0 335 0 196 q 80 568 0 471 q 296 665 159 665 l 296 610 q 131 342 131 609 q 175 121 131 180 q 317 62 220 63 m 439 62 q 596 137 554 62 q 638 342 638 213 q 606 548 638 486 q 525 610 574 610 q 463 572 487 610 q 439 371 439 534 l 439 62 z "},"χ":{"ha":829,"x_min":0,"x_max":749,"o":"m 401 332 l 490 481 q 529 567 529 548 q 434 605 529 602 l 434 666 l 699 666 l 699 605 q 640 591 662 605 q 570 492 618 577 l 439 264 l 639 -125 q 678 -188 661 -172 q 749 -203 695 -203 l 749 -264 l 442 -264 l 442 -203 q 515 -196 499 -203 q 530 -165 530 -189 q 517 -125 530 -152 l 370 168 l 212 -100 q 182 -164 182 -149 q 270 -203 182 -201 l 270 -264 l 0 -264 l 0 -203 q 79 -172 54 -202 q 136 -94 105 -141 l 333 229 l 194 487 q 123 585 153 565 q 41 605 93 605 l 10 605 l 10 666 l 222 674 l 401 332 z "},"ψ":{"ha":1117,"x_min":0,"x_max":1039,"o":"m 578 677 l 578 42 l 606 42 q 765 82 724 42 q 807 241 807 122 l 807 669 l 1039 669 l 1039 610 l 1019 610 q 925 545 925 610 l 925 257 q 863 51 925 115 q 606 -14 800 -14 l 578 -14 l 578 -146 q 641 -206 578 -206 l 689 -206 l 689 -264 l 350 -264 l 350 -206 l 385 -206 q 460 -146 460 -206 l 460 -14 l 430 -14 q 258 9 328 -14 q 159 69 188 32 q 121 137 131 106 q 111 257 111 168 l 111 545 q 18 610 111 610 l 0 610 l 0 669 l 230 677 l 230 241 q 292 72 230 102 q 430 42 355 42 l 460 42 l 460 545 q 350 610 460 609 l 350 669 l 578 677 z "},"ω":{"ha":861,"x_min":0,"x_max":783,"o":"m 314 629 l 314 576 q 169 499 206 576 q 131 306 131 423 q 160 114 131 185 q 246 43 189 43 q 311 90 292 43 q 331 277 331 137 l 331 340 l 452 340 l 452 277 q 474 82 452 120 q 541 43 497 43 q 624 114 595 43 q 653 306 653 185 q 628 473 653 410 q 567 555 603 536 q 471 576 531 574 l 471 629 q 700 538 618 629 q 783 289 783 448 q 716 66 783 140 q 551 -7 650 -7 q 393 76 446 -7 q 231 -7 332 -7 q 66 68 132 -7 q 0 285 0 143 q 45 486 0 412 q 153 593 90 561 q 314 629 217 626 z "},"ϊ":{"ha":547,"x_min":0,"x_max":469,"o":"m 0 578 l 0 635 l 258 642 l 258 183 q 327 60 258 60 q 417 243 409 60 l 469 243 q 447 105 467 163 q 392 17 426 47 q 294 -13 358 -13 q 195 10 230 -13 q 149 70 160 33 q 137 184 137 106 l 137 505 q 56 578 137 578 l 0 578 m 80 926 q 133 905 112 926 q 155 854 155 885 q 132 803 155 825 q 80 781 109 781 q 31 803 54 781 q 9 856 9 825 q 32 906 9 886 q 80 926 54 926 m 338 924 q 391 904 369 924 q 413 852 413 884 q 390 800 413 822 q 338 777 368 777 q 288 800 309 777 q 267 850 267 822 q 288 902 267 880 q 338 924 309 924 z "},"ϋ":{"ha":739,"x_min":0,"x_max":660,"o":"m 0 565 l 0 620 l 230 629 l 230 243 q 277 66 230 102 q 385 31 325 31 q 505 77 467 31 q 543 252 543 122 l 543 503 q 518 550 543 536 q 429 565 493 564 l 429 620 l 660 629 l 660 235 q 590 35 660 92 q 393 -23 520 -23 q 178 39 245 -23 q 111 235 111 102 l 111 503 q 87 550 111 536 q 0 565 64 564 m 255 906 q 307 886 286 906 q 329 836 329 865 q 307 786 329 807 q 255 765 286 765 q 206 786 227 765 q 185 838 185 807 q 206 886 185 867 q 255 906 227 906 m 514 905 q 566 884 545 905 q 587 835 587 864 q 566 783 587 804 q 514 762 545 762 q 463 783 484 762 q 442 833 442 804 q 463 884 442 864 q 514 905 484 905 z "},"ό":{"ha":699,"x_min":0,"x_max":620,"o":"m 416 1015 q 382 915 399 973 q 342 762 366 857 l 296 762 q 256 915 275 849 q 223 1015 238 981 l 223 1033 l 416 1033 l 416 1015 m 311 627 q 610 397 550 627 q 620 304 620 356 q 610 229 620 272 q 456 35 574 92 q 311 1 387 1 q 167 35 233 1 q 10 229 46 92 q 0 304 0 272 q 10 397 0 356 q 311 627 72 627 m 311 573 q 193 524 233 573 q 142 313 142 465 q 164 156 142 209 q 311 55 200 55 q 479 313 479 55 q 428 524 479 465 q 311 573 390 573 z "},"ύ":{"ha":739,"x_min":0,"x_max":660,"o":"m 0 568 l 0 623 l 230 630 l 230 257 q 277 87 230 121 q 385 52 325 52 q 505 96 467 52 q 543 265 543 140 l 543 509 q 518 554 543 540 q 429 568 493 568 l 429 623 l 660 630 l 660 248 q 590 54 660 109 q 393 -1 520 -1 q 178 59 245 -1 q 111 248 111 119 l 111 509 q 87 554 111 540 q 0 568 64 568 m 473 1005 q 439 905 456 963 q 400 751 422 846 l 353 751 q 313 906 331 840 q 279 1005 294 972 l 279 1021 l 473 1021 l 473 1005 z "},"ώ":{"ha":861,"x_min":0,"x_max":783,"o":"m 314 642 l 314 587 q 169 507 206 587 q 131 304 131 427 q 160 105 131 178 q 246 31 189 31 q 311 80 292 31 q 331 273 331 128 l 331 341 l 452 341 l 452 273 q 474 70 452 109 q 541 31 497 31 q 624 105 595 31 q 653 302 653 178 q 628 479 653 414 q 567 564 602 544 q 471 587 531 584 l 471 642 q 700 549 618 642 q 783 286 783 456 q 716 55 783 134 q 551 -23 650 -23 q 393 64 446 -23 q 231 -23 332 -23 q 66 57 132 -23 q 0 283 0 136 q 45 493 0 416 q 153 605 90 571 q 314 642 217 640 m 503 1023 q 469 923 486 981 q 429 769 452 865 l 382 769 q 342 924 360 858 q 309 1023 323 989 l 309 1041 l 503 1041 l 503 1023 z "},"Ё":{"ha":973,"x_min":0,"x_max":901,"o":"m 806 995 l 812 804 l 748 804 q 662 904 726 877 q 513 923 612 923 l 238 923 l 238 531 l 424 531 q 545 609 529 531 l 608 609 l 608 389 l 545 389 q 499 459 526 445 q 424 465 484 465 l 238 465 l 238 61 l 547 61 q 835 215 822 61 l 901 215 l 884 -5 l 0 -5 l 0 52 q 92 161 92 62 l 92 821 q 0 928 92 927 l 1 995 l 806 995 m 251 1161 q 272 1216 251 1192 q 332 1245 294 1245 q 389 1221 368 1245 q 414 1161 414 1196 q 386 1097 414 1122 q 332 1076 359 1076 q 275 1101 301 1076 q 251 1161 251 1128 m 514 1161 q 536 1216 514 1192 q 597 1245 559 1245 q 654 1221 631 1245 q 678 1161 678 1196 q 650 1097 678 1122 q 597 1076 624 1076 q 539 1101 565 1076 q 514 1161 514 1128 z "},"Ђ":{"ha":1131,"x_min":0,"x_max":1059,"o":"m 918 796 l 855 796 q 701 919 830 919 l 500 919 l 500 538 q 706 587 608 587 q 958 512 863 587 q 1059 298 1059 436 q 976 75 1059 162 q 763 -16 892 -16 q 605 22 658 -16 q 565 90 565 49 q 644 174 565 174 q 720 118 720 174 q 718 96 720 107 q 716 79 716 85 q 764 50 716 50 q 899 289 899 50 q 701 511 899 511 q 500 468 619 511 l 500 -5 l 272 -5 l 272 54 q 360 161 360 64 l 360 919 l 217 919 q 61 796 85 919 l 0 796 l 0 996 l 918 996 l 918 796 z "},"Ѓ":{"ha":865,"x_min":0,"x_max":784,"o":"m 307 -5 l 0 -5 l 0 51 q 84 163 84 60 l 84 825 q 0 937 84 928 l 0 995 l 784 995 l 784 750 l 723 750 q 661 874 709 825 q 522 928 604 928 l 221 928 l 221 163 q 307 51 221 60 l 307 -5 m 582 1255 l 583 1248 q 583 1229 583 1238 l 581 1223 l 576 1208 q 562 1181 572 1194 q 542 1157 553 1168 q 499 1126 530 1146 q 321 1074 425 1082 l 321 1120 q 420 1179 397 1158 q 449 1217 443 1200 q 458 1255 455 1234 q 479 1296 461 1281 q 522 1311 497 1311 q 554 1299 542 1308 q 562 1291 558 1296 q 568 1284 566 1289 q 582 1255 580 1272 z "},"Є":{"ha":956,"x_min":0,"x_max":887,"o":"m 887 174 q 487 -16 726 -16 q 163 92 284 -16 q 0 492 0 241 q 134 866 0 719 q 477 1014 269 1014 q 669 990 564 1014 q 777 962 772 962 q 808 981 789 962 l 840 981 l 840 750 l 786 750 q 490 949 711 949 q 188 703 274 949 q 155 531 159 621 l 151 531 q 322 631 231 631 q 358 628 333 631 q 507 569 414 621 q 605 528 576 528 q 692 587 644 528 l 740 555 q 532 416 655 416 q 460 431 502 416 q 389 466 428 446 q 320 496 348 486 q 248 511 283 511 q 184 481 211 511 q 160 412 160 452 q 264 152 160 267 q 490 52 356 52 q 840 208 715 52 l 887 174 z "},"Ѕ":{"ha":798,"x_min":0,"x_max":726,"o":"m 596 728 q 336 943 510 943 q 200 900 252 943 q 149 788 149 859 q 363 610 149 668 q 520 562 463 583 q 726 290 726 474 q 629 75 726 165 q 396 -16 532 -16 q 233 5 308 -16 q 124 31 141 31 q 64 -5 75 31 l 0 -5 l 0 311 l 65 311 q 194 129 99 201 q 408 51 292 51 q 546 103 488 51 q 603 237 603 159 q 439 428 603 362 q 345 455 405 443 q 254 481 281 471 q 31 748 31 557 q 122 937 31 865 q 349 1009 212 1009 q 543 956 448 1009 q 586 941 570 941 q 619 962 597 941 l 668 962 l 668 728 l 596 728 z "},"І":{"ha":399,"x_min":0,"x_max":328,"o":"m 328 937 q 237 828 237 931 l 237 165 q 328 55 237 65 l 328 -3 l 0 -3 l 0 55 q 91 165 91 65 l 91 828 q 0 937 91 930 l 0 997 l 328 997 l 328 937 z "},"Ї":{"ha":509,"x_min":30,"x_max":458,"o":"m 30 1171 q 52 1227 30 1202 q 113 1255 74 1255 q 169 1232 147 1255 q 193 1171 193 1206 q 165 1107 193 1132 q 113 1086 140 1086 q 56 1111 81 1086 q 30 1171 30 1138 m 294 1171 q 316 1227 294 1202 q 376 1255 338 1255 q 433 1231 410 1255 q 458 1171 458 1206 q 430 1107 458 1132 q 376 1086 404 1086 q 319 1111 345 1086 q 294 1171 294 1138 m 394 932 q 303 821 303 924 l 303 156 q 394 45 303 56 l 394 -12 l 66 -12 l 66 45 q 157 156 157 56 l 157 821 q 66 932 157 924 l 66 990 l 394 990 l 394 932 z "},"Ј":{"ha":471,"x_min":-166,"x_max":380,"o":"m 380 995 l 380 940 q 283 834 283 928 l 283 170 q 182 -99 283 -3 q -17 -178 97 -178 q -126 -148 -83 -178 q -166 -83 -166 -119 q -144 -33 -166 -55 q -91 -16 -122 -16 q -16 -68 -16 -16 q -17 -85 -16 -78 q -20 -92 -20 -90 q 18 -111 -20 -111 q 128 116 128 -111 l 128 834 q 31 939 128 931 l 31 995 l 380 995 z "}}}
